<svg id="borders" xmlns="http://www.w3.org/2000/svg" viewBox="0 0 1000 203.07"><defs><style>.cls-1,.cls-2{fill:#fff;}.cls-1{fill-rule:evenodd;}</style></defs><title>blue-border</title><path class="cls-1" d="M21,201l-1.57-.22.3-2.13a.8.8,0,0,0,1.15-.55C21.55,198.37,21.06,199.89,21,201Z"/><path class="cls-1" d="M132.18,101c.23-1,1.29-.48,2-.54C133.94,102.06,132.76,101.94,132.18,101Z"/><path class="cls-1" d="M117.67,96.11c.54,1,2.84,1.5,3-.46-.82-1.34-3.21-.8-4.87-1.14-1-.09-.44-2-1.84-1.6-.06,1.55-1.78.17-2.53.5a14.08,14.08,0,0,0-8.71-2.33c-2.08.11-4.82.8-5.7,2.26,1.47,1,1.11.19,3,.32,1.94,5.32,8.67,3.74,12,4.12,2.85.36,5.94,2.52,8.9.77C120.22,97.29,117.28,98.69,117.67,96.11ZM101.9,94.59c.33-2.2,2.57-.94,4.08-1C105.43,95.4,102.92,96.2,101.9,94.59Z"/><path class="cls-1" d="M120,92.71c-.77,1.49-3.86.45-3.32-1.72,1.38.76,1.45.77,3,.26C119.45,92.07,119.6,92.52,120,92.71Z"/><path class="cls-1" d="M22.2,207.62c4.72,1.18,7.15-1.8,11.87-.62,1.11.54.93-1.26,1.77-1.21a64.47,64.47,0,0,1,19.62,1.11c1.71-.72,3.72-.86,5.5-1.49,1.13-.67,2,1,3.07,1.05s2.22-1.11,3.31-1.08,2.12,1.1,3.07,1.05c2.59-.13,5.49-1.37,8.11-1.29,1.5.05,3.15,1.07,4.64,1.22,1.73.17,3.44-.78,5.39-.86,3.83-.16,7.43.17,11.14-.27,3.09-.38,5.72-.78,9.1-1.36,2.22-.38,5.42.32,9,.06,1.14-.08,1.93-.88,3.26-1.16,4.9-1,10.34,1.68,14.85-1.59,10-.4,19.66-.58,29.78,1.32,1.4-.68,2.66-1.56,4.78-1.12,1.92-1,.17,2.45,1.43,2.25,1.87.84,5.16,0,5.05,3.19-1.92,1.71-6,0-7,3.14-7.94,1.18-15.57.42-23.18.6-2.94.07-5.68,1.1-8.54,1.58-1.54.27-3.23,0-4.78.33-1.35.23-2.53,1-3.79,1.11s-1.27-.76-2-.9c-1.9-.34-7.06.46-8.52.7-3.69.61-6.52,1.16-10.77,1.94-2.31.42-4.76,1.33-7,1.55s-4.4-.53-6.85-.66c-6-.28-12.49.09-19.73,0-1,0-2.09.44-3.25.37-.9,0-2.17-1.06-3.09-1.05-1.58,0-3.33.94-4.91.91-1.82,0-3.7-.11-5.59-.2l-5.58-.41c-.76-.06-1.75-1-2.55-1.06-1.33,0-5.23.6-7.57.46-.94-.06-1.55-1-2.55-1.05-1.75-.14-3.1.35-5.28-.69a6.24,6.24,0,0,0-1.58-.21c-.39-.13-.67.83-1.15.57-.25-.14-1-2.32-2.35-2.48C25.42,210.33,22,212,22.2,207.62Z"/><path class="cls-1" d="M262,207.11a11.18,11.18,0,0,0,5.71.8c1-.19,1.71.69,2.07.75,4.46.73,11,.9,14.56.22a43.09,43.09,0,0,1,8.5-.59c2.85,0,5.72.11,8.65,0a85.22,85.22,0,0,0,8.82-.72c1-.16,1.58.73,2.08.72,2.29-.05,5.19-.47,7.78-.72,3.07-.29,6.09-.25,7.78-.71.45-.13.5.71.52.71,3.07.21,4-1.26,6.21-1.49a2.77,2.77,0,0,0,.53.35,2.43,2.43,0,0,0,1,.35c.94,0,1.56-.71,2.07-.75,3.38-.22,6.65.33,9.84-.13,2.56-.37,5.25-1.93,7.73-2.25,1.58-.2,2.11.69,2.6.68.33,0,.58-.72.51-.72,4.71-.18,10.38-.12,13.44-.22.78,0,1-.62,1.53-.76a36.12,36.12,0,0,1,7.72-.91c3.06-.2,7.23-1.29,10.8-1.71,1-.13,2.05.06,3.1-.08,9-1.13,22.72-1.47,32.89-3.24,5.19-.9,10.27-1.88,15.28-2.82s9.94-1.93,14.85-2.72c5.64-.91,10.56-2.21,15.28-2.87,3.22-.45,6.45-.57,9.7-.73a81,81,0,0,0,9.73-1c2.08-.38,4-1.3,6.06-1.77a115.93,115.93,0,0,1,17.78-3.14c9.05-.76,18.18-1.34,27.57-1.71,17.46-.66,35.17-2.65,53.07-2.88,12.82-.25,26.07-.51,38.21-2.14,11.56-1.59,26.39-2.22,40.08-3.88,8.88-1.09,17.7-1.46,26.32-2.87,2.94-.48,5.63-1.69,8.51-2.13,12.17-1.88,24.63-2.06,36.42-3.74,3.8-.54,7.65-1.82,11.52-2.4s7.81.07,11.7-.26c4.12-.35,8.05-1.3,12.08-1.73a144,144,0,0,0,15.56-2.73c3.33-.76,6-.53,8.59-.71,5.22-.37,10.46-2.08,15.55-2.73,1.58-.2,3.12.63,4.61.34s2.84-1.48,4.43-1.8c0,0,.34.18.76.34a2.56,2.56,0,0,0,1.32.21c4.25-.89,8.64-.82,12.57-1.73,1.83-.42,3.15-.84,5-1.12s4.26-.32,4.55-.37c1.9-.33,3.26-1.55,4.94-1.84,1-.16,1.54.55,2.08.55.77,0,1.73-.82,2.47-.91,5.36-.68,11.49-.91,17.11-2,1.38-.28,2.56-1.39,3.93-1.74,1.71-.44,3.38,0,5-.39,3.14-.65,6-1.52,9-2.14,6.14-1.22,12-2.46,18-3.48l17.65-2.87c5.85-1,11.67-2,17.44-3.21,9.93-3.25,20.08-5.09,30-7,1.44-.28,2.68.07,4-.25,1-.22,1.9-1.35,2.94-1.62,2.61-.66,5.44-.5,8-1.21a66.71,66.71,0,0,0,7-2.58c1.08-.43,2.5-.47,3.5-.93.17-.08.68-1.36.93-1.49.75-.38,1.76.12,2.53-.16a205.26,205.26,0,0,1,28.56-7.27c9.76-1.92,19.35-4.21,28.16-6.35,4.28-2.07,9.36-2.86,14.07-4.21a51.73,51.73,0,0,1,5-1.65c2.54-.41,5.48.06,8.14-.28s5-1.39,7.58-1.69c8.21-1,16.62-.67,24.68-.47s15.78.22,22.64-1.58c2.23-.58,2.13,2.27,3.62,2.78,1.26-2.12,3.61.85,4.57-.82,1.81-1.29,2.46-4.13,4-5.82-1-2.37.41-4-1.1-5,.34-3.19-.75-4.28-.63-7.15-3.18-.51-4.28-4-7.76-4.12-1.74,4.19-3.58.55-5.12.12-1-.28-1.87.11-3.07.07-4.27-.15-8.47,1.59-12.77,1.72s-8.64-.08-12.82-.37c-.75-.05-1.69-1.33-2.6-1.34s-2,.91-3,.82c-2.27-.18-4.54-1.14-6.7-1.2-.75,0-1.06.72-1.51.77-.7.07-1.16-.7-1.56-.66-2.88.29-5.35.68-7.14,1-5.41.85-12.44,2.45-17.28,3.52-.89.19-1.65-.7-2.07-.63-1.06.2-2.06,1.33-3,1.57-1.49.38-3.11,0-4.6.2a96.29,96.29,0,0,0-14.71,2.8c-2.43.7-4.61,1.91-7,2.46-1,.24-1.72-.61-2.59-.58a22.08,22.08,0,0,0-2.51.85c-1.81.36-1.82,1.14-3,.88-.8-.17-1.21.72-1.49.8-3.44.88-6.12,1.12-8,2.58-2.3,1.74-5.85,2.19-9,2.63a28.79,28.79,0,0,1-4,2.36c-.79.3-1.73-.06-2.54.14-1,.24-1.17,1.29-2,1.54-1.58.5-3.39.49-5,1s-3.34,1.37-5,1.74a26.37,26.37,0,0,1-7.11.44c-.67,0-1.69.82-2.5.87-1.68.11-3.24-.58-5.12-.4s-3.36,1-5,1c-3.26.06-6.53-1.29-9.7-.12-2.16-1.84-4.73-.3-7.15-.23s-4.94-.26-7.15-.23c-1.92,0-4.05-.32-6.14-.3-2.56,0-5.64,1.26-8.22-.88-1,1.58-2.39-.45-3.46,1.67a28.38,28.38,0,0,0-7.66-.19c-.2,0-.56,1.17-1.47.83-.35-.14-.49-1.36-1.12-1.35,0,0-.14.35-.33.72s-.43.74-.58.79c-.84.25-1.36-.57-1.63-1.32,2.76-1.15,5.57-1.81,8.48-2.76.83-.27,1.1-1.42,1.42-1.53.62-.21,1,.93,2.08.57,1.52-.5,2.93-1.26,4.47-1.73,12-3.7,24.78-6.74,36.1-10.29,3-1,6-1.76,9-2.71,1.33-.42,2.76-1.36,4-1.68,1.94-.5,3.71.2,5.61-.34.87-.25,1.6-1.18,2.46-1.59a28.86,28.86,0,0,1,3-.9c4.83-1.68,12-2.68,18.73-3.91.74-.87.79-.18,1.53-.08a7,7,0,0,0,2-.11c5.73-.54,10.44-1.1,16.83-1.61,7.67-.61,15.68-.74,23-1.77,6.89-.94,13.91-3,20.89-3.77,1-.1,1.16.68,2.08.65s1.76-.68,2.54-.81A126.25,126.25,0,0,1,1113,61a168.07,168.07,0,0,1,17.82,1,45,45,0,0,1,5.16.6c.78.17,1.16,1.09,2.09,1.38s2.25-.33,3.08-.07c3.13,1,6.05,3.62,9.32,3.37.24-2,1.94-2,3-2.93.46-.21,1.67-2.7.46-2.88.44-1.27,1.2-2.12,1.47-3.62,1.54-2.53-.67-5.85-.18-9.31,1.42-3.33.92-6.15.86-9.33-.05-2.89.44-3-.09-5a3.17,3.17,0,0,1,0-1.43c-.79-2.58-2.28-3.84-3.74-5.64s-2.82-4.18-4.78-4.91c-4.93,1.38-10.24.41-14.06-.39-1.12-.23-2.63-.37-3.66-.63-2.52-.65-3.94-2.28-6.31-2a5,5,0,0,0-2.58.8c-.19.13-.24,1.3-.48,1.45a17.32,17.32,0,0,1-4.11,1.57c-5.76,2-11.61,0-17,2.73-1.84-2.29-5.7-1.57-8.41-2.58-2.05-.13-1.47,3.11-3.52,3-1.65.62-3.4,1.1-4.58,2.33-6.44-.75-13.36,2.55-20.09,2.32-3.08-.1-7.47,1-10.85.48-3.12-.45-6-2.74-8.92-2.44-1.7.17-3.18,2.55-4,2.37-1.44-.32-3.48,1.37-5.08,1.71-.75.15-1.81-.69-2.61-.58-2.81.41-6.05.87-9.23,1.21-6.27.68-12.34,3.14-18,1-3.9-1.48-6.29,1.87-9.63,2.74-2.09.55-4.67.73-7.15,1.16-5.26.91-9.82.6-14.38.88-2.36.14-4.48,1.23-6.62,1.15-2.41-.09-5-1.48-7.31-1.66-1-.08-2.59-.64-3.63-.47s-1.93,1.52-3,1.64c-1.28.15-2.32-.63-3.63-.47s-2.66.85-4,1c-2.29.23-4.83-.49-7.22-.23-1.23.14-2.06,1.47-3,1.64-1.32.25-2.84-.39-4.15-.43-2.36-.08-4.81-.71-7.26-.9-1.34-.1-2.81.39-4.09.3s-2.53-1.18-3.68-1.17-2.65.83-4,1-3.26.13-4.6.34c-3,.47-5.81,1.69-8.58,2.07-1.2.17-2.42-.49-3.63-.45-1.41,0-2.71.9-4,1-3,.29-6-.07-8.67.67-2.06.58-4.18,2.92-5.39,3.29a2.25,2.25,0,0,1-1.3-.2,8.3,8.3,0,0,1-.79-.36c-3.22,1.1-5.54,2.91-8.44,3.53-.5.11-1-.64-1.08-.64-.52,0-.54.74-1,.8-2.5.31-4.38.18-5.09.4-1,.31-1.92.71-3,.95a254.62,254.62,0,0,1-35.86,5.77c-7.51.61-17.43,2.16-23.28,2.64-.15,0-.79-.75-1.58-.59-1.56.3-1.55,1.47-1.91,1.59-.81.28-2.2-.61-3.1-.46-1.18.2-2.25.84-3,1s-.76-.72-1.58-.59-1.39.69-2.48.92c-2.53.54-5.11,1.9-8,2.1a15.36,15.36,0,0,1-6.19-.92c-1.68.82-3,2.5-5,1.14-1.51,1-3.22,2.18-5,1.13-3.9-.47-8.11,1.36-12.09,1.73-5.78.53-11.7.6-17.69,1.47-7.94,1.16-19.22,3.26-24.7,2.77-.51,0-.55.71-1,.8-8.23,1.84-16.2.75-22.26,1.09-.14,0-1.25.28-2.34.55l-2.14.54c-.11,0-.51-.62-1.07-.63-3.69-.09-5.85,1-8.46,2.13-.61-2-.82-.74-2.07-.55a326.44,326.44,0,0,1-43.26,4.1c-10.56.22-21,1.47-33.25,1.75-2.5,0-4.4,1.09-6,1.13-1.78,0-3.86-1.19-5.63-1-2.18.18-4.31,1.63-6.43,1.89s-4.36-.23-6.58-.26c-2.42,0-5.17-.32-7.58-.19-2.23.13-4.27,1.07-6.48,1.15-10,.35-20-.89-30.18.47-.42-2.29-2.11-.56-3.05-.53-4,.12-8.5.07-12.56,0-2,2.92-4.92,1.56-7.43,1.85-5.11.59-10.51,1-16,1.42s-11.14.58-16.71.78c-11.13.37-22,.65-31.28.87-1.88.06-4.73.89-6,.94-2,.08-2.94-1.39-4.55-1.27-2.45.2-5,2-7-.46-5.51,2.12-10.78-1-14.92,1.94-4.82-1.92-9.84.21-15,.38-2.43.09-5.07-.68-7.49-.52-3.09.2-6.72.65-10.06,1.07s-6.4.72-8.34.74c-1,0-2.72-1.13-4-.66-.64.23-.86,1.39-1.47,1.45a3.59,3.59,0,0,0-1.51-.7c-.8,0-1.77.73-2,.74-1.54,0-2.72-.73-4-.66-2.57.13-4.91,1.22-7.45,1.53-2.88.36-5.77.47-8.46.83-5.75.7-10.67,1.52-15.41,2.15-3.35.44-7.73,0-9.46,0-.19,0-.31.18-.39.36a2.13,2.13,0,0,0-.11.36,123.45,123.45,0,0,1-14.44,1.39c-.05,0-.79-.76-1.48-.74-.93,0-1.11.6-2,.69a45.88,45.88,0,0,1-8-.12c-1.25-.06-2.79,1.44-3.47-.77-1.48-.06-2.56,2.07-3.49.66a146.65,146.65,0,0,1-18.17.17c-6.25-.24-12.49-.39-18.13.39a10.88,10.88,0,0,0-2.5.64c-2.39.85-4.61-.07-7-.22-3.22-.21-5.84.09-8.44-.28-.94-.14-1.92-.82-2.94-.86-1.78-.07-5.28,1.05-6,1.14-.5.07-.56-.77-1-.76-1,0-2-.15-3-.14-.76,0-3.26-.17-3.47-.17-5.3-.07-10.79.12-16.39-.08-7.74-.31-16.56-.77-23.24-1.51-2.45-.28-5.51-1.36-7.86-1.24-2,.1-3.81,1.6-5.6,1.78-1.35.13-2.7-.89-3.9-1-.92-.08-1.14.51-2,.54s-1.17-.77-2-.17a21.18,21.18,0,0,1-9.43-.1c-.35,2.76,2.18,2,3.28,2.44.68.26,1.2,1.51,1.36,1.55.93.22,1.25-2.41,2.09-1.25-.36,2.15,1.49,1.62,2.3,2.35,2.13,1.25,1.68-2,3.57-1.13,5.58,3.38,11.91,3.55,18.14,4.12,0,0,.1-.74.55-.68,6.05.83,13.83,1.74,20.3,2.07,6.13.22,12.35.68,18.41.89,1.55.05,2.85.27,4.48.22,5.24-.19,10.24.93,15.43.71,1.68-.08,3.45-.38,5-.56a18.26,18.26,0,0,1,4,.12c1.69.15,3.17.75,5,.87.75.05,1.74-.73,2.51-.64,1.18.15,1.47.84,2.47.79,3.06-.15,6-1.46,9-1.15,2.13.22,4.3,1.32,6.44,1.63,1,.14,1.41-.67,2.51-.67.81,0,1.71.79,2.48.75,1.82-.08,3.72-.56,5.51-.63,3.39-.14,7.16-.85,10.49-.56,1.94.17,4,1.44,6,1.52,4.47.17,9.18-3.42,13.49.16,3.7-.58,6.74-.3,10-.71,7.57-1,17-2.84,24-3.57,3-.36,4.7-1.25,6.49-1.52,2.49-.37,5.16.38,7.5-.1,0,0,.39-1.36.48-1.44,1.4-1,4.38-.65,5.49-.79,3.59-.45,7,.78,9.5.59.9-.07,2.08-1.28,3-1.47,1.47-.32,2.76.12,4-.05,6.43-1,13.94-2.08,21-.53a11.52,11.52,0,0,0,3.52.62,20.71,20.71,0,0,0,6.94-2.32c.45-.26,1,.7,1,.69,4.49-.5,10-1,14-1.17,1.4,0,3.06.56,4.53.55s2.6-.09,4-.15a49.61,49.61,0,0,1,5.51-.2c2,.17,4.12,1.28,6.06,1.21s3.72-1.38,5.45-1.63c.77-.11,1.24.6,1.53.66.83.16,1.78-.79,2-.8,2.16,0,7.69.35,9.55.27.17,0,1.07-.91,2-.81,2.29.25,4.72,1.6,7.12,1.82,3.45.31,7.36.19,9.56.27.92,0,2-.86,3-.85,2.07,0,4,.41,6.05.43.92,0,2.16-.89,3-.88,1,0,1.57,1.26,2.59,1.29,8.05.25,17.29-1.42,22.63-.54a8.37,8.37,0,0,0,2.51-.14c12.85.68,26,.67,38.93,1.18,4,.16,8,1.58,11.72,1.37,2.07-.11,5.32-1.65,6.45-1.88.9-.19,1.69.62,2.57.54,10-1,19.28-1.68,28.65-2.74,6.49-.72,12.76-.21,19.2-.72,13.57-1,29.21-2.08,42.31-4a65.69,65.69,0,0,1,7.06-.56c1.15,0,2.46-.13,3.53-.29C684.63,89,699.31,88,714,86.77c7.74-.64,15.53-2,23.19-2.65,20.83-1.89,40.15-2.84,59.68-5.69,1.86-.27,3.58-1.08,5.52-1.17,1.69-.08,3.83,1.13,5.69,1a21.67,21.67,0,0,0,2.48-.92,52.14,52.14,0,0,1,8.56-1.43c4.17-.54,8.35-.64,12.69-1,2.41-.22,6.9-1.72,9-2.17.62-.13.78.7,1.58.59,2.58-.34,7.12-1.8,9.53-2.21.63-.1.76.71,1.58.59,6.64-.93,14.73-2.62,20.68-3.77,1.23-.24,1.94.67,3.11.47,1.89-.32,3.49-1.45,5.48-1.86.56-.12.86.6,1.07.64.76.11,1-.77,1.47-.83,6-.79,10.49-2.89,15.62-3.34a51.71,51.71,0,0,1,7.19.19c2.45.15,4.79.82,7.24.9,8,.29,18.17-1,24-1,4.14,0,9.11-1.4,13.83-.22-4.08,2.59-9,2.61-13.58,3.8a112.36,112.36,0,0,0-14.52,4.62c-1,.42-1.95,1.24-3,1.65-4.06,1.67-7.47,2.56-11,3.68-2.54.8-5,1.22-7.52,2-2.77.86-4.93,1.94-6.5,1.91a195.8,195.8,0,0,1-24,6.17c-8.45,1.6-17,4-25.59,5.62-.51.1-.65-.66-1.07-.63a5.71,5.71,0,0,1-1.46.84,86.11,86.11,0,0,1-9.52,2.21C827,96,818,96.11,809.2,98.25c-.9.22-1.49,1.31-2.42,1.64s-2.54.08-3.55.29a44.45,44.45,0,0,1-11.65,1c-2.88-.14-8.31.3-10.19.12-.64-.06-2.11-.53-2.59-.5-1.53.1-5.12,1.62-6.46,2-.51.13-.66-.68-1.07-.63-3,.4-6,1.46-9.05,1.48-3.86,0-7.32-2.38-10.63.89-1.16-1.13-2.36-1.08-3.66-1.13-.87,0-1.71.85-2,.88-1,.13-1.17-.6-2.08-.54-3,.19-6.45,1-9.61.8-2.63-.14-5.22-1.41-7.77-1.51s-5.44.62-8.09.67c-3.34.06-5.73-.85-7.7-.79-1,0-2.54.88-3.48,1-5.8.79-10.93-1.21-15.34-.91-1.24.09-2.18,1-3.48,1,0,0-.79-1.24-1.13-1.35-1.91-.57-2.07,1-3.48,1-.71,0-1-.58-2.08-.55-4.18.11-8.45.83-12.19.28-1.42-.21-2.14-1.13-3.65-1.15-1.78,0-3.12.94-5,1.11s-3.79-.37-5.61-.28c-10.61.54-21.5,2-29.34,1.58a17.31,17.31,0,0,0-3,.23,35.81,35.81,0,0,0-7.46,2c-.76.3-1.21,0-2,.15.11,0-.28-.65-.56-.68-.52-.05-.54.74-1,.79-.56.07-1.3,0-2,.15-1.91.37-3.23.16-5,.38-14.59,1.74-28.56,5.19-42.68,5.9-3.34.16-6.84-.25-10.14,0-3.46.24-6.63,1.8-10,2.07s-11-.71-15.22-.48c-2,.12-3.58,1-5.5,1.07-7.06.23-13.92-.91-20.75-.25-7.55.71-14.15,1.11-21.17,1.18-5.14,0-10.1.42-15.11.71-1.4.08-6.55-.41-7.59-.36-2.65.12-11.1,2-13,2-.26,0-.68-.67-.53-.69-2.54.33-5,1.52-7.49,1.72-2.29.17-4.6-.62-7.08-.46-9.51.6-19.48,1.07-29.14,3.17-6.49,1.05-15.4-.44-23.66,1.32-3.78.8-7.56,3-11.57,1-2.11,2.38-5,.69-8,.82s-6.82,1.53-10.06,1.57c-3.62,0-6.84-1-10.09-.58-1.89.24-3.59,1.25-5.53,1.51-.75.1-1.26-.67-1.52-.71-.92-.16-1.55.75-2,.72-1.49-.09-3-.67-4.54-.72s-2.66.8-4,.72c-.79,0-2.24-1.45-2.52-1.43s-.38.71-1,.72c-3.9.06-8.28,1.31-12.09,1.43-1.43,0-3.1-.89-4.53-.72-1,.13-2,1.17-3,1.43-5.92,1.53-12-.68-18.17,1.91-2.51-1.7-5.41-.84-8.05-.83-.36,0-2.7-.1-4-.06-5.69.17-9.21-.28-13.1-.25-8,.12-13.23-.46-19.66.1a26.88,26.88,0,0,1-4-.13c-4.82.07-10.41-.19-13.63.24-1.35.2-2.21.91-3.55.54-2.32.07-2.47.65-4.53-.22a14.16,14.16,0,0,1-10.21,2.38c-5.38-.61-16.55.47-23.68-1.29-2.47-.58-4.94-3.09-7.36-3.37-1.74-.2-4,.9-5.63,1.06a49.41,49.41,0,0,1-6.09.31c-3-.09-5.67-1.23-8.5-1.28-2.25,0-4.67.82-7.15.85-2.86,0-5.82-.7-9-.78-.88,1.25-1.7-.83-2.45-.93-1.14-.15-2.35.53-3.58.41-2.53-.24-4.88-.56-7.54-.65l-8-.26c-2.7-.1-5.41-.31-8.13-.57-4.75-.46-9.61-1-14.54-1.57-5.23-.55-10.62-1.41-15.21-.2-1.57-.1-1.16-2.41-3.33-1.86-9.5,2-20.91-1.56-28.39-.8a30.33,30.33,0,0,1-4.61.13c-.82,0-1.72-1-2.4-1.05-1.84,0-3.43.82-5.2.65-1.61-.16-3.34-1.23-4.89-1.48-1-.15-1.67.34-2.6.32-1.13,0-1.93-1.07-2.89-1.17-1.92-.21-3.84.88-5.71.57S5.94,119,4,118.7s-4.07-.12-6.11-.21c-4.81-.18-8.92-.62-12.19-.63-2.14,0-4.22.52-6.22.34-1.8-.16-3.37-1.46-5.36-1.68s-4.78.59-6.86,1-5.57-.87-6.28,3.25c-.88,1.93,1,2.59,2,3.26a19.51,19.51,0,0,0,2.38,1.15,36.89,36.89,0,0,0,12.41,2.95c2.16.11,4.18-.48,6.26-.34,8.91.73,18.33,4,26.13,4.22,3.31.07,7.12-2.61,9.16.68,2.44-1.66,7.54-.78,11.27.26A15.54,15.54,0,0,1,35.45,135a90.28,90.28,0,0,1,18.07,1l9.21,1.29c1.54.21,3.07.41,4.61.58s3.08.26,4.61.35c11.94.65,23.35,2.28,33.93,2.91,8.71.38,16.91,1,25,1.79l12.19,1.2,12.39,1.05c2.74.23,5.65-.32,8.66-.14s6.06.23,9.12.61c.62,1.33,1.39-.55,2.58-.54s2.63.87,4,1c2.7.17,5.44-.37,7.06,1.06,3.33-1.47,8.39-.21,11.77-1.58,1,.35-.93,2,1.45,1.5.7-1,2.24-.6,3.58-.54,1.13,1.66,3.72,1.33,5.58.27,8,1.33,16.25.73,24.35.89l16.85.23,4.41.05h4.46l9,0c12,0,24.09.39,34.79.93a63.86,63.86,0,0,0,7.11,0c6.81-.39,13.58-.76,20.34-1s13.49-.62,20.26-.66c1.46,0,2.68,0,4.06-.05l12.67-.89c1-.09,1.69.7,2.55.65,6.27-.4,12.69-.47,18.75-1.2,2.73-.33,5.27-1.35,8.07-1.64.09,0,.78.8,1.54.68,7.85-1.24,15.41-1.85,22.74-2.91,21.58-3.11,45.66-2.7,63.75-4.24,1.63-.15,3,.55,4.59.46,2.9-.16,5.56-1.11,8.57-1.19a66.05,66.05,0,0,1,6.62.35c.81.07,1.82-.83,2-.83,4.5,0,9,0,13.2,0,1,0,3.45-1.49,4.14,1.17-6.93-.2-13.57,1.43-19.16,2.54-4.24.83-11.34.76-15.7.87-1.27,0-2.64.84-4,.94-6.08.45-12.25.41-17.74.87-2.37.19-5.21,0-7,1.76-8.88-.25-19.14,1.44-28.82,3.39-1.43.29-4.38.36-5.56.92-.17.08-.7,1.43-1,1.47-1.1.19-2.37-.63-3.58-.58-4,.15-6.88.41-10.16.37-2.42,0-4.95,1.13-7.13-.47-3.07.6-7,1.8-11.11,2.44-1.3.2-3.87.81-4,.82-.48,0-.66-.75-1-.69-1.92.31-3.59,1.32-5.56,1.58-4.29.55-10.09-.22-14.95,0s-8.79,1.48-9.37,6.19c-.49,4,.88,7,2.7,8.56.53.46,2.22.13,3.59.67a5.47,5.47,0,0,1,3.11,2.11c8-.8,16.59-3.27,25.46-4.23.9-.1,2-.77,3-.8s2,.75,3.09.64c2.17-.23,4.42-1.41,6.59-1.6.79-.08,2.19.6,3.08.6,1.28,0,2.3-.77,3.55-.85,1.08-.07,2.11.65,3.08.6,3.51-.17,6.24-1.76,9.21.38,3.3-1.55,7.17-1.87,10.12-2.52,1.78-.39,1.65.08,3.06-.11,4.92-.66,9.83-2.37,14.68-2.78,1.9-.16,3.76.65,5.63.46,1.48-.16,3-1.29,4.52-1.65a94.87,94.87,0,0,1,18.51-1.95,154.09,154.09,0,0,0,18.55-1.38c2.5-.4,5-1.47,7.55-1.85,0,0,.85.73,1.56.63,1.71-.25,4.46-.79,6.57-1.08,8-1.12,16-2.46,24-3.62s16-2.2,24-3c7.34-.72,15.7-1.68,22.32-1.55,4.78.1,12.81-1.29,17.85.15.49.14.57-.77,1-.79,7.72-.26,16.06-1,20.33-.8,6.2.32,13.41-.85,20.83-.89,8,0,15.56,1.28,24.49.23,3.36-.4,5.24-.42,7.09-.57,3.57-.3,7.39-1.31,11.09-1.62,1.42-.12,2.79.48,4.11.38,11.63-.84,23.36-1.61,34.94-2.88s22.91-2.77,33.79-4.25c1.29-.18,2.43.62,3.6.42s2.06-1.45,3.42-1.72c.72-.15,1.14.62,1.58.59a54.2,54.2,0,0,0,9-2.19c.47-.22.69.68,1.07.63.71-.09,1-.76,1.46-.84,1-.18,1.18.67,2.08.55,2.42-.34,4.62-1.52,7-2,.72-.15,1.14.62,1.58.59.63-.05.67-.71,1.46-.84,2.55-.41,4.82-1.12,7.53-1.34,1.21-.1,2.8.53,4.11.38,2.73-.32,5.23-1.6,8-2.09,4.78-.86,10.25-1.57,16.13-2,3.28-.27,6.52.23,8.66,0,1.11-.11,2.35-1.59,3.43-1.71,1.31-.15,2.83.46,4.11.38.66,0,.61-.93,1.46-.83.25,0,1.14,1.32,1.63,1.3,1.32,0,2.71-.83,4-1,5.06-.84,10-3.06,15-4.06,2.71-.54,5.27-.77,8-1.34a6.14,6.14,0,0,0,1.46-.83c.91-.23,1.62.62,2.08.56.8-.11,3.3-.25,3.54-.28,10.13-1.11,19.76-2.58,30-.83-3.29,1.66-6.71,1.7-10,2.17a196.43,196.43,0,0,0-21,4.49c-1.57.41-3.41.59-5,1.11s-2.84,2-4.38,2.5c-.62.18-1.72.45-2.68.67l-1.81.4c-.16,0-.76-.78-1.57-.59s-1.68,1.44-2.42,1.62c-.5.13-.65-.63-1.07-.64-.6,0-.7.72-1.46.83-4.09.59-8.56-.42-12.59,1.73-6.55-2.81-14.23-.31-22.31,1.09-2.18.38-4.78,1.13-7,1.29-.91.07-1.67-1.2-2.65-1.22s-2.45.92-3.48,1c-4.16.35-8.28,1.16-12.59,1.76-7.46,1-13.24.92-19.17,2.31-5.71,1.33-11.11,2.78-16.52,3.54-.84.12-1.71-.69-2.59-.5-1.06.22-1.52.81-2.47.93-1.81.22-4-.47-5.63-.25-1,.13-1,1.31-1.9,1.6s-1.77-.61-2.59-.5a8.93,8.93,0,0,1-2,.17c-4.76-.25-6.95,2.92-10.39,3.74s-7.33.61-11.14.93c-5.06.42-11,1.42-14.24.46-5.17-1.54-10.14,1.06-15.14,2-3.34.59-7.15.11-9.18,0-1.06,0-2,.89-3,1-1.94.14-3.66.2-5.57.45s-4.05,1.16-6.08.5c-2.11.28-2.85,2.19-4.9,2.54-2.34-1.37-5.2,1-7,1.27-.77.1-1.71-.63-2.59-.52-2.85.37-6,1.71-8,2.07-.75.13-1.79-.63-2.59-.51-7.47,1.06-15.47,2.67-23.23,3.22-5.71.41-11.09.28-16.25,1.21-.07,0-.83-.77-1.58-.6-1.63.37-3.82,1.53-5.48,1.85-2.33.45-4.67-.45-6.55,1.2-2.79.35-5.43-.65-7.68-.19-1,.2-1.43,1-2.49.89s-1.92-.92-3.15-1.22a9.64,9.64,0,0,0-6.1.42c-6.65,2.39-18.62,0-26,1-1,.15-1.6.1-2.54.16-2.22.15-4.51,1-6.57,1.13-4.64.22-9.11-1-13.32-.59-2.5.26-5.18,1.62-7.55,1.9a51.67,51.67,0,0,1-10.23-.15c-1,.91-2.8.93-3.44,2.34-1.2.26-1.36-1.38-2.63-1.29a14,14,0,0,1-.94,1.49,6.19,6.19,0,0,1-2,.11c-2.92.24-6.26-.62-8.66.48a40,40,0,0,1-8.5,2.66c-3,.59-6,1-9,1.33-6.08.72-12.14,1.37-17.4,3.46-3,.47-6.9.88-10.8,1.64s-7.75,1.77-10.51,3.57c-5.3-1.49-10.79,1-16.34,2-3.15.56-6.42.37-9.72,1.08a25.71,25.71,0,0,0-2.52,1.52c-.26,0-.3-.87-1.05-.69-1.58.38-2.93,1.31-4.58,1.55a43.9,43.9,0,0,1-7.19.19c-2.81-.07-5.57-.79-8.24-.5-5.4.59-10.5,5.22-15.87,3.28-2,1.63-3.8,1.15-5.66.09-3.82,2.57-8,2.31-11.8,3-2.14.4-4,1.26-6.17,1.52s-2.7-.71-4.13.05c-1.74.93-8.25.62-9.79.85a10.51,10.51,0,0,0-2.06.74c-.37.1-.61-.71-.52-.72-3.26.39-8.73,1.23-9.81,2.15-1.57,1.34-3.75.08-5.17,0-6.36-.38-10.2.87-15,2.86a2.65,2.65,0,0,1-2.58-.72c-1.29-.94-1.64,2.83-2.07.72-2.3,1.05-3,0-5.7,0-.13,1.44-.91,1.61-1.65,1.41a4,4,0,0,1-1-.44c-.27-.16-.46-.3-.46-.3-.74-.18-1.14.73-1.56.69-2.21-.2-4.23-1.75-6.2-1.53-1.6.18-2.84,1.24-4.18,2.09-3.86,1.44-9.6,1.92-15.1,2.63C258.45,207.88,260.93,206.75,262,207.11ZM677,126.44l-30.18,1c-10.46.37-21.11.69-31.27.89,19.77-3.3,40.11-3.77,58.29-3.1C674.59,125.28,676.83,123.85,677,126.44ZM527.69,137.26c-1.85-1.73,2.5-1.89,0,0ZM504.86,120l-1,.06-.08-1.43,1-.06ZM1152.3,32.08l-1,0,0-1.43,1,0Z"/><path class="cls-1" d="M-53.22,165.44c-.2-2.48,3.16-2.44,3.36-.85,1.26-1.57,3-.49,4.51-1.38.85-.49,2.67-.23,4.37-.67.89-.23,1.65-1,2.31-1,3.37-.19,7.22.93,11,.51a24.66,24.66,0,0,1,3.2-.16,14.49,14.49,0,0,0,3.07.55,83.39,83.39,0,0,1,8.44,0c5,.52,9.91,2,14.79,3,.82.17,1.82-.46,2.68-.31,2.51.44,6.28,2.06,10.17,2.29.78.05,2-1.18,2.57.39,7.78-4.06,20.86-3.07,30.07-1.69,2.47-1.34,7.39-1.69,11.64-1.38,1,.07,2.53-.5,3.16-.31s.69,3.95,1.45.91c3.74-.82,7.7.62,11.89.57,2.7,0,5.73-1.34,8.44-1.25,1.49,0,3,1.06,4.54,1.21,2,.2,3.95-.65,6.3-.77a10.77,10.77,0,0,0,2.56.28,32.56,32.56,0,0,1,7.76.06c1.45.16,2.8,1,4,1.07s2.92-1,4.23-1.07c1.66-.05,3,.43,4.61.4,4.29-.07,8.5-.75,14-.23a69.7,69.7,0,0,0,9.22.79c4-.17,7.83.55,11.79.79,1.75.11,4.2-2,5.64.38,5.44-.92,11.12-.36,17-.3,2,0,4-.32,6.19-.37.42,0,.75.89,1.5.79,4.11-.56,11.42-1.1,16-2.09,3.95-.85,7.53-1.47,11.23,1.26a28.51,28.51,0,0,1,7.12-.71c2.47,0,4.88,0,6.76-.19,1.51-.17,2.62-.82,4.09.13,1.73-.67,3.56-1.18,5.18-2,7.53,1.4,15,.88,22.51,0,3.29-.43,7-1.44,10.24-1.28,2.19.11,4.4,1.27,6.62,1.53,4.29.51,8.73-.24,13.29-.52a88,88,0,0,1,9.2-.62c1.19.05,2.92,1.83,4.59.72.16-.1.41-1.39.52-1.43,2.11-.8,5.75-.43,8.17-.71,3.51-.41,6.79-1.3,10.2-1.43,3-.12,5.76,1.25,9.69,0,.91-.29,1.92-1.28,3-1.45,1.5-.22,3.19,1.58,4.58-.06,2.3,2.26,6.69,1.51,8.21,4.9.81,4.84-.95,6.88.12,10-2.24,1.75-5.2,2.85-7.67.82a12.83,12.83,0,0,1-6.57,1.18c-2.24-.11-4.51-.47-6.75-.38-5.31.2-9.7,1-15.9,1.43-.78.05-.94.77-1.54.72-.43,0-.5-.76-1-.72-5.38.47-13,1.88-20,2a52.13,52.13,0,0,1-6.17-.09c-1.54-.14-3.57-.81-5.13-.79-6.09.08-13,.27-19,.43-.42,0-.49-.81-1-.73s-1,.73-2.59.63a35.34,35.34,0,0,0-7.71-.24c-.56.06-1.11.7-2.08.65a2.38,2.38,0,0,1-1-.39,4.25,4.25,0,0,1-.51-.37c-1.46.07-2.85,1.31-4.16,1.3s-2.68-.92-4.09-.84c-1.9.1-3.78,1.16-5.71,1.25s-4.09-.83-6.15-.91a12.61,12.61,0,0,0-2.06-.06c.11,0-.29,1.18-.54.7-.57-1-8.67-.57-12.39.14-.79.15-1.66,1.17-2.64,1.31a29,29,0,0,1-3.61-.17c-.11,0-.56.8-1.06.66-1.19-.32-4.39.28-6.74.39-4.3.2-8.67,0-12.93.09a56.86,56.86,0,0,1-5.67-.38c-1.44-.15-3.1-1-4.6-1-2.53-.12-5.22,1-7.83.91s-5.39-1.18-8.21-1.27c-4.65-.17-9.45.65-14,.46-.19,0-1.16-.95-2-.89s-1,.64-1.61.58c-2.66-.27-5.42-1.89-8.14-2.14-3.68-.34-7.36-.2-11.35-1-1.13-.23-2.85,1-3.54-1-4.4,1.33-8.72,1.3-14.13.83-2.54-.2-11,.49-15.11-.19a28.89,28.89,0,0,0-3.1-.33c-3.55-.19-7.11,1.43-9.8-1.06a12.72,12.72,0,0,1-5.93,1c-2.29-.16-4.49-.85-5.42-2.33-5.45,2-11.59-.91-17.47,1.34a71.44,71.44,0,0,0-9-.76,63.25,63.25,0,0,1-10.7-1.18c-5.08-1.07-9.8-3.67-14.65-.8-2.54-.19-3,.23-6.3-.24-2,.51-4.1,2.27-5.9.54-3.55,1.73-7.61-.56-12.62-.6-1.44,0-3.26.76-4.88.58s-3.29-1.31-5-1.63c-1.44-.26-3,.25-4.25,0-3.87-.9-6.52-3.9-9.42-1C-44.86,167.19-50.27,167.48-53.22,165.44Z"/><path class="cls-1" d="M6.7,77.09c1.11.39.51,2.6,2.09,2.49,1.19.28,2.33.47,3-.26,1.27,2.31,3.59,1.16,4.76,1.45,2.44.6,5.36,1.24,7.68,1.91a37.16,37.16,0,0,0,4.87.75c1.63.29,3.2,1.84,4.67,2.16,1.65.38,3.35-.2,5,0,4.5.58,11,2.43,17.53,3a.36.36,0,0,0,.09-.71c-1.45-.42-3.91.29-3.73-1.93,1.54-.63,3.24,1.24,4.31,1.28.84,0,1.88-1.39,2-.46,1.38.32,2.66.44,2.71-1.81-1.86.84-2.76-1.57-4.21-2-1-.29-2.68.62-4,.2-1.88-.6-4.21.05-5.18-2.12,1.07-.29,3.09,1.29,3.51-.27C49,79,42.75,79,39.29,78.43c-2.63-.44-3.95-1.48-4.47.07-3.11-3.63-10-2.1-13.26-4.21-.77-.05-.65,1.74-1.67,1.19-1.21.1.76-3.18-1.13-2.35-5.21.24-11.4-3-17.07-1.9-1.6-1.45-4.09-4.12-6.14-1.83.86.47,3.06-.44,2.17,1.84-3.17-.86-7-.86-10.73-1.19-.16,4.4,6.09,2.28,8.81,3.75.88.65.74,2.35,1.46,3.17C.24,76,3.95,79.95,6.7,77.09Zm40,5.2-1-.13.19-1.42,1,.13Zm-38-8.51c.4-1.13,3.85-.6,3.88.6C12,77.57,9.27,74.42,8.73,73.78Z"/><path class="cls-1" d="M999.26,79.89c-.1,1-1.15.64-1.85.79C997.46,79,998.58,79,999.26,79.89Z"/><path class="cls-1" d="M996.31,87.88l1.43-.05.1,2.15c-.56-.09-.84.19-.92.75C996.27,90.53,996.44,88.94,996.31,87.88Z"/><path class="cls-1" d="M899.38,200c-.19,1-1.32.56-2.09.66C897.48,199,898.72,199.05,899.38,200Z"/><path class="cls-1" d="M914.94,203.91c-.65-1-3.1-1.3-3.15.66,1,1.29,3.45.58,5.22.81,1,0,.63,2,2.07,1.47-.06-1.55,1.86-.29,2.63-.67a15,15,0,0,0,9.42,1.57c2.21-.33,5-1.3,5.82-2.84-1.66-.81-1.19-.07-3.16,0-2.6-5.08-9.5-2.83-13.06-3-3-.17-6.43-2.11-9.4-.16C912.17,202.91,915.15,201.31,914.94,203.91Zm16.75.26c-.14,2.23-2.64,1.2-4.21,1.39C927.89,203.71,930.45,202.68,931.69,204.17Z"/><path class="cls-1" d="M994.13,81.51c-4.32-.4-6,2.93-10.33,2.54-1.06-.36-.63,1.39-1.38,1.48a48.67,48.67,0,0,1-17.68,1.82c-1.45,1-3.24,1.4-4.78,2.22-.95.8-1.95-.71-2.9-.67s-1.89,1.37-2.88,1.48-2.06-.87-2.92-.72c-2.35.4-4.89,1.94-7.31,2.13-1.39.11-3-.74-4.38-.73-1.61,0-3.09,1.14-4.89,1.42-3.51.57-6.9.59-10.33,1.31-2.86.6-5.29,1.18-8.42,2-2.06.54-5.11.06-8.41.57-1.07.16-1.77,1-3,1.35-4.6,1.29-9.9-1.07-14.05,2.46-2.39.22-4.75.41-7.11.56s-4.75.21-7.12.22a89.44,89.44,0,0,1-14.43-1c-1.34.72-2.53,1.65-4.6,1.26-1.85,1-.21-2.44-1.44-2.21-1.83-.79-5,.16-5-3.07,1.83-1.74,5.84-.13,6.74-3.31,7.63-1.42,14.92-.91,22.21-1.34,2.82-.16,5.38-1.29,8.06-1.89,1.44-.32,3.05-.23,4.5-.59,1.26-.31,2.34-1.18,3.52-1.33s1.24.68,2,.77c1.81.22,6.63-.88,8-1.2,3.43-.83,6-1.61,9.9-2.67,2.11-.58,4.32-1.66,6.41-2s4.1.22,6.37.11c5.52-.27,11.38-1.38,18-2.06.91-.1,1.85-.65,2.9-.71.82,0,2.08.83,2.9.72,1.44-.17,2.9-1.3,4.31-1.47,3.25-.37,6.77-.62,10-.88.68-.05,1.69.76,2.4.68,1.19-.14,4.56-1.33,6.65-1.54.84-.07,1.5.74,2.39.65,1.55-.14,2.65-.85,4.71-.18a4.9,4.9,0,0,0,1.41-.05c.36.07.46-.93.92-.75.24.1,1.23,2.13,2.43,2.06C990.87,79.36,993.54,77.19,994.13,81.51Z"/><path class="cls-1" d="M766.85,95.58a11.24,11.24,0,0,0-5.7-.9c-1,.17-1.72-.7-2.08-.76-4.5-.76-11.11-1-14.7-.32a42.6,42.6,0,0,1-8.59.52c-2.9,0-5.84-.16-8.82-.07a88.38,88.38,0,0,0-9,.64c-1,.15-1.61-.74-2.11-.74-2.34,0-5.28.4-8,.69-3.16.31-6.26.3-8,.78-.46.13-.51-.71-.54-.71-3.16-.17-4.15,1.26-6.38,1.49a2.88,2.88,0,0,0-.55-.35,2.57,2.57,0,0,0-1.06-.35c-1,0-1.6.7-2.12.74-3.47.19-6.86-.32-10.13.19-2.63.4-5.39,2-7.94,2.36-1.62.23-2.18-.66-2.69-.64-.34,0-.59.73-.51.73l-13.82.5c-.8,0-1.05.64-1.56.79a38.09,38.09,0,0,1-7.92,1.06c-3.15.26-7.39,1.43-11,2-1.07.16-2.1,0-3.16.19-4.57.76-10.38,1.26-16.31,1.9s-12,1.41-17.14,2.48-10.35,2.34-15.4,3.51-10,2.29-14.95,3.34c-5.67,1.18-10.58,2.71-15.32,3.59-6.46,1.2-13,1.22-19.51,2.67-2.09.47-4,1.49-6,2.05A117.53,117.53,0,0,1,508.09,127c-9.06,1.23-18.19,2.24-27.59,3.08-17.42,1.59-35.09,4.32-52.88,5.35-12.79.76-25.93,1.49-37.93,3.52-5.71.95-12.24,1.68-19,2.43s-13.81,1.41-20.57,2.37c-8.76,1.17-17.46,1.66-26,3.07-2.9.47-5.55,1.68-8.39,2.11-6,.91-12.1,1.41-18.14,1.86s-12,.74-17.88,1.49c-3.76.47-7.61,1.7-11.45,2.18s-7.73-.31-11.59-.1c-4.08.22-8,1.05-12,1.35-5.56.46-11.64,1.37-15.51,2.1-3.34.61-6,.27-8.55.34a56,56,0,0,0-7.81.92c-2.6.43-5.19.86-7.74,1-1.58.11-3.06-.81-4.55-.6s-2.89,1.33-4.49,1.55c0,0-.33-.19-.73-.38a2.53,2.53,0,0,0-1.3-.29c-4.26.65-8.61.37-12.57,1-1.84.3-3.17.63-5,.78s-4.25,0-4.53.06c-1.9.2-3.33,1.32-5,1.5-1,.1-1.49-.65-2-.69-.77-.06-1.77.7-2.51.75-2.69.16-5.56.21-8.46.3a86.22,86.22,0,0,0-8.68.52c-1.39.17-2.65,1.18-4,1.43-1.73.31-3.36-.22-5,0-3.17.41-6.05,1.05-9.09,1.43-6.2.74-12.12,1.43-18.21,1.93-11.93,1-23.75,1.42-35.48,2.8-2.55.57-5.11,1.07-7.67,1.47s-5.11.7-7.67,1c-5.11.56-10.2,1-15.24,1.42-1.46.13-2.66-.34-4.06-.16-1,.12-2,1.15-3.11,1.29-2.67.35-5.47-.13-8.15.28a67.1,67.1,0,0,0-7.22,1.76c-1.13.31-2.54.18-3.59.52-.18.06-.83,1.28-1.1,1.38-.79.29-1.74-.33-2.54-.14a132.23,132.23,0,0,1-14.49,2.47c-4.93.6-9.92,1-14.86,1.37s-9.95.78-14.79,1.26-9.58,1-14.11,1.52a37.7,37.7,0,0,1-7.17,1.49c-2.47.29-5,.48-7.42.82-1.72.24-3.59.89-5.23.95-2.59.08-5.47-.77-8.16-.77s-5.23.73-7.8.71c-8.33-.16-16.67-1.72-24.68-3q-3-.48-5.95-.88c-2-.28-3.89-.53-5.8-.7a55,55,0,0,0-11.05,0c-2.31.25-1.8-2.55-3.21-3.27-1.56,1.92-3.47-1.36-4.67.15-2,1-3,3.73-4.8,5.19.66,2.49-1,3.93.39,5.1-.8,3.11.14,4.35-.39,7.16,3.1,1,3.7,4.61,7.17,5.2,2.34-3.89,3.66,0,5.14.62.95.42,1.89.16,3.08.37,4.25.76,8.69-.34,13,.13A115.1,115.1,0,0,1-100,209c.75.16,1.51,1.55,2.42,1.7s2.11-.62,3.16-.38c2.25.5,4.39,1.78,6.55,2.14.74.13,1.16-.57,1.62-.54.71,0,1.07.86,1.47.88,2.93.1,5.46,0,7.29,0,5.54-.15,12.79-.84,17.79-1.21.92-.07,1.56.92,2,.91,1.08,0,2.24-1,3.22-1.14,1.54-.18,3.12.38,4.64.38a98.38,98.38,0,0,0,15.11-.94c2.53-.39,4.86-1.31,7.37-1.56,1-.1,1.64.84,2.52.92a20.06,20.06,0,0,0,2.63-.53c1.86-.14,2-.91,3.14-.51.78.27,1.31-.57,1.6-.61,3.56-.46,6.27-.38,8.38-1.59,2.51-1.45,6.13-1.47,9.39-1.52a29.16,29.16,0,0,1,4.24-1.87c.82-.2,1.73.28,2.56.16,1-.13,1.33-1.16,2.14-1.32,1.64-.33,3.46-.12,5.17-.44s3.5-1,5.21-1.15a26.83,26.83,0,0,1,7.18.39c.67.1,1.78-.62,2.6-.58,1.7.08,3.19.95,5.09,1s3.48-.64,5.16-.49c3.28.27,6.41,2,9.71,1.11,2,2.06,4.72.81,7.15,1s4.94.8,7.16,1c1.93.2,4,.72,6.14.9,2.57.22,5.79-.72,8.18,1.65,1.19-1.47,2.36.68,3.64-1.33a29.26,29.26,0,0,0,7.69.93c.2,0,.68-1.11,1.56-.68.34.17.37,1.4,1,1.46,0,0,.18-.34.4-.68s.5-.69.66-.72c.87-.16,1.32.7,1.51,1.47-2.89.87-5.77,1.24-8.79,1.91-.86.19-1.24,1.31-1.58,1.39-.65.15-1-1-2-.77-1.58.36-3.08,1-4.67,1.3-12.48,2.64-25.63,4.1-37.42,6.54-3.14.66-6.27,1.13-9.4,1.71-1.38.26-2.94,1-4.21,1.21-2,.27-3.72-.63-5.69-.31-.91.15-1.75,1-2.66,1.29a29.59,29.59,0,0,1-3.14.55,71.68,71.68,0,0,1-9,1.14c-3.33.24-6.9.37-10.37.57-.84.77-.81.08-1.55-.1a7.18,7.18,0,0,0-2.07-.14c-5.84-.16-10.64-.17-17.14-.44-7.79-.41-15.86-1.25-23.35-1.16-7,.13-14.37,1.1-21.48.94-1,0-1.07-.82-2-.91s-1.86.45-2.65.47c-3.41.09-6.81,0-10.15-.18s-6.61-.61-9.8-1.06c-6.37-.9-12.37-2.14-17.73-3.4a39.07,39.07,0,0,1-5.08-1.31c-.76-.28-1-1.24-1.9-1.67s-2.29,0-3.09-.37c-3-1.43-5.54-4.46-8.85-4.68-.52,1.94-2.24,1.75-3.44,2.47-.49.14-2.06,2.44-.87,2.78-.62,1.2-1.5,1.93-2,3.37-1.91,2.28-.16,5.89-1.15,9.24-1.9,3.09-1.8,6-2.19,9.11-.36,2.87-.87,2.91-.62,5a3.12,3.12,0,0,1-.18,1.42c.42,2.67,1.75,4.13,3,6.13s2.24,4.55,4.11,5.55c5.15-.66,10.36,1.08,14.1,2.42,1.09.4,2.6.73,3.6,1.13,2.45,1,3.65,2.78,6.08,2.82a5.19,5.19,0,0,0,2.71-.43c.21-.1.42-1.25.68-1.37a17.84,17.84,0,0,1,4.36-1c6.08-1.15,11.71,1.71,17.57-.31,1.55,2.51,5.55,2.29,8.15,3.64,2.06.39,1.9-2.9,4-2.5,1.74-.4,3.58-.65,4.93-1.7,3.21.82,6.67.65,10.17.43A45.76,45.76,0,0,1-48,257.84c3.11.49,7.68,0,11,.89,3.1.85,5.69,3.46,8.73,3.57,1.75,0,3.54-2.14,4.37-1.86,1.43.49,3.7-.94,5.37-1.07.78-.06,1.75.91,2.58.89,2.91-.07,6.25-.13,9.52-.08s6.45-.36,9.56-.43A17.84,17.84,0,0,1,12,261.29c3.8,1.92,6.62-1.13,10.12-1.61,2.19-.3,4.84-.19,7.4-.32,5.45-.27,10.07.43,14.74.64,2.42.1,4.69-.76,6.87-.44,2.45.36,4.91,2,7.29,2.45,1.06.19,2.57.91,3.66.86s2.13-1.31,3.21-1.33c1.33,0,2.31.85,3.67.81s2.8-.6,4.24-.6c2.36,0,4.88.95,7.36.91,1.27,0,2.24-1.26,3.2-1.35,1.38-.12,2.87.65,4.2.83,2.4.31,4.86,1.21,7.35,1.61,1.37.22,2.92-.14,4.22.06s2.49,1.4,3.67,1.48,2.79-.59,4.23-.66,3.36.16,4.75.06c3.1-.21,6.11-1.17,9-1.31,1.25-.07,2.44.71,3.68.76,1.44.06,2.86-.69,4.22-.71,3.14-.05,6.18.54,9,0,2.17-.42,4.53-2.59,5.79-2.86a2.38,2.38,0,0,1,1.32.3,8.67,8.67,0,0,1,.79.42c3.39-.85,5.91-2.46,8.93-2.87.52-.07.93.7,1.06.7.54,0,.61-.7,1-.73,2.59-.15,4.51.1,5.26-.07,1.09-.24,2-.58,3.15-.75,6.22-1,12.5-1.76,18.74-2.34s12.44-1.09,18.51-1.25c3.88-.1,8.4-.4,12.7-.7s8.39-.69,11.41-.81c.15,0,.77.78,1.6.65,1.62-.24,1.67-1.41,2-1.51.84-.24,2.24.7,3.18.59,1.23-.15,2.35-.74,3.12-.84s.75.75,1.6.65,1.46-.63,2.59-.82c2.62-.42,5.34-1.69,8.32-1.82a16.28,16.28,0,0,1,6.36,1.1c1.76-.77,3.13-2.41,5.2-1,1.59-1,3.39-2.09,5.2-1,4,.56,8.41-1.09,12.52-1.43,6-.45,12.1-.43,18.31-1.22,8.24-1,19.9-3.16,25.56-2.65.53,0,.57-.71,1-.8a58.66,58.66,0,0,1,12.36-1.13c3.9,0,7.52.09,10.65-.12.14,0,1.29-.3,2.41-.58L351,240c.11,0,.54.61,1.11.62,3.81,0,6-1.06,8.7-2.26.65,2,.85.72,2.14.51a387.6,387.6,0,0,1,44.3-5.34c10.79-.63,21.45-2.27,33.84-3.09,2.55-.17,4.44-1.3,6-1.41,1.81-.12,4,1,5.75.78,2.21-.28,4.3-1.83,6.44-2.19s4.43,0,6.68,0c2.46-.08,5.26.08,7.68-.16,2.25-.23,4.27-1.27,6.49-1.47,10.11-.89,20.22-.13,30.41-2,.53,2.26,2.16.45,3.1.37,4-.32,8.52-.51,12.6-.64,1.86-3,4.86-1.81,7.37-2.23,20.35-3.35,45.36-4.71,63.66-6,1.87-.15,4.66-1.11,5.88-1.19,1.94-.15,3,1.29,4.55,1.11,2.41-.28,4.83-2.17,7,.21,2.68-1.16,5.36-1,7.86-.95s4.81.08,6.81-1.46c4.81,1.76,9.69-.53,14.73-.87,2.39-.13,5,.59,7.37.39,6-.47,14.24-2.14,18-2.16,1,0,2.68,1.09,3.92.61.62-.24.82-1.4,1.42-1.47a3.49,3.49,0,0,0,1.48.68c.79,0,1.73-.76,1.93-.77,1.51-.07,2.67.69,3.92.61,2.52-.16,4.8-1.3,7.29-1.58,2.82-.34,5.66-.44,8.31-.78,5.66-.71,10.48-1.66,15.2-2.23,3.32-.41,7.67.07,9.39.08.19,0,.31-.18.39-.36a2.14,2.14,0,0,0,.11-.36,118.11,118.11,0,0,1,14.39-1.27c.05,0,.79.76,1.48.75.94,0,1.12-.59,2-.67a46.13,46.13,0,0,1,8,.17c1.26.07,2.81-1.42,3.47.79,1.48.07,2.58-2.05,3.51-.64,5.68-.5,12-.15,18.34.08s12.67.43,18.42-.3a11.22,11.22,0,0,0,2.55-.62c2.44-.84,4.7.11,7.08.27,3.27.22,6,0,8.63.34,1,.13,2,.8,3,.84,1.83.06,5.43-1.09,6.17-1.18.52-.07.58.77,1,.76,1.06,0,2.08.14,3.06.13.78,0,3.35.15,3.56.15,5.45,0,11.15-.19,16.93,0,8,.23,17.2.36,24.2.92,2.56.2,5.79,1.2,8.24,1,2-.15,3.91-1.72,5.77-2,1.41-.18,2.87.8,4.14.83,1,0,1.18-.58,2.1-.65s1.27.71,2.08.06a23.33,23.33,0,0,1,9.89-.43c.19-2.78-2.41-1.89-3.58-2.25-.72-.22-1.34-1.44-1.52-1.47-1-.17-1.17,2.48-2.12,1.37.25-2.17-1.65-1.53-2.53-2.22-2.29-1.12-1.66,2.05-3.68,1.33-6-3.08-12.55-3.12-19-3.5,0,0-.08.74-.54.7-6.31-.66-14.4-1.31-21.06-1.51-6.3-.18-12.73-.6-18.94-.77-1.59,0-2.92-.25-4.59-.19-5.36.21-10.49-.83-15.79-.65-1.72.06-3.52.35-5.1.52a18.89,18.89,0,0,1-4.05-.15c-1.71-.16-3.22-.78-5-.91-.76-.06-1.78.72-2.56.62-1.2-.16-1.49-.85-2.51-.81-3.11.13-6.1,1.41-9.15,1.1-2.15-.22-4.33-1.32-6.5-1.64-1-.14-1.43.65-2.54.64-.82,0-1.72-.82-2.5-.8-1.84,0-3.76.49-5.56.54-3.43.07-7.22.76-10.56.44-1.94-.18-4-1.47-6-1.56-4.47-.21-9.25,3.37-13.52-.27-3.69.55-6.71.24-10,.63-3.77.46-8,1.12-12.16,1.78s-8.18,1.4-11.64,1.8c-3,.34-4.63,1.23-6.4,1.49-2.45.37-5.09-.43-7.39.1,0,0-.37,1.37-.46,1.44-1.37,1.05-4.3.71-5.39.86-3.53.5-6.92-.69-9.36-.47-.88.08-2,1.31-2.9,1.51-1.44.32-2.72,0-3.94.16-6.33,1.11-13.69,2.29-20.69.94a11.27,11.27,0,0,0-3.5-.51,20.4,20.4,0,0,0-6.79,2.55c-.44.28-1-.67-1-.65-2.21.34-4.66.67-7.06.94s-4.75.54-6.74.67c-1.38.09-3.05-.46-4.51-.39s-2.57.18-4,.29a48.78,48.78,0,0,1-5.45.39c-2-.11-4.14-1.1-6.07-.95s-3.65,1.55-5.35,1.89c-.76.15-1.26-.54-1.55-.59-.84-.12-1.74.88-1.93.88-2.15.06-7.65-.07-9.51.08-.17,0-1,1-1.93.9-2.29-.15-4.78-1.38-7.18-1.49-3.46-.15-7.35.15-9.55.18-.92,0-2,.95-2.93,1-2.07.11-4.06-.19-6.08-.1-.92,0-2.11,1-2.93,1-1,0-1.63-1.18-2.65-1.17-8.06.1-17.25,2.26-22.66,1.66a8.46,8.46,0,0,0-2.51.27c-6.46,0-13,.16-19.58.33s-13.13.36-19.66.46c-4,.06-8.14-1.17-11.89-.8-2.09.21-5.31,1.9-6.44,2.18-.91.23-1.74-.54-2.62-.42-10.06,1.42-19.44,2.61-28.91,4-6.55,1-12.95.71-19.48,1.47l-21.67,2.39c-3.68.42-7.35.87-10.93,1.35s-7.1,1-10.44,1.53a68.82,68.82,0,0,1-7.21.72c-1.18.07-2.51.19-3.61.36-7.43,1.12-14.92,2-22.43,2.74s-15.06,1.25-22.58,1.85c-7.94.68-16,1.82-23.84,2.41-5.35.39-10.6.75-15.78,1l-15.37.76c-5.07.26-10.1.6-15.12.92s-10,.7-15.06,1.21c-1.91.2-3.72.93-5.7.94-1.73,0-3.86-1.29-5.77-1.2-.7,0-1.63.59-2.58.8a54.75,54.75,0,0,1-8.83.95c-4.29.31-8.56.19-13,.34-2.47.08-7.15,1.36-9.35,1.65-.64.09-.75-.75-1.58-.7-2.65.16-7.39,1.32-9.88,1.56-.65.06-.73-.76-1.57-.7-6.85.48-15.21,1.69-21.37,2.33-1.27.14-1.92-.82-3.13-.71-2,.17-3.68,1.17-5.74,1.43-.58.07-.83-.67-1-.72-.77-.17-1.1.69-1.57.72-6.18.3-10.94,2.1-16.2,2.08a54,54,0,0,1-7.31-.81c-2.48-.36-4.81-1.23-7.29-1.53-4.07-.51-8.72-.61-13.09-.75s-8.46-.21-11.42-.49c-4.2-.39-9.39.52-14.06-1.09,4.4-2.19,9.41-1.74,14.15-2.48A117.72,117.72,0,0,0,95.92,233c1.08-.33,2.09-1.07,3.15-1.39,4.28-1.31,7.81-1.9,11.47-2.71,2.64-.58,5.21-.77,7.8-1.32,2.88-.62,5.16-1.49,6.75-1.35A201.14,201.14,0,0,1,150,221.93c8.69-.94,17.5-2.85,26.33-3.87.53-.06.62.71,1,.7a5.81,5.81,0,0,1,1.54-.74c3.1-.63,6.6-1.29,9.78-1.62,8.62-.88,17.77-.48,26.79-2.16.92-.18,1.57-1.24,2.53-1.53s2.58,0,3.61-.14a45.78,45.78,0,0,1,11.85-.47c2.92.26,8.44.06,10.34.3.65.07,2.12.59,2.61.58,1.56-.06,5.25-1.47,6.63-1.79.52-.11.65.7,1.07.66,3-.31,6.18-1.28,9.23-1.21,3.92.08,7.38,2.61,10.81-.59,1.15,1.15,2.37,1.12,3.69,1.19.89,0,1.75-.82,2-.85,1-.11,1.18.62,2.11.58,3.07-.14,6.57-.87,9.78-.65,2.67.18,5.29,1.49,7.88,1.63s5.55-.57,8.24-.61c3.4-.06,5.83.86,7.84.81,1,0,2.59-.87,3.55-1,5.91-.8,11.14,1.23,15.64.88,1.26-.1,2.21-1.07,3.54-1,0,0,.82,1.24,1.16,1.34,1.95.55,2.11-1,3.54-1,.73,0,1,.57,2.12.53,4.26-.16,8.61-.91,12.41-.44,1.45.19,2.19,1.08,3.73,1.07,1.81,0,3.16-1,5.06-1.23s3.86.29,5.72.15c10.8-.79,21.8-2.57,29.78-2.42a17.85,17.85,0,0,0,3.06-.34,36.82,36.82,0,0,0,7.5-2.27c.76-.33,1.23-.06,2-.23-.11,0,.3.64.59.66.53,0,.53-.76.94-.83.57-.09,1.32-.06,2-.23,1.92-.44,3.27-.28,5.1-.57,14.7-2.29,28.67-6.44,42.88-7.8,3.36-.31,6.9,0,10.21-.45,3.47-.42,6.6-2.15,10-2.59s11.13.16,15.34-.28c2-.21,3.55-1.18,5.48-1.34,7.09-.57,14,.19,20.86-.82,7.55-1.12,14.14-1.77,21.17-2.18,5.15-.31,10.1-.94,15.1-1.46,1.4-.15,6.57.1,7.61,0,2.65-.27,11-2.42,12.94-2.57.26,0,.71.65.56.67,2.52-.43,4.9-1.75,7.42-2.06,2.28-.28,4.62.39,7.09.14,4.73-.48,9.58-.9,14.45-1.53,2.43-.31,4.87-.69,7.29-1.11s4.84-.9,7.23-1.51a71.83,71.83,0,0,1,11.12-.76,62.21,62.21,0,0,0,12.42-1.19c3.75-.88,7.47-3.14,11.51-1.22,2.06-2.42,5-.76,8-.94s6.77-1.62,10-1.7c3.61-.12,6.83.94,10.05.55,1.88-.23,3.57-1.23,5.51-1.48.75-.1,1.26.66,1.51.71.92.15,1.54-.76,2-.73,1.49.08,3,.65,4.53.68s2.65-.83,4-.75c.79,0,2.24,1.46,2.52,1.44s.39-.7,1-.71c3.9,0,8.29-1.24,12.11-1.33,1.43,0,3.1.92,4.53.76,1.05-.12,2-1.15,3-1.41,6-1.45,12.06.77,18.27-1.77,2.51,1.72,5.43.87,8.09.9.36,0,2.72.15,4.06.13,5.74-.08,9.27.47,13.2.42,8-.13,13.36.53,19.85,0a27.43,27.43,0,0,1,4.07.15c4.86,0,10.52.31,13.78-.17,1.36-.21,2.24-.93,3.6-.57,2.35-.09,2.5-.66,4.59.19A14.49,14.49,0,0,1,832.52,169c5.47.55,16.75-.53,24,1,2.52.51,5.1,2.94,7.58,3.14,1.77.14,4-1,5.69-1.23a51,51,0,0,1,6.17-.49c3,0,5.8,1.06,8.69,1,2.29,0,4.72-1.07,7.23-1.23,2.91-.18,6,.36,9.24.26.82-1.29,1.78.73,2.55.79,1.17.09,2.35-.66,3.61-.64,2.59.07,5,.22,7.72.13,5.37-.18,10.88-.45,16.47-.45,4.88,0,9.87,0,14.94,0,2.69,0,5.42.08,8.05-.06a25,25,0,0,0,7.4-1.46c1.6-.1,1.5,2.23,3.63,1.38,4.68-1.67,10-2,15.12-2.24s10-.4,13.68-1.4a31.41,31.41,0,0,1,4.6-.89c.83-.1,1.92.74,2.61.62,1.85-.32,3.28-1.49,5.07-1.7,1.64-.19,3.58.48,5.19.39,1-.06,1.6-.7,2.53-.88,1.13-.22,2.16.63,3.13.52,2-.21,3.63-1.68,5.56-1.78,1.78-.1,3.81,1.22,5.76,1.05s4.07-.88,6.11-1.28c4.81-.95,9-1.72,12.19-2.55,2.11-.56,4-1.6,6-2,1.8-.39,3.7.39,5.7,0s4.47-2,6.38-3,5.66-.83,5-5c.24-2.1-1.75-2.18-2.9-2.53a19.71,19.71,0,0,0-2.61-.39A36.61,36.61,0,0,0,1052,149c-2.09.52-3.88,1.58-5.92,2-8.79,1.72-18.72.82-26.36,2.2-3.24.64-6.42,4.07-9.1,1.29-2.06,2.11-7.25,2.45-11.12,2a15.74,15.74,0,0,1-5.16-1.24,84.7,84.7,0,0,1-18,2c-6.19.08-12.47,0-18.63.37-6,.41-11.89.38-17.61.43s-11.28,0-16.6.15c-17.51.5-33.12-.43-50-1.29-2.76-.14-5.67.49-8.7.4s-6.1,0-9.19-.34c-.65-1.31-1.39.58-2.58.61s-2.66-.8-4.06-.88c-2.72-.15-5.47.41-7.12-1-3.33,1.49-8.44.28-11.83,1.67-1-.34.92-2-1.47-1.49-.7,1-2.25.62-3.6.57-1.14-1.65-3.75-1.3-5.61-.23-8-1.22-16.35-.76-24.5-1-10.73-.3-22.84-.34-35-.61s-24.23-.57-35-1.21a64.6,64.6,0,0,0-7.15-.06c-6.86.28-13.66.76-20.45,1.09q-5.09.25-10.18.4c-3.39.12-6.78.27-10.18.33-1.47,0-2.69,0-4.08.11-4.11.32-10.19.81-12.72,1.12-1,.11-1.71-.67-2.58-.6-6.29.53-12.75.66-18.82,1.58-2.74.42-5.26,1.52-8.06,1.91-.09,0-.81-.77-1.57-.62-3.92.78-7.78,1.31-11.57,1.88s-7.51,1.11-11.17,1.79q-4,.74-8.19,1.32c-2.76.4-5.54.78-8.33,1.11-5.58.67-11.18,1.16-16.68,1.65-11,1-21.57,1.73-30.62,3-1.63.22-3-.41-4.64-.25-2.9.3-5.53,1.36-8.55,1.6-2.31.18-5.59,0-6.67,0-.81,0-1.79.92-2,.93-4.52.23-9.09.45-13.26.72-1,.06-3.4,1.66-4.22-1,7-.14,13.57-2.13,19.13-3.52,4.22-1.06,11.35-1.35,15.73-1.65,1.28-.1,2.61-1,4-1.13,6.09-.72,12.28-1.07,17.78-1.75,2.37-.3,5.24-.2,7-2.09,8.93-.2,19.17-2.18,28.82-4.65,1.43-.37,4.39-.52,5.55-1.13.17-.09.65-1.45.91-1.5,1.1-.23,2.41.54,3.62.46,4-.29,6.91-.66,10.2-.74,2.43-.08,4.94-1.27,7.19.25,3.07-.7,6.94-2,11.11-2.81,1.3-.24,3.88-.94,4.05-1,.48,0,.68.73,1.06.65,1.93-.39,3.58-1.41,5.56-1.7,4.32-.63,10.18,0,15.07-.33s8.83-1.63,9.35-6.37c.44-4-1-7-2.86-8.52-.54-.46-2.25-.1-3.65-.62a5.46,5.46,0,0,1-3.19-2c-4,.48-8.24,1.38-12.54,2.3-2.15.46-4.33.92-6.52,1.34s-4.41.86-6.65,1.17c-.91.13-2,.84-3.05.9s-2-.69-3.14-.53c-2.19.3-4.43,1.56-6.62,1.82-.8.1-2.24-.55-3.14-.53-1.29,0-2.3.85-3.55,1-1.09.11-2.15-.57-3.14-.49-3.54.3-6.24,2-9.32,0-3.27,1.66-7.18,2.12-10.12,2.93-1.78.47-1.67,0-3.08.26-4.93.92-9.81,2.8-14.69,3.39-1.91.23-3.82-.48-5.69-.2-1.48.23-2.95,1.43-4.47,1.86-12.33,3.4-24.72,2.53-37.13,5.12-2.49.53-5,1.73-7.49,2.25,0,0-.89-.69-1.6-.55-1.71.34-4.44,1-6.54,1.42-16,3.11-31.79,6.7-47.88,9-7.34,1.05-15.69,2.4-22.33,2.57-4.8.12-12.79,1.86-17.91.6-.5-.12-.55.8-.93.83-7.74.56-16.07,1.6-20.36,1.55-6.22-.07-13.42,1.28-20.86,1.52-8,.28-15.62-.91-24.53.34-3.35.47-5.24.52-7.09.69-3.57.33-7.38,1.38-11.08,1.73-1.42.13-2.8-.45-4.11-.34-5.81.51-11.66.84-17.49,1.3s-11.66.95-17.46,1.53-11.58,1.14-17.23,1.76-11.2,1.3-16.67,1.84c-1.29.14-2.42-.69-3.59-.53s-2.1,1.39-3.48,1.62c-.73.13-1.13-.65-1.56-.63a54.48,54.48,0,0,0-9.07,1.92c-.47.2-.66-.7-1.05-.66-.72.07-1,.73-1.49.8-1,.15-1.15-.71-2.07-.61-2.43.26-4.68,1.33-7.05,1.73-.73.12-1.12-.67-1.56-.66-.63,0-.7.68-1.49.78-2.57.3-4.88.91-7.6,1-1.22,0-2.78-.65-4.1-.55-2.74.2-5.31,1.38-8.09,1.75-4.83.6-10.36,1-16.28,1.15-3.31.09-6.52-.58-8.68-.49-1.12.05-2.45,1.46-3.53,1.53-1.32.09-2.81-.64-4.09-.65-.66,0-.67.89-1.52.73-.25,0-1.06-1.39-1.55-1.41-1.33-.06-2.77.64-4.06.77-5.12.49-10.2,2.38-15.26,3.06-2.75.38-5.34.42-8.16.77a6.17,6.17,0,0,0-1.53.71c-.93.16-1.58-.75-2-.72-.81,0-3.33,0-3.57,0-5.12.16-10.12.41-15.11.32a63.8,63.8,0,0,1-15-1.93c3.44-1.37,6.87-1.11,10.21-1.29a195,195,0,0,0,21.4-2.83c1.6-.28,3.46-.32,5.09-.72s3-1.81,4.57-2.15c.63-.14,1.76-.34,2.73-.49l1.84-.28c.16,0,.71.82,1.53.69s1.78-1.32,2.53-1.46c.51-.1.61.67,1,.7.6,0,.74-.68,1.52-.74,4.13-.31,8.53,1,12.69-.88,6.37,3.3,14.21,1.13,22.36.2,2.2-.26,4.84-.86,7.09-.9.92,0,1.61,1.29,2.58,1.36s2.49-.77,3.53-.82c4.18-.17,8.33-.81,12.66-1.22,7.49-.74,13.28-.31,19.25-1.53,5.75-1.16,11.19-2.44,16.61-3,.84-.09,1.69.74,2.57.58,1.06-.19,1.54-.76,2.49-.85,1.82-.17,4,.6,5.61.4,1-.11,1-1.29,1.94-1.56s1.76.64,2.57.55a8.91,8.91,0,0,1,2-.13c4.75.33,7-2.8,10.43-3.56s7.32-.47,11.12-.75c5-.4,11-1.38,14.2-.42,5.15,1.55,10.12-1,15.09-1.94,3.32-.63,7.13-.18,9.15-.12,1.06,0,2-.91,3-1,1.94-.16,3.65-.24,5.55-.51s4-1.19,6.06-.58c2.1-.32,2.8-2.25,4.84-2.64,2.36,1.32,5.16-1.15,7-1.42.77-.11,1.72.6,2.6.46,2.83-.43,5.91-1.84,7.93-2.25.75-.15,1.8.58,2.6.44,7.43-1.27,15.36-3.07,23.09-3.93,5.69-.62,11.07-.68,16.19-1.8.07,0,.86.74,1.6.54,1.62-.43,3.77-1.68,5.41-2.06,2.31-.54,4.69.27,6.5-1.47,2.78-.48,5.45.41,7.68-.15,1-.25,1.39-1,2.46-1s2,.83,3.21,1.07a9.69,9.69,0,0,0,6.09-.7c6.54-2.69,18.66-.79,26-2.26,1-.2,1.6-.18,2.54-.29,2.22-.27,4.46-1.27,6.53-1.46,4.65-.45,9.2.59,13.4-.06,2.5-.38,5.12-1.87,7.49-2.27a52.31,52.31,0,0,1,10.29-.39c1-1,2.77-1.08,3.35-2.52,1.2-.32,1.43,1.3,2.71,1.15a14,14,0,0,1,.87-1.53,6.28,6.28,0,0,1,2-.22c2.92-.4,6.33.32,8.7-.89,5.28-2.68,11.38-3.84,17.48-4.86s12.18-1.94,17.4-4.28c5.93-1.21,15.91-2.27,21.34-6.12,5.41,1.22,10.9-1.46,16.5-2.67,3.18-.67,6.5-.61,9.83-1.42a25,25,0,0,0,2.52-1.58c.26,0,.33.86,1.09.65,1.6-.44,2.94-1.41,4.61-1.71a45.53,45.53,0,0,1,7.31-.43c2.86,0,5.69.57,8.41.25,5.49-.69,10.62-5.43,16.14-3.58,2-1.66,3.86-1.28,5.78-.23,3.87-2.62,8.18-2.43,12.05-3.19,2.19-.43,4.12-1.31,6.31-1.61s2.77.66,4.23-.1c1.78-.92,8.45-.59,10-.8a10.22,10.22,0,0,0,2.11-.73c.38-.1.62.7.53.71,3.33-.42,8.94-1.3,10-2.23,1.62-1.37,3.83-.08,5.27,0,6.46.43,10.38-.79,15.29-2.73a2.73,2.73,0,0,1,2.62.74c1.3,1,1.69-2.82,2.12-.7,2.36-1,3.08.06,5.77.1.15-1.44.93-1.6,1.68-1.4a4.07,4.07,0,0,1,1,.45c.27.16.46.3.46.3.75.19,1.15-.72,1.59-.68,2.23.22,4.25,1.78,6.25,1.57,1.62-.17,2.87-1.22,4.24-2.06,3.92-1.44,9.69-1.82,15.2-2.44C770.37,94.88,767.87,96,766.85,95.58Zm-417.1,92.79c19-.91,41.44-2.36,61.88-3.58-19.79,4.11-40.35,5-58.69,4.72C352.21,189.5,350,191,349.75,188.37Zm149.89-16.48c1.95,1.64-2.42,2,0,0ZM523.44,188l1-.11.15,1.42-1,.11Zm-661.72,56.21,1,.13-.18,1.42-1-.13Z"/><path class="cls-1" d="M1069.19,104.3c.95,2.31-2,3.23-2.65,1.77-.62,1.86-2.43,1.32-3.52,2.6-.6.71-2.26,1-3.63,1.89-.72.47-1.16,1.43-1.73,1.66-2.92,1.15-6.63,1.18-9.89,2.68a19.52,19.52,0,0,1-2.83,1,12.63,12.63,0,0,0-2.9.26c-2.9.8-5.24,1.79-7.62,2.14a102.26,102.26,0,0,1-14.15.46c-.78,0-1.57.83-2.39.87-2.4.1-6.2-.69-9.82-.1-.73.11-1.65,1.58-2.44.15-3.18,2.91-7.93,4.54-13,5.51a89.59,89.59,0,0,1-14.87,1.37c-2.14,1.68-6.79,2.73-10.89,3-1,.07-2.36.86-3,.76s-1.16-3.81-1.5-.69c-3.48,1.26-7.44.38-11.48.83-2.6.31-5.39,1.93-8,2.13-1.45.11-3.05-.74-4.51-.73-2,0-3.76,1.06-6,1.42a11.05,11.05,0,0,0-2.51,0,28,28,0,0,1-7.57.58c-1.43-.06-2.81-.85-4-.79s-2.78,1.23-4.06,1.36c-1.62.17-3-.22-4.54-.08-4.19.4-8.3,1.27-13.69,1.08a71.08,71.08,0,0,0-9.11-.26c-4,.34-7.74-.26-11.66-.39-1.73-.05-4.09,2.18-5.58-.2-5.35,1.08-11,.72-16.83.8-2,0-4,.42-6.14.47-.42,0-.76-.89-1.5-.78-4.08.59-11.33,1.2-15.92,2.22-3.94.88-7.51,1.53-11.21-1.17-4.22,1.22-10.1.47-13.86.88-1.51.16-2.62.8-4.1-.16-1.73.65-3.57,1.15-5.2,2a54.6,54.6,0,0,0-11.26-.93c-3.76.07-7.52.42-11.32.86-3.3.38-7,1.33-10.3,1.11-2.19-.16-4.41-1.32-6.64-1.6-4.31-.54-8.8.17-13.39.43a84.62,84.62,0,0,1-9.27.54c-1.2-.06-2.93-1.85-4.63-.76-.17.1-.42,1.38-.53,1.43-2.13.79-5.8.38-8.24.64-3.54.39-6.85,1.22-10.3,1.37-3,.14-5.82-1.2-9.79.08-.92.3-1.93,1.3-3.07,1.46-1.51.21-3.23-1.6-4.63,0-2.33-2.27-6.77-1.55-8.33-4.9-.86-4.83.91-6.89-.2-10,2.26-1.81,5.27-2.86,7.8-.82,4.31-2.18,9-.62,13.53-.83,5.4-.28,9.84-1,16.12-1.4.79,0,1-.76,1.57-.7.43,0,.5.77,1,.73,5.45-.44,13.15-1.75,20.27-1.86a52.94,52.94,0,0,1,6.21.14c1.55.15,3.59.84,5.16.83l19.12-.16c.42,0,.48.82,1,.75s1-.73,2.6-.63a35.79,35.79,0,0,0,7.73.25c.56-.06,1.11-.69,2.08-.64a2.37,2.37,0,0,1,1,.4,4.23,4.23,0,0,1,.51.38c1.45-.06,2.85-1.3,4.16-1.27s2.67.94,4.08.87c1.89-.09,3.78-1.13,5.7-1.21s4.08.86,6.13,1a12.73,12.73,0,0,0,2,.08c-.1,0,.29-1.18.54-.7.56,1.08,8.61.51,12.3-.21.78-.15,1.64-1.18,2.61-1.33a28.54,28.54,0,0,1,3.58.15c.11,0,.55-.81,1.05-.67,1.18.31,4.35-.32,6.66-.45,4.24-.23,8.55-.11,12.75-.2,1.88,0,3.68.08,5.59.23,1.42.12,3.07.87,4.54.89,2.48,0,5.09-1.13,7.65-1.16s5.31,1,8.07,1c4.56,0,9.21-.92,13.67-1,.19,0,1.18.88,2,.77s.95-.7,1.53-.67c2.59.11,5.36,1.57,8,1.66,1.8.06,3.59,0,5.42,0a38.75,38.75,0,0,1,5.63.26c1.11.15,2.68-1.21,3.49.77,4.16-1.65,8.32-1.84,13.56-1.91,2.46,0,10.5-1.63,14.45-1.38a26.57,26.57,0,0,0,3,0c3.4-.2,6.62-2.13,9.44,0,2.24-1.66,8.75-2.84,10.88-.17,4.85-2.81,11.06-.71,16.17-4,5,.09,11.42-1.55,18.56-1.43,4.82,0,9.68,1.53,13.5-2.28,2.35-.34,2.67-.86,5.77-1.08.85-.46,1.65-1.23,2.49-1.72a2.34,2.34,0,0,1,2.7-.12c2.77-2.54,6.91-1.18,11.36-2.48,1.27-.37,2.68-1.57,4.16-1.82s3.23.43,4.85.27c1.32-.16,2.57-1.11,3.7-1.19,3.58-.24,6.74,1.88,8.41-1.77C1061.42,105,1066,103.2,1069.19,104.3Z"/><path class="cls-2" d="M-30.65,172.2S35.12,180,94.73,193.33,282,191.47,324.55,172.2s108.23-18,162.93-27.6,97.91-8.12,147.91-9.84,140.62-20.28,184.81-10,74,3.64,99.88,0,75.58-65.3,139.23-21.55,91,75.87,102.94,73.88S1080.7,376,1058.82,370-68.92,391.9-63,382-30.65,172.2-30.65,172.2Z"/></svg>