<svg id="borders" xmlns="http://www.w3.org/2000/svg" viewBox="0 0 998.52 269.99"><defs><style>.cls-1,.cls-2{fill:#fff;}.cls-1{fill-rule:evenodd;}</style></defs><title>white-border-page-contact</title><path class="cls-1" d="M96,79.72c.23-.92,1.24-.47,2-.52C97.67,80.78,96.53,80.66,96,79.72Z"/><path class="cls-1" d="M82,75c.52,1,2.74,1.45,2.92-.44-.79-1.3-3.1-.77-4.7-1.1-.94-.09-.43-1.93-1.77-1.54-.06,1.5-1.71.17-2.44.48a13.58,13.58,0,0,0-8.4-2.25c-2,.11-4.65.78-5.5,2.18,1.42.93,1.07.18,2.85.31,1.87,5.13,8.36,3.61,11.6,4,2.75.35,5.73,2.43,8.58.74C84.43,76.17,81.6,77.53,82,75ZM66.77,73.57c.32-2.12,2.48-.9,3.93-1C70.17,74.35,67.75,75.13,66.77,73.57Z"/><path class="cls-1" d="M84.19,71.76c-.74,1.44-3.72.43-3.2-1.66,1.33.73,1.4.74,2.85.25C83.7,71.14,83.84,71.58,84.19,71.76Z"/><path class="cls-1" d="M-10.11,182.59c4.56,1.14,6.9-1.74,11.45-.6,1.07.53.9-1.21,1.7-1.17A62.19,62.19,0,0,1,22,181.89c1.65-.7,3.59-.83,5.31-1.44,1.09-.64,2,.93,3,1s2.14-1.07,3.2-1,2,1.06,3,1c2.49-.13,5.29-1.32,7.82-1.24,1.45,0,3,1,4.48,1.18,1.67.17,3.32-.75,5.2-.83,3.7-.16,7.17.16,10.75-.26,3-.37,5.51-.75,8.78-1.31,2.14-.37,5.23.31,8.64.05,1.1-.08,1.86-.85,3.14-1.11,4.73-1,10,1.62,14.33-1.53,9.67-.39,19-.56,28.72,1.27,1.35-.65,2.57-1.51,4.61-1.08,1.85-1,.16,2.36,1.38,2.17,1.8.81,5,0,4.87,3.08-1.85,1.65-5.81,0-6.76,3-7.66,1.14-15,.4-22.36.58-2.83.07-5.48,1.06-8.24,1.53-1.48.26-3.12,0-4.61.32-1.3.22-2.44,1-3.65,1.07s-1.23-.73-2-.87c-1.83-.33-6.81.44-8.22.67-3.56.59-6.29,1.12-10.39,1.87-2.22.41-4.59,1.28-6.79,1.49s-4.24-.51-6.61-.63c-5.76-.27-12,.09-19,0-1,0-2,.42-3.13.36-.87,0-2.1-1-3-1-1.52,0-3.21.91-4.74.88-1.75,0-3.57-.1-5.39-.19l-5.38-.39c-.73-.06-1.69-1-2.46-1-1.28,0-5,.58-7.3.45-.91-.06-1.49-.94-2.46-1-1.68-.14-3,.34-5.09-.66a6,6,0,0,0-1.53-.2c-.38-.13-.65.8-1.11.55-.24-.14-1-2.24-2.27-2.39C-7,185.21-10.26,186.8-10.11,182.59Z"/><path class="cls-1" d="M221.14,182.1a10.78,10.78,0,0,0,5.5.78c.94-.18,1.65.66,2,.72,4.3.7,10.62.87,14,.21a41.55,41.55,0,0,1,8.2-.57c2.75,0,5.52.11,8.35,0a82.16,82.16,0,0,0,8.51-.69c.93-.15,1.52.7,2,.69,2.21,0,5-.46,7.51-.69,3-.28,5.87-.24,7.5-.69.43-.12.48.69.5.69,3,.2,3.89-1.21,6-1.43a2.67,2.67,0,0,0,.51.34,2.34,2.34,0,0,0,1,.34c.91,0,1.51-.68,2-.72,3.26-.22,6.42.32,9.49-.13,2.46-.35,5.06-1.86,7.46-2.17,1.52-.2,2,.66,2.51.66.32,0,.56-.7.49-.7,4.55-.18,10-.11,13-.22.75,0,1-.6,1.48-.73a34.83,34.83,0,0,1,7.45-.88c3-.2,7-1.25,10.42-1.65,1-.12,2,.05,3-.08,8.68-1.09,21.91-1.42,31.72-3.12,5-.87,9.91-1.81,14.74-2.72s9.58-1.87,14.32-2.62c5.44-.88,10.19-2.13,14.74-2.77,3.1-.43,6.22-.55,9.35-.71a78.14,78.14,0,0,0,9.38-.94c2-.36,3.89-1.26,5.85-1.71a111.82,111.82,0,0,1,17.15-3c8.73-.73,17.54-1.29,26.59-1.65,16.84-.63,33.92-2.56,51.19-2.78,12.37-.24,25.14-.5,36.86-2.06,11.15-1.54,25.45-2.14,38.65-3.74,8.56-1.05,17.07-1.41,25.39-2.76,2.83-.46,5.43-1.63,8.2-2.05,11.74-1.81,23.75-2,35.12-3.61,3.66-.52,7.38-1.75,11.11-2.31s7.53.06,11.28-.25c4-.34,7.77-1.26,11.66-1.66a138.91,138.91,0,0,0,15-2.63c3.22-.73,5.83-.51,8.29-.69,5-.35,10.09-2,15-2.63,1.53-.19,3,.61,4.44.33s2.74-1.43,4.27-1.73c0,0,.33.17.73.32a2.47,2.47,0,0,0,1.27.21c4.09-.86,8.33-.79,12.12-1.67,1.77-.41,3-.81,4.82-1.08s4.11-.3,4.38-.35c1.83-.31,3.14-1.49,4.76-1.77.92-.15,1.49.53,2,.53.75,0,1.67-.79,2.38-.88,5.17-.65,11.09-.88,16.5-2,1.33-.27,2.47-1.34,3.79-1.68,1.65-.43,3.26,0,4.87-.38,3-.63,5.76-1.47,8.66-2.06,5.92-1.18,11.56-2.38,17.38-3.35l17-2.77c5.65-.93,11.26-1.89,16.82-3.1,9.58-3.14,19.37-4.91,28.92-6.76,1.38-.27,2.58.07,3.9-.24.92-.21,1.84-1.31,2.84-1.56,2.52-.63,5.24-.48,7.76-1.17a64.35,64.35,0,0,0,6.71-2.48c1-.42,2.41-.45,3.37-.9.17-.08.66-1.32.9-1.44.72-.37,1.69.12,2.44-.15a198,198,0,0,1,27.54-7c9.42-1.85,18.67-4.06,27.16-6.13,4.13-2,9-2.76,13.57-4.06a49.84,49.84,0,0,1,4.85-1.59c2.45-.39,5.29.06,7.85-.27s4.87-1.34,7.31-1.63c7.92-.93,16-.65,23.8-.45s15.22.21,21.84-1.52c2.15-.56,2.06,2.19,3.49,2.68,1.22-2,3.48.82,4.4-.79,1.74-1.24,2.38-4,3.83-5.61-1-2.29.4-3.89-1.07-4.81.33-3.08-.73-4.13-.61-6.89-3.06-.49-4.13-3.9-7.48-4-1.68,4-3.45.53-4.94.11-1-.27-1.8.11-3,.07-4.12-.14-8.17,1.53-12.32,1.66s-8.33-.08-12.37-.35c-.73-.05-1.63-1.28-2.51-1.3s-1.91.87-2.94.79c-2.19-.18-4.38-1.1-6.46-1.16-.72,0-1,.7-1.46.74-.68.07-1.12-.68-1.51-.64-2.78.28-5.17.66-6.89.93-5.22.82-12,2.36-16.67,3.4-.86.19-1.59-.68-2-.6-1,.19-2,1.28-2.9,1.51-1.44.37-3,0-4.43.2a92.88,92.88,0,0,0-14.19,2.7c-2.34.68-4.44,1.84-6.79,2.38-.95.23-1.65-.59-2.49-.56a21.3,21.3,0,0,0-2.42.82c-1.75.35-1.75,1.1-2.91.85-.77-.17-1.17.7-1.44.77-3.32.85-5.9,1.08-7.75,2.49-2.22,1.68-5.64,2.11-8.73,2.54a27.78,27.78,0,0,1-3.81,2.28c-.76.29-1.67-.06-2.45.13s-1.13,1.25-1.88,1.48c-1.53.48-3.27.47-4.86,1s-3.22,1.32-4.82,1.68a25.43,25.43,0,0,1-6.86.42c-.64,0-1.63.79-2.41.84-1.62.11-3.13-.56-4.94-.39s-3.24,1-4.86,1c-3.14.06-6.3-1.25-9.35-.12-2.09-1.78-4.56-.29-6.9-.23s-4.77-.25-6.9-.22c-1.86,0-3.91-.3-5.92-.29-2.47,0-5.44,1.22-7.93-.84-1,1.52-2.3-.43-3.33,1.61a27.38,27.38,0,0,0-7.39-.19c-.19,0-.54,1.13-1.42.8-.34-.13-.47-1.31-1.08-1.31,0,0-.14.34-.32.69s-.41.71-.56.76c-.81.24-1.31-.55-1.57-1.27,2.67-1.11,5.37-1.75,8.18-2.67.8-.26,1.06-1.37,1.37-1.48.6-.2,1,.89,2,.55,1.46-.49,2.83-1.22,4.31-1.67,11.61-3.57,23.9-6.5,34.82-9.92,2.9-.92,5.82-1.69,8.72-2.61,1.28-.4,2.67-1.31,3.85-1.62,1.87-.48,3.58.2,5.41-.33.84-.24,1.54-1.13,2.38-1.53a27.84,27.84,0,0,1,2.91-.87C943.1,51.94,950,51,956.51,49.79c.71-.84.76-.17,1.48-.08a6.74,6.74,0,0,0,2-.11c5.53-.52,10.07-1.06,16.23-1.56,7.4-.59,15.12-.71,22.18-1.71,6.64-.91,13.42-2.92,20.15-3.63.94-.09,1.12.65,2,.62s1.7-.65,2.45-.78a121.78,121.78,0,0,1,19-1.39,162.11,162.11,0,0,1,17.18.92,43.42,43.42,0,0,1,5,.58c.76.16,1.12,1,2,1.33s2.17-.32,3-.07c3,1,5.84,3.49,9,3.25.23-1.92,1.87-2,2.91-2.83.45-.2,1.61-2.61.44-2.77.42-1.23,1.16-2,1.42-3.49,1.49-2.44-.65-5.64-.17-9,1.37-3.21.88-5.93.83-9-.05-2.79.42-2.9-.09-4.84a3.05,3.05,0,0,1,0-1.38c-.76-2.49-2.2-3.7-3.61-5.44s-2.72-4-4.61-4.73c-4.75,1.34-9.88.39-13.57-.38-1.08-.22-2.54-.35-3.53-.61-2.43-.63-3.8-2.2-6.08-1.94a4.81,4.81,0,0,0-2.48.77c-.18.13-.23,1.25-.46,1.4a16.7,16.7,0,0,1-4,1.51c-5.55,1.9-11.2,0-16.44,2.64-1.77-2.21-5.5-1.51-8.11-2.48-2-.12-1.42,3-3.39,2.88-1.59.59-3.28,1.06-4.41,2.25-6.21-.72-12.88,2.46-19.38,2.24-3-.1-7.2.94-10.46.47-3-.44-5.75-2.64-8.6-2.35-1.64.16-3.07,2.46-3.87,2.28-1.39-.31-3.36,1.32-4.9,1.65-.72.15-1.75-.67-2.52-.56-2.71.4-5.84.84-8.91,1.17-6,.66-11.9,3-17.38,1-3.76-1.43-6.07,1.8-9.29,2.64-2,.53-4.51.71-6.89,1.12-5.07.88-9.47.58-13.87.85-2.27.13-4.32,1.18-6.39,1.11-2.32-.09-4.79-1.43-7.05-1.6-1-.07-2.49-.61-3.5-.45s-1.86,1.47-2.87,1.58c-1.24.14-2.24-.61-3.51-.45s-2.56.82-3.91,1c-2.21.22-4.65-.47-7-.22-1.19.13-2,1.41-2.87,1.58-1.28.24-2.74-.37-4-.42-2.27-.08-4.64-.69-7-.87-1.3-.1-2.71.38-3.94.29s-2.44-1.14-3.55-1.12-2.56.8-3.89,1-3.15.12-4.44.33c-2.88.45-5.61,1.63-8.28,2-1.16.16-2.33-.47-3.5-.44-1.36,0-2.62.87-3.88,1-2.93.28-5.8-.07-8.36.65-2,.56-4,2.82-5.2,3.17a2.17,2.17,0,0,1-1.26-.19,8,8,0,0,1-.76-.34c-3.1,1.06-5.34,2.81-8.14,3.4-.48.1-.92-.61-1-.61-.51,0-.52.71-.93.77-2.41.3-4.22.17-4.91.38-1,.3-1.85.68-2.89.92a245.6,245.6,0,0,1-34.58,5.57c-7.24.59-16.81,2.08-22.45,2.55-.14,0-.76-.72-1.53-.57-1.5.29-1.5,1.42-1.84,1.54-.78.27-2.12-.59-3-.44-1.14.19-2.17.81-2.88.93s-.74-.69-1.52-.56-1.34.66-2.39.89c-2.44.52-4.93,1.84-7.7,2a14.82,14.82,0,0,1-6-.89c-1.62.79-2.85,2.41-4.83,1.1-1.46,1-3.1,2.1-4.82,1.09-3.76-.45-7.82,1.32-11.66,1.67-5.57.51-11.28.58-17.07,1.42-7.66,1.12-18.54,3.15-23.82,2.67-.49,0-.53.68-.92.77-7.93,1.78-15.62.73-21.47,1.05-.13,0-1.21.27-2.25.53l-2.07.52c-.1,0-.49-.6-1-.61-3.56-.09-5.64,1-8.16,2.05-.58-2-.79-.71-2-.53A314.86,314.86,0,0,1,568,59.31c-10.18.21-20.3,1.42-32.07,1.69-2.42,0-4.24,1.05-5.76,1.09-1.71,0-3.72-1.15-5.43-1-2.11.17-4.16,1.57-6.2,1.82s-4.21-.22-6.35-.25c-2.34,0-5-.31-7.31-.19-2.15.13-4.12,1-6.25,1.11-9.64.34-19.28-.86-29.11.45-.4-2.21-2-.54-2.94-.51-3.89.12-8.19.07-12.11,0-1.92,2.82-4.74,1.5-7.17,1.78-4.93.57-10.14,1-15.46,1.37s-10.74.56-16.12.75c-10.74.35-21.26.63-30.17.84-1.82.05-4.56.85-5.75.9-1.9.08-2.84-1.34-4.39-1.22-2.36.19-4.78,1.93-6.76-.44-5.31,2-10.4-.94-14.39,1.87-4.65-1.85-9.49.2-14.42.37-2.35.08-4.89-.65-7.23-.51-3,.19-6.48.63-9.71,1s-6.17.7-8,.71c-1,0-2.63-1.09-3.85-.64-.62.23-.83,1.34-1.42,1.4a3.46,3.46,0,0,0-1.45-.67c-.77,0-1.71.71-1.91.72-1.48,0-2.62-.7-3.85-.64-2.48.12-4.73,1.17-7.19,1.48-2.78.35-5.57.45-8.16.8-5.54.67-10.29,1.47-14.87,2.07-3.23.43-7.45,0-9.12,0-.19,0-.3.17-.38.35a2.06,2.06,0,0,0-.11.35,119.08,119.08,0,0,1-13.93,1.34s-.76-.73-1.43-.71c-.9,0-1.07.58-1.92.66a44.25,44.25,0,0,1-7.67-.12c-1.21-.06-2.69,1.38-3.35-.74-1.42-.05-2.46,2-3.37.64a141.45,141.45,0,0,1-17.53.17,102.47,102.47,0,0,0-17.48.37,10.49,10.49,0,0,0-2.42.62c-2.31.82-4.45-.07-6.71-.21-3.1-.21-5.63.09-8.14-.27-.91-.13-1.85-.79-2.84-.83-1.71-.07-5.1,1-5.79,1.1-.49.06-.54-.74-.92-.73-1,0-1.95-.15-2.87-.14-.73,0-3.15-.16-3.34-.16-5.11-.07-10.4.12-15.81-.07-7.46-.3-16-.74-22.42-1.45-2.36-.27-5.31-1.32-7.58-1.2-1.88.1-3.68,1.55-5.4,1.71-1.3.13-2.61-.85-3.76-1-.89-.08-1.1.49-2,.52s-1.13-.75-1.9-.17a20.43,20.43,0,0,1-9.1-.1c-.34,2.67,2.1,1.95,3.16,2.36.65.25,1.16,1.46,1.32,1.5.9.22,1.21-2.32,2-1.21-.35,2.07,1.44,1.56,2.22,2.27,2.06,1.2,1.62-1.89,3.45-1.09,5.38,3.26,11.49,3.42,17.5,4,0,0,.1-.71.53-.66,5.84.8,13.34,1.68,19.58,2,5.91.21,11.91.66,17.76.86,1.5.05,2.75.26,4.32.21,5.05-.18,9.88.9,14.88.68,1.62-.07,3.33-.37,4.83-.54a17.62,17.62,0,0,1,3.85.12c1.63.14,3.06.73,4.79.84.72,0,1.68-.71,2.42-.62,1.13.15,1.41.81,2.38.77,2.95-.14,5.77-1.41,8.69-1.11,2.05.21,4.14,1.27,6.22,1.57.92.13,1.36-.65,2.42-.65.78,0,1.65.76,2.39.73,1.76-.08,3.59-.54,5.31-.61,3.27-.14,6.91-.82,10.12-.54,1.87.16,3.87,1.39,5.76,1.47,4.31.16,8.85-3.3,13,.15,3.57-.56,6.5-.29,9.65-.69,7.3-.93,16.38-2.74,23.12-3.44,2.9-.34,4.53-1.21,6.26-1.47,2.4-.36,5,.37,7.23-.1,0,0,.37-1.32.47-1.38,1.35-1,4.22-.63,5.29-.76,3.47-.44,6.77.76,9.16.57.86-.07,2-1.24,2.87-1.42,1.42-.3,2.66.11,3.85-.05,6.21-.93,13.45-2,20.25-.51a11.11,11.11,0,0,0,3.39.6A20,20,0,0,0,352.05,77c.44-.25.93.67,1,.66,4.33-.48,9.6-1,13.49-1.13,1.35,0,3,.54,4.37.53s2.51-.09,3.86-.14a47.85,47.85,0,0,1,5.31-.2c2,.16,4,1.23,5.85,1.17s3.59-1.33,5.25-1.58c.74-.11,1.2.58,1.48.64.8.15,1.72-.77,1.9-.77,2.08,0,7.41.33,9.21.26.16,0,1-.88,1.9-.78,2.2.24,4.55,1.55,6.86,1.75,3.33.3,7.1.18,9.22.26.88,0,2-.83,2.87-.82,2,0,3.89.4,5.84.41.89,0,2.08-.86,2.87-.85,1,0,1.51,1.21,2.49,1.24,7.77.24,16.68-1.37,21.83-.52a8.07,8.07,0,0,0,2.42-.13c12.4.66,25.1.65,37.55,1.14,3.84.15,7.71,1.52,11.3,1.32,2-.11,5.14-1.59,6.22-1.82.87-.18,1.63.6,2.48.52,9.64-.93,18.59-1.62,27.64-2.65,6.26-.7,12.31-.2,18.52-.69,13.09-1,28.17-2,40.8-3.86a63.39,63.39,0,0,1,6.81-.54c1.11,0,2.37-.13,3.41-.28,14-2,28.18-3,42.32-4.15,7.46-.62,15-1.88,22.37-2.55,20.09-1.82,38.72-2.74,57.56-5.49,1.79-.26,3.46-1,5.32-1.13,1.63-.08,3.69,1.09,5.49.93a20.91,20.91,0,0,0,2.39-.89,50.29,50.29,0,0,1,8.26-1.37c4-.52,8.05-.61,12.24-1,2.32-.21,6.65-1.65,8.7-2.09.59-.13.75.67,1.53.57,2.49-.32,6.87-1.74,9.19-2.13.61-.1.74.68,1.52.57,6.41-.9,14.21-2.52,19.94-3.64,1.18-.23,1.87.65,3,.46,1.82-.31,3.37-1.4,5.29-1.8.54-.11.83.58,1,.61.74.11,1-.74,1.42-.81,5.79-.77,10.12-2.78,15.06-3.22a49.89,49.89,0,0,1,6.93.18c2.36.15,4.62.79,7,.87,7.75.28,17.53-1,23.16-1,4,0,8.79-1.35,13.34-.22-3.94,2.5-8.7,2.52-13.1,3.66a108.37,108.37,0,0,0-14,4.45c-1,.4-1.88,1.2-2.85,1.6-3.92,1.61-7.2,2.47-10.6,3.55-2.45.77-4.86,1.17-7.26,1.92-2.67.83-4.76,1.87-6.27,1.85a188.86,188.86,0,0,1-23.19,6c-8.15,1.54-16.39,3.84-24.69,5.42-.49.09-.63-.64-1-.61a5.5,5.5,0,0,1-1.41.81,83,83,0,0,1-9.18,2.13C766.14,74.93,757.43,75,749,77.1c-.86.21-1.44,1.26-2.33,1.58s-2.45.07-3.42.28A42.88,42.88,0,0,1,732,79.9c-2.78-.14-8,.29-9.83.12-.62-.05-2-.51-2.5-.48-1.48.1-4.93,1.57-6.23,1.91-.49.12-.64-.66-1-.61-2.88.38-5.83,1.41-8.73,1.42-3.73,0-7.06-2.3-10.25.86-1.12-1.09-2.27-1-3.53-1.09-.84,0-1.65.82-1.9.85-.92.12-1.13-.58-2-.52-2.91.18-6.22.94-9.27.77-2.54-.14-5-1.36-7.49-1.46s-5.25.6-7.8.65c-3.22.06-5.53-.82-7.43-.77-1,0-2.45.85-3.36,1-5.6.76-10.54-1.17-14.79-.87-1.19.08-2.1,1-3.36,1,0,0-.77-1.2-1.09-1.3-1.84-.55-2,1-3.36,1-.69,0-1-.56-2-.53-4,.1-8.15.8-11.75.27-1.37-.21-2.06-1.09-3.52-1.1-1.72,0-3,.91-4.82,1.07s-3.65-.36-5.41-.27c-10.24.52-20.74,1.91-28.3,1.52a16.71,16.71,0,0,0-2.92.22,34.55,34.55,0,0,0-7.2,1.92c-.73.29-1.17,0-1.95.15.11,0-.27-.63-.54-.65-.5,0-.53.71-.92.76s-1.25,0-1.95.15c-1.84.36-3.12.16-4.87.36-14.07,1.67-27.54,5-41.17,5.69-3.22.15-6.6-.24-9.78,0-3.33.23-6.4,1.74-9.64,2s-10.64-.69-14.68-.46c-1.93.11-3.45,1-5.31,1-6.8.22-13.42-.88-20-.24-7.29.69-13.65,1.07-20.42,1.13-5,0-9.74.41-14.58.68C415,96,410,95.53,409,95.58c-2.56.12-10.71,1.88-12.57,2-.26,0-.66-.65-.52-.67-2.45.32-4.79,1.47-7.23,1.66-2.21.17-4.43-.6-6.83-.44-9.17.58-18.79,1-28.11,3.06-6.26,1-14.85-.43-22.82,1.28-3.65.77-7.29,2.93-11.16.94-2,2.3-4.86.67-7.76.79s-6.58,1.48-9.7,1.51c-3.5,0-6.6-1-9.73-.56-1.82.23-3.46,1.2-5.34,1.45-.73.1-1.21-.64-1.46-.69-.89-.15-1.49.72-1.94.69-1.44-.09-2.88-.65-4.38-.69s-2.56.77-3.89.69c-.76,0-2.16-1.4-2.43-1.38s-.37.68-1,.69c-3.76.06-8,1.26-11.66,1.38-1.38,0-3-.86-4.37-.69-1,.12-2,1.13-2.92,1.38-5.71,1.47-11.58-.65-17.52,1.84-2.42-1.64-5.22-.81-7.77-.81-.35,0-2.6-.1-3.89-.06-5.49.16-8.88-.27-12.64-.24-7.67.12-12.76-.44-19,.1a25.93,25.93,0,0,1-3.89-.12c-4.65.06-10-.19-13.14.23-1.3.19-2.13.88-3.43.52-2.24.07-2.38.62-4.37-.21a13.66,13.66,0,0,1-9.85,2.29c-5.19-.59-16,.45-22.84-1.25-2.38-.56-4.76-3-7.1-3.25-1.68-.19-3.81.87-5.43,1a47.66,47.66,0,0,1-5.87.3c-2.88-.08-5.47-1.18-8.2-1.24-2.17,0-4.5.79-6.89.82-2.76,0-5.62-.67-8.72-.76-.85,1.2-1.64-.8-2.36-.9-1.1-.15-2.26.51-3.45.4-2.44-.23-4.7-.54-7.27-.63l-7.71-.25c-2.6-.09-5.21-.3-7.85-.55-4.58-.45-9.27-1-14-1.51-5-.54-10.25-1.36-14.67-.19-1.51-.09-1.12-2.33-3.21-1.8C23,103.62,12,100.23,4.76,101a29.27,29.27,0,0,1-4.44.12c-.8,0-1.66-1-2.32-1-1.78,0-3.31.79-5,.63-1.55-.15-3.22-1.18-4.72-1.42-.92-.15-1.61.33-2.51.31-1.09,0-1.87-1-2.79-1.13-1.85-.2-3.7.85-5.51.55s-3.26-1.91-5.08-2.18-3.93-.11-5.89-.21c-4.64-.17-8.6-.6-11.76-.61-2.07,0-4.07.5-6,.33-1.74-.15-3.26-1.4-5.17-1.62s-4.61.57-6.62.92-5.37-.84-6.06,3.13c-.85,1.86.95,2.5,1.91,3.15A18.8,18.8,0,0,0-64.91,103a35.58,35.58,0,0,0,12,2.84c2.08.1,4-.47,6-.32,8.6.7,17.68,3.87,25.2,4.07,3.19.07,6.87-2.52,8.84.66,2.36-1.6,7.27-.75,10.87.26a15,15,0,0,1,4.67,2,87.09,87.09,0,0,1,17.43,1L29,114.71c1.48.2,3,.4,4.45.56s3,.25,4.45.33c11.52.63,22.52,2.2,32.72,2.81,8.4.36,16.31,1,24.15,1.72l11.75,1.16,12,1c2.64.22,5.45-.31,8.35-.13s5.85.22,8.8.59c.6,1.28,1.34-.53,2.48-.52s2.53.84,3.87.95c2.61.17,5.25-.36,6.81,1,3.21-1.41,8.09-.2,11.36-1.53.94.34-.9,1.93,1.4,1.45.68-.92,2.16-.58,3.46-.52,1.09,1.6,3.59,1.28,5.38.26,7.69,1.28,15.67.7,23.49.86l16.26.22,4.26.05h4.31l8.69,0c11.62,0,23.23.38,33.56.9a61.6,61.6,0,0,0,6.85,0c6.57-.37,13.1-.73,19.62-1s13-.6,19.54-.64c1.41,0,2.58,0,3.91-.05l12.22-.85c1-.08,1.63.68,2.46.63,6-.39,12.24-.45,18.09-1.16,2.64-.32,5.09-1.3,7.79-1.58.08,0,.76.77,1.49.65,7.57-1.19,14.86-1.78,21.93-2.81,20.82-3,44-2.61,61.49-4.09,1.57-.14,2.86.53,4.43.44,2.8-.16,5.36-1.07,8.26-1.15a63.7,63.7,0,0,1,6.39.33c.78.07,1.76-.8,1.92-.8,4.34,0,8.73,0,12.73,0,.94,0,3.33-1.44,4,1.13-6.69-.19-13.09,1.38-18.48,2.45-4.09.8-10.94.73-15.15.84-1.23,0-2.55.81-3.87.91-5.86.44-11.81.4-17.11.84-2.29.18-5,0-6.78,1.7-8.57-.25-18.46,1.39-27.8,3.27-1.38.28-4.22.35-5.36.89-.16.08-.68,1.37-.93,1.42-1.06.19-2.29-.61-3.45-.56-3.84.14-6.64.4-9.79.36-2.33,0-4.77,1.09-6.88-.45-3,.57-6.71,1.74-10.72,2.35-1.25.19-3.74.78-3.9.79-.46,0-.64-.72-1-.66-1.85.3-3.46,1.28-5.36,1.52-4.14.53-9.73-.21-14.42,0s-8.48,1.42-9,6c-.47,3.87.85,6.72,2.6,8.25.51.45,2.14.12,3.46.64a5.28,5.28,0,0,1,3,2c7.71-.77,16-3.16,24.56-4.08.87-.09,1.92-.74,2.93-.77s1.88.73,3,.61c2.1-.22,4.26-1.36,6.36-1.54.77-.07,2.12.58,3,.58,1.23,0,2.22-.74,3.42-.82,1-.07,2,.63,3,.58,3.38-.17,6-1.7,8.88.36,3.18-1.49,6.92-1.81,9.76-2.43,1.71-.38,1.59.08,3-.11,4.74-.64,9.48-2.29,14.16-2.68,1.83-.15,3.63.63,5.43.44,1.42-.15,2.88-1.25,4.36-1.59a91.51,91.51,0,0,1,17.85-1.88,148.63,148.63,0,0,0,17.89-1.33c2.41-.39,4.86-1.42,7.28-1.79,0,0,.82.71,1.51.61,1.65-.24,4.3-.76,6.33-1,7.74-1.08,15.43-2.37,23.13-3.49s15.41-2.12,23.17-2.91c7.08-.69,15.14-1.62,21.52-1.5,4.61.1,12.35-1.24,17.22.15.48.14.55-.75.93-.76,7.45-.25,15.49-1,19.61-.77,6,.31,12.94-.82,20.09-.85,7.69,0,15,1.23,23.62.22,3.24-.38,5.06-.41,6.84-.55,3.45-.29,7.13-1.26,10.69-1.56,1.37-.12,2.7.46,4,.37,11.22-.81,22.53-1.55,33.7-2.77s22.1-2.67,32.6-4.1c1.24-.17,2.35.59,3.47.4s2-1.4,3.3-1.66c.7-.14,1.1.6,1.52.57a52.28,52.28,0,0,0,8.67-2.11c.45-.21.66.66,1,.61.69-.09,1-.73,1.41-.81.92-.17,1.14.65,2,.53,2.33-.32,4.46-1.47,6.72-1.95.7-.15,1.1.6,1.52.57.6,0,.65-.69,1.41-.81,2.46-.39,4.65-1.08,7.26-1.29,1.17-.1,2.7.52,4,.36,2.63-.31,5-1.54,7.7-2,4.61-.83,9.89-1.52,15.56-2,3.17-.26,6.29.22,8.35,0,1.07-.11,2.27-1.53,3.3-1.65,1.27-.15,2.73.44,4,.37.64,0,.59-.9,1.41-.8.24,0,1.1,1.27,1.58,1.26,1.28,0,2.62-.8,3.85-1,4.88-.81,9.62-3,14.42-3.92,2.61-.52,5.09-.74,7.76-1.3a5.92,5.92,0,0,0,1.41-.8c.88-.22,1.56.6,2,.54.77-.11,3.19-.24,3.42-.27,9.77-1.08,19.06-2.49,28.91-.8-3.17,1.6-6.48,1.64-9.66,2.09a189.49,189.49,0,0,0-20.29,4.33c-1.51.39-3.29.57-4.83,1.07s-2.74,2-4.23,2.41c-.6.18-1.66.43-2.59.64l-1.75.38c-.16,0-.74-.75-1.52-.57s-1.62,1.38-2.33,1.57c-.48.12-.63-.61-1-.61-.58,0-.67.7-1.41.8-3.95.57-8.26-.4-12.14,1.67-6.32-2.71-13.72-.29-21.52,1-2.1.36-4.61,1.09-6.77,1.25-.88.07-1.61-1.16-2.55-1.17s-2.36.89-3.36,1c-4,.34-8,1.12-12.14,1.7-7.19,1-12.77.89-18.49,2.23-5.51,1.29-10.72,2.68-15.93,3.41-.81.11-1.65-.66-2.5-.48-1,.21-1.47.78-2.38.89-1.75.21-3.82-.45-5.43-.24-.94.12-1,1.26-1.84,1.54s-1.71-.58-2.5-.48a8.61,8.61,0,0,1-2,.16c-4.59-.24-6.7,2.81-10,3.61s-7.07.59-10.74.89c-4.88.41-10.65,1.37-13.73.45-5-1.49-9.78,1-14.6,1.89-3.22.57-6.9.1-8.85,0-1,0-1.9.86-2.88.93-1.87.14-3.53.19-5.38.44s-3.91,1.11-5.86.48c-2,.27-2.75,2.11-4.73,2.45-2.25-1.32-5,1-6.79,1.23-.74.09-1.65-.61-2.5-.5-2.75.36-5.76,1.65-7.72,2-.73.13-1.72-.61-2.5-.49-7.21,1-14.92,2.58-22.41,3.11-5.51.4-10.7.27-15.67,1.17-.06,0-.8-.74-1.52-.58-1.58.36-3.69,1.47-5.29,1.78-2.25.43-4.5-.43-6.32,1.16-2.7.34-5.24-.63-7.4-.18-.93.2-1.38.93-2.4.86s-1.85-.89-3-1.17a9.3,9.3,0,0,0-5.88.41c-6.41,2.3-18,0-25.06,1-1,.14-1.55.09-2.45.15-2.14.15-4.35,1-6.34,1.09-4.47.21-8.78-1-12.85-.57-2.41.25-5,1.56-7.28,1.84a49.83,49.83,0,0,1-9.87-.14c-1,.88-2.7.9-3.32,2.26-1.16.25-1.31-1.33-2.54-1.24a13.47,13.47,0,0,1-.91,1.43,6,6,0,0,1-2,.11c-2.81.23-6-.6-8.36.46a38.57,38.57,0,0,1-8.19,2.56c-2.85.57-5.79.94-8.73,1.28-5.87.7-11.71,1.32-16.78,3.34-2.85.45-6.66.85-10.42,1.58s-7.48,1.71-10.13,3.44c-5.11-1.44-10.41,1-15.76,2-3,.54-6.19.36-9.37,1a24.76,24.76,0,0,0-2.43,1.47c-.25,0-.29-.84-1-.66-1.53.37-2.82,1.26-4.42,1.5a42.35,42.35,0,0,1-6.94.18c-2.71-.06-5.38-.76-7.95-.49-5.2.57-10.13,5-15.3,3.16-1.95,1.57-3.67,1.11-5.46.08-3.69,2.48-7.73,2.23-11.38,2.91-2.07.39-3.88,1.21-5.95,1.46s-2.6-.68-4,.05c-1.68.9-8,.6-9.45.82a10.14,10.14,0,0,0-2,.71c-.35.1-.58-.68-.5-.69-3.14.38-8.42,1.18-9.46,2.07-1.52,1.29-3.62.08-5,0-6.13-.36-9.84.84-14.48,2.76a2.56,2.56,0,0,1-2.49-.69c-1.24-.91-1.58,2.73-2,.69-2.22,1-2.93,0-5.5,0-.13,1.39-.87,1.55-1.59,1.36a3.88,3.88,0,0,1-1-.43c-.26-.16-.44-.29-.44-.29-.72-.18-1.1.7-1.51.67-2.13-.2-4.08-1.69-6-1.47-1.54.17-2.73,1.2-4,2-3.72,1.39-9.26,1.85-14.57,2.54C217.76,182.84,220.16,181.76,221.14,182.1Zm400.33-77.82-29.11,1c-10.09.36-20.36.67-30.16.86,19.07-3.18,38.69-3.63,56.23-3C619.13,103.18,621.29,101.8,621.47,104.29Zm-144,10.44c-1.79-1.67,2.41-1.82,0,0ZM455.43,98l-1,.05-.08-1.38,1-.05Zm624.47-84.76-1,0,0-1.38,1,0Z"/><path class="cls-1" d="M-82.85,141.91c-.19-2.39,3.05-2.35,3.24-.82,1.22-1.52,2.86-.48,4.35-1.33.82-.47,2.58-.23,4.22-.65.86-.22,1.59-1,2.23-1,3.25-.18,7,.9,10.63.5a23.76,23.76,0,0,1,3.09-.15,14,14,0,0,0,3,.53A80.4,80.4,0,0,1-44,139c4.79.5,9.56,1.94,14.26,2.89.79.16,1.75-.44,2.58-.3,2.42.42,6.06,2,9.81,2.2.75,0,2-1.14,2.48.38,7.5-3.92,20.12-3,29-1.63,2.38-1.29,7.13-1.63,11.23-1.33,1,.07,2.44-.48,3-.3s.66,3.81,1.4.88c3.6-.79,7.43.59,11.46.55,2.61,0,5.53-1.29,8.14-1.21,1.44,0,2.94,1,4.38,1.17,2,.19,3.81-.62,6.07-.74a10.39,10.39,0,0,0,2.47.27,31.41,31.41,0,0,1,7.48.06c1.4.16,2.7,1,3.89,1s2.82-1,4.08-1c1.6,0,2.89.41,4.45.39,4.14-.07,8.2-.73,13.46-.22a67.23,67.23,0,0,0,8.89.76c3.9-.17,7.55.53,11.37.76,1.69.1,4.05-2,5.44.36,5.24-.89,10.73-.35,16.4-.29,1.94,0,3.9-.31,6-.35.41,0,.73.86,1.44.76,4-.54,11-1.06,15.45-2,3.81-.82,7.26-1.42,10.83,1.21a27.49,27.49,0,0,1,6.86-.68c2.38,0,4.71,0,6.52-.18,1.46-.17,2.52-.79,3.95.12,1.67-.64,3.43-1.13,5-1.92,7.26,1.35,14.42.85,21.71,0,3.17-.42,6.74-1.39,9.88-1.23,2.11.11,4.24,1.22,6.38,1.48,4.14.49,8.42-.23,12.82-.5a84.84,84.84,0,0,1,8.87-.6c1.15.05,2.81,1.76,4.43.69.16-.1.39-1.34.5-1.38,2-.77,5.54-.42,7.88-.69,3.38-.39,6.55-1.25,9.84-1.38,2.85-.11,5.56,1.21,9.34,0,.88-.28,1.85-1.24,2.94-1.4,1.45-.21,3.08,1.53,4.42-.06,2.22,2.18,6.45,1.45,7.92,4.73.78,4.67-.91,6.63.11,9.67-2.16,1.69-5,2.75-7.4.79a12.37,12.37,0,0,1-6.34,1.14c-2.16-.1-4.35-.45-6.51-.37-5.12.2-9.35,1-15.33,1.38-.75.05-.91.74-1.49.69-.41,0-.48-.74-1-.69-5.19.45-12.5,1.81-19.33,2a50.25,50.25,0,0,1-5.95-.09c-1.49-.13-3.44-.78-4.95-.76-5.87.07-12.51.26-18.35.41-.4,0-.47-.78-1-.71a5.17,5.17,0,0,1-2.5.61,34.08,34.08,0,0,0-7.44-.23c-.54.06-1.07.67-2,.63a2.29,2.29,0,0,1-1-.38,4.1,4.1,0,0,1-.5-.36c-1.4.07-2.75,1.27-4,1.26s-2.58-.88-3.95-.81c-1.83.1-3.65,1.12-5.5,1.21s-3.95-.8-5.93-.88a12.17,12.17,0,0,0-2-.06c.1,0-.28,1.14-.52.68-.55-1-8.37-.55-11.95.13-.76.14-1.6,1.13-2.55,1.26a28,28,0,0,1-3.48-.17c-.11,0-.54.77-1,.64-1.14-.31-4.24.27-6.5.38-4.15.19-8.36,0-12.47.08-1.84,0-3.6-.17-5.47-.36-1.39-.15-3-.92-4.44-1-2.44-.11-5,.93-7.55.88s-5.2-1.14-7.92-1.22c-4.48-.16-9.11.62-13.54.44-.19,0-1.12-.92-1.94-.86s-1,.62-1.55.56c-2.56-.26-5.22-1.82-7.85-2.06-3.55-.33-7.1-.19-10.94-.95-1.09-.22-2.75,1-3.42-1-4.24,1.28-8.41,1.25-13.62.8-2.45-.19-10.64.47-14.57-.18a27.89,27.89,0,0,0-3-.32c-3.42-.18-6.86,1.38-9.46-1a12.27,12.27,0,0,1-5.72,1c-2.21-.15-4.33-.82-5.23-2.25-5.25,2-11.18-.88-16.85,1.29a68.89,68.89,0,0,0-8.7-.73,61,61,0,0,1-10.32-1.14c-4.9-1-9.46-3.54-14.13-.77-2.45-.19-2.89.23-6.08-.23-1.93.49-4,2.19-5.69.52-3.42,1.67-7.34-.54-12.18-.58-1.39,0-3.14.74-4.71.56s-3.17-1.26-4.86-1.57c-1.39-.25-2.93.24-4.1,0-3.73-.87-6.28-3.77-9.08-.92C-74.79,143.6-80,143.87-82.85,141.91Z"/><path class="cls-1" d="M-25.06,56.69c1.07.38.49,2.5,2,2.4,1.14.27,2.25.45,2.92-.25,1.23,2.23,3.46,1.12,4.59,1.4,2.35.58,5.17,1.2,7.41,1.84a35.84,35.84,0,0,0,4.7.72c1.57.28,3.09,1.77,4.5,2.09,1.59.37,3.24-.2,4.81,0,4.34.56,10.57,2.34,16.91,2.89a.35.35,0,0,0,.09-.68c-1.4-.4-3.77.28-3.6-1.86,1.49-.61,3.13,1.2,4.16,1.24.81,0,1.81-1.34,2-.44,1.33.31,2.56.42,2.62-1.75-1.79.81-2.66-1.51-4.06-1.92-.94-.28-2.59.6-3.86.2-1.81-.57-4.06.05-5-2,1-.28,3,1.25,3.38-.26C15.72,58.56,9.72,58.58,6.37,58c-2.54-.43-3.81-1.42-4.32.07-3-3.5-9.65-2-12.79-4.06-.75-.05-.63,1.68-1.61,1.15-1.16.1.74-3.07-1.09-2.26-5,.23-11-2.85-16.46-1.83-1.54-1.4-3.95-4-5.93-1.76.83.46,3-.42,2.09,1.77-3.06-.83-6.79-.83-10.35-1.15-.15,4.25,5.87,2.2,8.49,3.62.84.63.71,2.26,1.4,3.06C-31.28,55.66-27.71,59.45-25.06,56.69Zm38.58,5-.94-.12.19-1.37.94.12ZM-23.1,53.5c.39-1.09,3.71-.58,3.74.57C-20,57.16-22.57,54.11-23.1,53.5Z"/><path class="cls-1" d="M929,37.64c-.09.94-1.11.61-1.79.76C927.27,36.79,928.36,36.76,929,37.64Z"/><path class="cls-1" d="M926.17,45.34l1.38-.05.1,2.07c-.54-.09-.81.18-.89.72C926.13,47.89,926.3,46.37,926.17,45.34Z"/><path class="cls-1" d="M832.68,153.49c-.18.93-1.27.54-2,.64C830.84,152.52,832,152.57,832.68,153.49Z"/><path class="cls-1" d="M847.69,157.26c-.63-1-3-1.26-3,.64.93,1.24,3.32.56,5,.78,1,0,.61,1.89,2,1.42-.06-1.5,1.79-.28,2.54-.65A14.44,14.44,0,0,0,863.3,161c2.13-.32,4.86-1.26,5.62-2.74-1.6-.78-1.15-.07-3,0-2.51-4.9-9.16-2.73-12.6-2.93-2.92-.16-6.2-2-9.07-.16C845,156.29,847.89,154.75,847.69,157.26Zm16.15.25c-.13,2.15-2.54,1.16-4.06,1.34C860.18,157.07,862.64,156.07,863.84,157.51Z"/><path class="cls-1" d="M845.61,160.67c.67-1.48,3.89-.69,3.51,1.44-1.47-.64-1.54-.64-3-.05C846.18,161.26,846,160.84,845.61,160.67Z"/><path class="cls-1" d="M924.06,39.2c-4.17-.38-5.77,2.83-10,2.45-1-.34-.61,1.34-1.33,1.43a46.94,46.94,0,0,1-17.05,1.76c-1.39.92-3.13,1.35-4.61,2.14-.91.77-1.88-.68-2.79-.65s-1.82,1.32-2.78,1.43-2-.84-2.82-.7c-2.27.39-4.72,1.87-7,2.05-1.34.1-2.9-.71-4.23-.7-1.55,0-3,1.1-4.71,1.37-3.38.55-6.65.57-10,1.26-2.76.58-5.1,1.14-8.13,1.93-2,.52-4.93.06-8.11.55-1,.15-1.71,1-2.91,1.3-4.44,1.25-9.55-1-13.55,2.38-2.3.21-4.58.4-6.86.54s-4.58.2-6.87.21a86.28,86.28,0,0,1-13.92-1c-1.29.7-2.44,1.59-4.44,1.22-1.78,1-.2-2.36-1.39-2.13-1.77-.76-4.83.16-4.79-3,1.77-1.68,5.64-.13,6.5-3.2,7.36-1.37,14.39-.88,21.42-1.29,2.72-.15,5.19-1.25,7.78-1.83,1.39-.31,2.94-.22,4.34-.57,1.22-.3,2.26-1.14,3.39-1.29s1.19.66,1.9.75c1.74.22,6.39-.85,7.7-1.16,3.31-.8,5.79-1.55,9.55-2.58,2-.56,4.16-1.6,6.18-2s4,.21,6.15.11c5.32-.26,11-1.33,17.32-2,.87-.1,1.79-.63,2.8-.68.79,0,2,.8,2.8.7,1.39-.16,2.8-1.25,4.16-1.41,3.13-.36,6.53-.6,9.65-.84.66,0,1.63.74,2.31.66,1.15-.14,4.39-1.29,6.41-1.48.81-.07,1.45.72,2.3.63,1.49-.14,2.56-.82,4.54-.17a4.72,4.72,0,0,0,1.36-.05c.35.06.45-.89.88-.72.23.1,1.19,2.05,2.34,2C920.92,37.12,923.5,35,924.06,39.2Z"/><path class="cls-1" d="M704.85,52.77a10.84,10.84,0,0,0-5.5-.87c-.94.16-1.66-.68-2-.74a49.78,49.78,0,0,0-14.18-.31,41.09,41.09,0,0,1-8.28.5c-2.8,0-5.63-.16-8.51-.07a85.25,85.25,0,0,0-8.68.62c-.95.15-1.55-.72-2-.71-2.26,0-5.09.39-7.68.67-3,.3-6,.29-7.71.75-.45.13-.49-.68-.52-.68-3-.17-4,1.21-6.16,1.43a2.78,2.78,0,0,0-.53-.34,2.48,2.48,0,0,0-1-.34c-.93,0-1.55.68-2,.71-3.35.18-6.61-.31-9.77.18-2.54.39-5.2,1.93-7.66,2.28-1.57.22-2.1-.63-2.59-.62-.33,0-.57.71-.49.7l-13.33.48c-.77,0-1,.62-1.5.76a36.74,36.74,0,0,1-7.63,1c-3,.25-7.13,1.38-10.63,1.92-1,.16-2,0-3,.18-4.41.73-10,1.22-15.74,1.83S546,63.5,541,64.53s-10,2.26-14.86,3.38-9.67,2.21-14.42,3.22c-5.46,1.14-10.21,2.62-14.78,3.47-6.23,1.15-12.56,1.18-18.82,2.58-2,.46-3.87,1.44-5.82,2a113.38,113.38,0,0,1-17.08,3.93c-8.74,1.18-17.54,2.16-26.61,3-16.8,1.54-33.84,4.16-51,5.16-12.34.73-25,1.44-36.58,3.4-5.51.92-11.81,1.62-18.36,2.34s-13.32,1.36-19.84,2.29c-8.45,1.13-16.84,1.6-25,3-2.79.45-5.35,1.62-8.09,2-5.8.88-11.67,1.36-17.5,1.79s-11.61.72-17.24,1.43c-3.63.45-7.34,1.64-11,2.1s-7.46-.3-11.17-.1c-3.94.21-7.72,1-11.58,1.3-5.36.44-11.23,1.32-15,2-3.22.59-5.8.26-8.24.33a54,54,0,0,0-7.53.89c-2.51.42-5,.83-7.46,1-1.52.1-3-.78-4.39-.58s-2.79,1.28-4.33,1.5c0,0-.32-.19-.71-.36a2.44,2.44,0,0,0-1.25-.28c-4.11.62-8.31.35-12.12,1-1.78.29-3.06.61-4.85.75s-4.09,0-4.37.06c-1.84.19-3.21,1.27-4.84,1.44-.92.09-1.44-.63-2-.67-.74-.06-1.71.68-2.42.72-2.59.16-5.36.2-8.16.29a83.18,83.18,0,0,0-8.37.5c-1.34.17-2.56,1.14-3.89,1.38-1.67.3-3.24-.21-4.87,0-3.05.39-5.84,1-8.77,1.38-6,.72-11.69,1.38-17.56,1.86-11.5,1-22.91,1.37-34.22,2.7-2.46.55-4.93,1-7.39,1.42s-4.93.68-7.4.94c-4.93.54-9.84.92-14.7,1.37-1.41.13-2.57-.33-3.91-.16-.94.12-2,1.11-3,1.24-2.58.34-5.27-.13-7.86.27a64.72,64.72,0,0,0-7,1.7c-1.09.29-2.45.17-3.46.5-.18.06-.81,1.23-1.06,1.33-.76.28-1.68-.31-2.45-.13a127.5,127.5,0,0,1-14,2.38c-4.75.58-9.57,1-14.33,1.33s-9.59.76-14.27,1.21-9.24,1-13.61,1.47A36.37,36.37,0,0,1-85.38,143c-2.38.28-4.8.46-7.15.79-1.66.23-3.47.86-5,.91-2.5.08-5.27-.74-7.87-.74s-5,.7-7.52.68c-8-.16-16.07-1.66-23.81-2.88-3.87-.59-7.66-1.18-11.33-1.53a53,53,0,0,0-10.66,0c-2.23.24-1.74-2.46-3.1-3.16-1.5,1.85-3.35-1.31-4.5.15-1.91,1-2.94,3.6-4.63,5,.64,2.4-1,3.79.37,4.92-.77,3,.13,4.19-.38,6.91,3,.93,3.57,4.45,6.91,5,2.25-3.76,3.53,0,5,.6.91.4,1.82.15,3,.36,4.1.73,8.38-.33,12.55.12a111,111,0,0,1,12.33,2c.72.15,1.46,1.5,2.33,1.64s2-.59,3.05-.37c2.17.49,4.24,1.71,6.31,2.07.72.12,1.12-.55,1.56-.53.69,0,1,.83,1.42.85,2.83.09,5.27,0,7,0,5.34-.15,12.34-.81,17.16-1.16.88-.07,1.51.89,1.92.88,1,0,2.16-1,3.1-1.1,1.49-.17,3,.36,4.47.37a94.89,94.89,0,0,0,14.58-.9c2.44-.38,4.69-1.27,7.11-1.51,1-.1,1.59.81,2.43.89a19.33,19.33,0,0,0,2.53-.51c1.8-.14,1.9-.88,3-.49.76.26,1.26-.55,1.54-.59,3.44-.44,6.05-.36,8.08-1.54,2.42-1.4,5.91-1.41,9.05-1.47a28.11,28.11,0,0,1,4.09-1.8c.79-.2,1.67.27,2.47.15,1-.13,1.28-1.12,2.06-1.27,1.59-.32,3.34-.11,5-.42s3.38-.94,5-1.11a25.88,25.88,0,0,1,6.92.37c.64.1,1.72-.6,2.51-.56,1.64.08,3.07.91,4.91,1s3.36-.62,5-.47c3.16.26,6.18,1.88,9.37,1.07,1.91,2,4.55.78,6.9,1s4.76.77,6.91,1c1.87.19,3.89.69,5.92.87,2.48.21,5.59-.7,7.89,1.59,1.15-1.42,2.27.65,3.51-1.29a28.22,28.22,0,0,0,7.41.89c.2,0,.65-1.07,1.5-.65.33.16.35,1.35,1,1.41,0,0,.17-.32.39-.65s.48-.67.63-.7c.84-.16,1.27.68,1.46,1.42-2.78.84-5.57,1.19-8.48,1.85-.83.19-1.19,1.26-1.52,1.34-.62.14-.92-1-2-.74-1.52.35-3,.94-4.51,1.26-12,2.54-24.72,4-36.09,6.3-3,.63-6,1.09-9.07,1.65-1.33.25-2.83,1-4.06,1.17-1.94.26-3.58-.61-5.49-.29-.88.14-1.68.95-2.57,1.25a28.54,28.54,0,0,1-3,.53,69.14,69.14,0,0,1-8.64,1.1c-3.21.23-6.65.35-10,.55-.81.75-.79.08-1.5-.1a6.93,6.93,0,0,0-2-.13c-5.63-.16-10.27-.17-16.53-.42-7.52-.4-15.29-1.2-22.52-1.12-6.8.12-13.86,1.07-20.71.91-1,0-1-.79-1.93-.88s-1.79.43-2.56.46c-3.29.09-6.57,0-9.79-.17s-6.38-.59-9.45-1c-6.15-.87-11.94-2.07-17.11-3.28a37.7,37.7,0,0,1-4.9-1.26c-.73-.27-1-1.2-1.83-1.61s-2.21,0-3-.36c-2.88-1.38-5.35-4.3-8.53-4.51-.51,1.87-2.16,1.69-3.32,2.38-.47.13-2,2.35-.84,2.68-.6,1.16-1.45,1.86-1.92,3.25-1.84,2.2-.15,5.68-1.11,8.91-1.83,3-1.73,5.74-2.11,8.79-.35,2.77-.84,2.81-.6,4.8a3,3,0,0,1-.17,1.37c.41,2.58,1.68,4,2.85,5.91s2.16,4.39,4,5.35c5-.63,10,1,13.6,2.34,1.05.39,2.51.7,3.47,1.09,2.36.95,3.52,2.68,5.86,2.72a5,5,0,0,0,2.62-.41c.2-.1.41-1.21.66-1.32a17.2,17.2,0,0,1,4.21-.93c5.86-1.11,11.3,1.65,16.95-.3,1.49,2.42,5.35,2.21,7.86,3.51,2,.38,1.83-2.79,3.81-2.41,1.68-.39,3.45-.63,4.76-1.64a31.75,31.75,0,0,0,9.81.41,44.14,44.14,0,0,1,10.08-.06c3,.47,7.41,0,10.65.86,3,.82,5.49,3.33,8.42,3.45,1.69,0,3.42-2.07,4.22-1.79,1.38.48,3.57-.9,5.17-1,.75-.06,1.69.88,2.49.86,2.8-.07,6-.12,9.18-.08s6.22-.34,9.22-.42a17.21,17.21,0,0,1,8.56,1.49c3.67,1.85,6.38-1.09,9.76-1.55,2.11-.29,4.67-.18,7.14-.31,5.26-.26,9.71.42,14.21.62,2.33.09,4.53-.73,6.63-.43,2.36.34,4.74,1.94,7,2.36,1,.18,2.48.88,3.53.83s2.05-1.27,3.1-1.28c1.28,0,2.23.82,3.54.79s2.7-.58,4.09-.58c2.28,0,4.71.91,7.09.88,1.23,0,2.16-1.22,3.08-1.3,1.33-.12,2.77.63,4,.8,2.32.3,4.69,1.17,7.09,1.55,1.32.21,2.82-.14,4.07.06s2.4,1.35,3.54,1.43,2.7-.57,4.08-.64,3.24.15,4.58.06c3-.2,5.89-1.13,8.66-1.26,1.2-.06,2.35.68,3.55.73,1.39.06,2.76-.67,4.07-.69,3,0,6,.52,8.64,0,2.09-.4,4.37-2.49,5.59-2.76a2.3,2.3,0,0,1,1.27.29,8.36,8.36,0,0,1,.76.4c3.27-.82,5.7-2.38,8.62-2.77.5-.07.9.67,1,.68.52,0,.59-.68,1-.71,2.5-.15,4.35.1,5.07-.07,1-.23,1.95-.56,3-.73,6-.93,12.06-1.7,18.07-2.26s12-1.06,17.85-1.21c3.74-.1,8.1-.38,12.25-.67s8.09-.67,11-.78c.15,0,.75.75,1.55.63,1.56-.23,1.61-1.36,2-1.46.81-.23,2.16.67,3.06.57,1.18-.14,2.27-.71,3-.81s.73.72,1.55.63,1.41-.61,2.5-.79c2.53-.41,5.15-1.63,8-1.75a15.7,15.7,0,0,1,6.13,1.06c1.7-.75,3-2.33,5-1,1.54-.93,3.27-2,5-1,3.87.54,8.11-1.06,12.08-1.38,5.75-.43,11.67-.41,17.66-1.17,7.95-.95,19.19-3,24.66-2.55.51,0,.55-.68,1-.77A56.58,56.58,0,0,1,289,193.31c3.76,0,7.26.09,10.27-.11.14,0,1.25-.29,2.32-.56l2.13-.54c.11,0,.52.59,1.07.6,3.68,0,5.82-1,8.39-2.18.63,2,.82.7,2.06.49A373.83,373.83,0,0,1,358,185.85c10.4-.6,20.69-2.19,32.64-3,2.46-.16,4.28-1.25,5.83-1.36,1.74-.12,3.83,1,5.55.75,2.13-.27,4.15-1.76,6.21-2.11s4.28,0,6.45,0c2.37-.08,5.07.08,7.41-.15,2.17-.22,4.11-1.23,6.26-1.41,9.75-.86,19.51-.13,29.33-1.93.52,2.18,2.08.43,3,.36,3.9-.31,8.22-.49,12.16-.62,1.79-2.91,4.69-1.75,7.1-2.15,19.63-3.24,43.75-4.54,61.4-5.79,1.8-.14,4.5-1.07,5.67-1.15,1.87-.14,2.86,1.24,4.39,1.07,2.33-.27,4.66-2.1,6.71.21,2.59-1.12,5.17-1,7.58-.91s4.64.07,6.57-1.41c4.64,1.7,9.35-.51,14.21-.84,2.31-.13,4.82.57,7.11.38,5.83-.46,13.73-2.06,17.39-2.08,1,0,2.59,1.05,3.78.59.6-.23.79-1.35,1.37-1.42a3.36,3.36,0,0,0,1.43.65c.76,0,1.67-.73,1.86-.74,1.45-.07,2.58.67,3.78.59,2.43-.15,4.63-1.25,7-1.53,2.72-.33,5.46-.42,8-.76,5.46-.69,10.11-1.6,14.66-2.15,3.21-.4,7.4.06,9.05.08.18,0,.3-.17.37-.34a2.07,2.07,0,0,0,.11-.34,113.94,113.94,0,0,1,13.88-1.22c.05,0,.76.73,1.43.72.9,0,1.08-.57,1.94-.65a44.49,44.49,0,0,1,7.69.17c1.21.07,2.71-1.37,3.35.76,1.43.06,2.49-2,3.38-.62,5.48-.48,11.6-.15,17.69.08s12.22.42,17.77-.29a10.83,10.83,0,0,0,2.46-.6c2.35-.81,4.53.1,6.83.26,3.15.22,5.75,0,8.32.33.94.13,1.9.77,2.92.81,1.76.06,5.24-1,6-1.14.5-.07.56.74,1,.73,1,0,2,.14,2.95.12.75,0,3.23.14,3.44.14,5.25,0,10.75-.19,16.33,0,7.7.22,16.59.35,23.34.89,2.47.2,5.59,1.16,7.95,1,2-.15,3.77-1.66,5.57-1.89,1.36-.18,2.77.77,4,.8.94,0,1.13-.56,2-.63s1.22.68,2,.06a22.5,22.5,0,0,1,9.54-.42c.19-2.68-2.32-1.83-3.45-2.17-.7-.21-1.29-1.39-1.46-1.42-1-.16-1.13,2.39-2,1.32.24-2.09-1.59-1.48-2.44-2.14-2.21-1.08-1.6,2-3.55,1.28-5.8-3-12.11-3-18.36-3.37,0,0-.07.72-.52.67-6.08-.63-13.89-1.27-20.31-1.46-6.08-.17-12.28-.58-18.27-.74-1.53,0-2.82-.24-4.42-.18-5.17.2-10.12-.8-15.23-.62-1.66.06-3.39.34-4.92.5a18.21,18.21,0,0,1-3.91-.15c-1.65-.16-3.1-.75-4.86-.88-.73-.05-1.71.7-2.47.6-1.15-.16-1.43-.82-2.42-.78-3,.12-5.88,1.36-8.83,1.06-2.07-.21-4.18-1.28-6.27-1.58-.93-.14-1.38.63-2.45.61-.79,0-1.66-.79-2.41-.77-1.78,0-3.63.48-5.37.52-3.31.07-7,.73-10.18.43-1.87-.17-3.87-1.41-5.77-1.51-4.32-.2-8.93,3.25-13-.26-3.56.53-6.47.23-9.62.61-3.64.44-7.72,1.08-11.72,1.72s-7.89,1.35-11.23,1.74c-2.86.33-4.47,1.18-6.17,1.44-2.37.35-4.91-.42-7.13.1,0,0-.36,1.32-.45,1.39-1.32,1-4.15.68-5.2.83-3.4.48-6.67-.67-9-.45-.85.08-2,1.26-2.8,1.46-1.39.31-2.63,0-3.8.15-6.11,1.07-13.2,2.21-20,.91a10.87,10.87,0,0,0-3.37-.49,19.68,19.68,0,0,0-6.55,2.46c-.42.27-.94-.64-1-.63-2.13.32-4.5.64-6.81.9s-4.58.52-6.5.65c-1.33.09-2.95-.44-4.35-.38s-2.48.18-3.82.28a47.07,47.07,0,0,1-5.26.38c-1.94-.1-4-1.07-5.86-.92s-3.52,1.5-5.16,1.82c-.73.14-1.22-.53-1.5-.57-.81-.11-1.68.85-1.86.85-2.07.06-7.38-.07-9.18.08-.16,0-1,.93-1.86.87-2.21-.14-4.61-1.33-6.93-1.43-3.33-.15-7.09.15-9.21.17-.88,0-1.93.91-2.82,1-2,.11-3.91-.18-5.87-.1-.89,0-2,1-2.83,1-1,0-1.57-1.14-2.55-1.13-7.77.1-16.64,2.18-21.86,1.6a8.16,8.16,0,0,0-2.42.26c-6.23,0-12.56.15-18.89.32s-12.66.35-19,.45c-3.88.06-7.86-1.13-11.46-.77-2,.2-5.12,1.83-6.21,2.11-.87.22-1.68-.52-2.53-.4-9.7,1.37-18.75,2.52-27.88,3.89-6.32,1-12.49.69-18.79,1.41l-20.9,2.3c-3.55.41-7.09.84-10.54,1.31s-6.84.94-10.07,1.48a66.36,66.36,0,0,1-7,.69c-1.13.07-2.42.18-3.48.35-7.17,1.08-14.39,1.91-21.63,2.64s-14.53,1.2-21.78,1.79c-7.66.66-15.39,1.76-23,2.33-5.16.37-10.22.72-15.22,1l-14.82.74c-4.89.25-9.74.58-14.58.89s-9.67.68-14.52,1.17c-1.84.19-3.59.9-5.5.91-1.67,0-3.72-1.24-5.57-1.16a26,26,0,0,0-2.49.77,52.81,52.81,0,0,1-8.52.92c-4.14.3-8.26.18-12.56.33-2.38.08-6.89,1.31-9,1.59-.62.09-.73-.72-1.52-.67-2.56.16-7.13,1.27-9.53,1.51-.63.06-.71-.73-1.52-.67-6.6.46-14.67,1.63-20.61,2.25-1.22.14-1.86-.79-3-.69-1.88.16-3.55,1.13-5.53,1.38-.56.07-.8-.65-1-.69-.74-.17-1.06.67-1.51.69-6,.29-10.55,2-15.62,2a52.08,52.08,0,0,1-7-.78c-2.39-.35-4.64-1.19-7-1.48-3.93-.49-8.41-.59-12.62-.72s-8.16-.2-11-.47c-4.05-.38-9.05.51-13.56-1.06,4.25-2.11,9.07-1.68,13.65-2.4a113.56,113.56,0,0,0,14.63-3.08c1-.31,2-1,3-1.34,4.12-1.26,7.53-1.84,11.07-2.61,2.55-.56,5-.75,7.52-1.28,2.78-.6,5-1.44,6.51-1.3a194,194,0,0,1,24-4.13c8.38-.9,16.88-2.75,25.4-3.73.51-.06.6.68,1,.68a5.6,5.6,0,0,1,1.48-.71c3-.6,6.37-1.24,9.44-1.56,8.31-.85,17.14-.46,25.84-2.08.89-.17,1.52-1.2,2.44-1.48s2.49,0,3.48-.14a44.16,44.16,0,0,1,11.43-.45c2.81.25,8.14.05,10,.29.63.07,2,.57,2.52.56,1.5-.05,5.06-1.42,6.39-1.72.5-.11.63.68,1,.64,2.94-.3,6-1.24,8.91-1.17,3.78.08,7.11,2.52,10.43-.57,1.11,1.11,2.28,1.08,3.56,1.15.86,0,1.69-.8,1.94-.82.94-.11,1.14.59,2,.56,3-.13,6.34-.84,9.44-.63,2.58.18,5.1,1.43,7.6,1.57s5.35-.55,7.95-.59c3.28-.06,5.62.83,7.56.78,1,0,2.5-.84,3.42-1,5.7-.77,10.75,1.19,15.08.85,1.21-.1,2.13-1,3.41-1,0,0,.79,1.19,1.12,1.29,1.88.53,2-1,3.41-1,.7,0,1,.55,2,.51,4.11-.16,8.31-.88,12-.42,1.4.18,2.11,1,3.6,1,1.75,0,3.05-1,4.88-1.18s3.73.28,5.52.15c10.42-.76,21-2.47,28.72-2.33a17.21,17.21,0,0,0,3-.33,35.52,35.52,0,0,0,7.23-2.19c.73-.31,1.19-.06,2-.22-.11,0,.29.62.57.63.51,0,.51-.73.91-.8s1.27-.05,2-.22c1.85-.43,3.16-.27,4.92-.55,14.18-2.2,27.65-6.22,41.36-7.52,3.24-.3,6.66,0,9.85-.43,3.35-.4,6.36-2.07,9.62-2.49s10.73.16,14.79-.27c1.93-.21,3.43-1.14,5.29-1.29,6.83-.55,13.53.18,20.12-.79,7.29-1.08,13.63-1.71,20.42-2.11,5-.3,9.74-.91,14.57-1.41,1.35-.14,6.34.1,7.34,0,2.56-.26,10.63-2.33,12.48-2.48.25,0,.69.62.54.65,2.43-.41,4.73-1.69,7.15-2,2.2-.27,4.46.38,6.84.13,9.13-.89,18.72-1.71,27.94-4a69.27,69.27,0,0,1,10.73-.74,60,60,0,0,0,12-1.15c3.61-.85,7.21-3,11.1-1.18,2-2.34,4.83-.74,7.71-.9s6.53-1.56,9.64-1.64c3.48-.11,6.58.91,9.7.53,1.81-.22,3.45-1.19,5.31-1.43.72-.09,1.21.64,1.46.68.88.14,1.49-.73,1.93-.71,1.44.08,2.87.63,4.37.66s2.56-.8,3.88-.73c.76,0,2.16,1.41,2.43,1.39s.37-.68,1-.68c3.77,0,8-1.19,11.68-1.28,1.38,0,3,.89,4.37.73,1-.11,2-1.11,2.94-1.36,5.74-1.4,11.63.74,17.62-1.71,2.42,1.66,5.24.84,7.8.86.35,0,2.62.14,3.92.12,5.53-.08,8.94.46,12.73.4,7.73-.13,12.88.51,19.15,0a26.47,26.47,0,0,1,3.93.15c4.69,0,10.14.3,13.3-.17,1.32-.2,2.16-.89,3.47-.55,2.27-.09,2.41-.64,4.43.18a14,14,0,0,1,10-2.36c5.27.53,16.16-.51,23.17.93,2.43.49,4.92,2.83,7.31,3,1.71.14,3.85-1,5.49-1.19a49.19,49.19,0,0,1,6-.47c2.93,0,5.6,1,8.39,1,2.21,0,4.55-1,7-1.18,2.8-.17,5.75.35,8.91.25.79-1.25,1.72.71,2.46.76,1.13.09,2.27-.64,3.48-.61,2.5.06,4.82.21,7.44.13,5.18-.17,10.49-.43,15.88-.43,4.7,0,9.52,0,14.41,0,2.59,0,5.23.07,7.77-.06a24.06,24.06,0,0,0,7.13-1.41c1.54-.1,1.45,2.15,3.5,1.33,4.51-1.61,9.66-1.92,14.58-2.16s9.63-.39,13.19-1.35a30.29,30.29,0,0,1,4.44-.86c.8-.1,1.85.72,2.52.6,1.79-.3,3.16-1.43,4.89-1.64,1.58-.18,3.46.46,5,.38.95-.06,1.54-.67,2.44-.85,1.09-.21,2.08.61,3,.5,1.89-.2,3.5-1.62,5.36-1.72s3.68,1.18,5.56,1,3.93-.85,5.89-1.23c4.64-.92,8.65-1.66,11.75-2.46,2-.54,3.85-1.54,5.78-1.94,1.73-.37,3.57.37,5.5,0s4.31-1.92,6.15-2.85,5.46-.8,4.85-4.78c.23-2-1.69-2.1-2.8-2.44a19,19,0,0,0-2.52-.38,35.31,35.31,0,0,0-12.23.82c-2,.5-3.74,1.53-5.71,1.93-8.48,1.66-18.05.79-25.42,2.12-3.12.62-6.2,3.93-8.78,1.24-2,2-7,2.36-10.73,2a15.19,15.19,0,0,1-5-1.2,81.69,81.69,0,0,1-17.39,1.9c-6,.08-12,0-18,.35-5.78.4-11.46.36-17,.42s-10.88,0-16,.14c-16.89.48-31.95-.41-48.26-1.24-2.66-.14-5.47.48-8.39.39s-5.89,0-8.86-.33c-.63-1.27-1.34.56-2.49.59s-2.57-.77-3.91-.85c-2.62-.15-5.27.4-6.87-1-3.21,1.44-8.14.27-11.41,1.61-.95-.33.89-1.94-1.42-1.44-.67.93-2.17.59-3.48.55-1.1-1.59-3.62-1.25-5.41-.22-7.75-1.18-15.77-.73-23.63-.93-10.35-.29-22-.33-33.72-.59s-23.37-.55-33.75-1.17a62.32,62.32,0,0,0-6.89-.06c-6.61.27-13.18.73-19.73,1q-4.91.24-9.82.39c-3.27.11-6.54.26-9.82.31-1.42,0-2.59,0-3.93.11-4,.31-9.83.78-12.27,1.08-1,.1-1.65-.65-2.48-.58-6.07.51-12.29.64-18.15,1.53-2.64.4-5.07,1.47-7.78,1.84-.08,0-.78-.75-1.51-.6-3.78.75-7.5,1.26-11.16,1.81s-7.24,1.07-10.77,1.72c-2.6.48-5.24.9-7.9,1.27s-5.34.76-8,1.07c-5.38.65-10.79,1.12-16.09,1.59-10.61,1-20.81,1.67-29.53,2.9-1.57.22-2.89-.4-4.47-.24-2.8.29-5.34,1.31-8.24,1.54-2.22.18-5.39,0-6.43,0-.78,0-1.72.89-1.89.9-4.36.22-8.77.44-12.79.69-.94.06-3.27,1.6-4.07-.93,6.73-.13,13.08-2.05,18.45-3.4,4.07-1,11-1.3,15.18-1.59,1.23-.09,2.52-.93,3.85-1.09,5.87-.69,11.84-1,17.15-1.69,2.29-.29,5.05-.19,6.73-2,8.61-.2,18.49-2.11,27.8-4.49,1.38-.36,4.23-.51,5.35-1.09.16-.08.63-1.4.88-1.45,1.06-.22,2.32.52,3.5.44,3.86-.28,6.66-.63,9.84-.71,2.34-.07,4.77-1.22,6.94.24,3-.67,6.7-2,10.72-2.71,1.25-.23,3.74-.91,3.91-.92.47,0,.66.7,1,.63,1.86-.37,3.45-1.36,5.36-1.64,4.16-.61,9.81,0,14.53-.32s8.52-1.57,9-6.15c.42-3.88-1-6.71-2.76-8.21-.52-.44-2.17-.09-3.52-.59a5.27,5.27,0,0,1-3.08-1.94c-3.9.46-7.95,1.33-12.09,2.21-2.07.44-4.17.89-6.29,1.29s-4.25.83-6.41,1.13c-.87.12-1.93.81-2.95.87s-1.92-.66-3-.51c-2.11.29-4.27,1.5-6.38,1.76-.77.1-2.16-.53-3-.51-1.25,0-2.22.82-3.43.94-1.05.11-2.08-.55-3-.47-3.41.29-6,1.91-9,0-3.16,1.6-6.92,2-9.76,2.82-1.71.46-1.61,0-3,.25-4.75.88-9.46,2.7-14.17,3.27-1.84.22-3.69-.46-5.49-.19-1.43.22-2.84,1.38-4.31,1.79-11.89,3.28-23.84,2.44-35.81,4.94-2.4.51-4.81,1.67-7.22,2.17,0,0-.86-.66-1.55-.53-1.64.33-4.29,1-6.31,1.37-15.43,3-30.67,6.46-46.18,8.69-7.08,1-15.13,2.31-21.54,2.48-4.63.11-12.34,1.79-17.28.58-.48-.12-.53.77-.9.8-7.47.54-15.5,1.55-19.64,1.5-6-.07-12.95,1.24-20.12,1.47-7.71.27-15.07-.88-23.66.33-3.23.45-5.05.5-6.84.66-3.45.32-7.12,1.33-10.68,1.67-1.37.13-2.7-.44-4-.33-5.61.5-11.24.81-16.87,1.25s-11.25.91-16.84,1.48-11.17,1.1-16.62,1.7-10.8,1.26-16.08,1.78c-1.25.13-2.33-.66-3.47-.51s-2,1.34-3.35,1.56c-.7.12-1.09-.63-1.51-.61a52.56,52.56,0,0,0-8.75,1.85c-.46.19-.64-.68-1-.64-.69.07-1,.7-1.44.77-.93.14-1.11-.68-2-.59-2.35.25-4.52,1.28-6.8,1.67-.71.12-1.08-.65-1.5-.63-.61,0-.68.66-1.44.75-2.48.29-4.7.88-7.33,1-1.18,0-2.68-.63-4-.53-2.65.2-5.12,1.33-7.8,1.69-4.66.57-10,1-15.7,1.11-3.19.08-6.29-.56-8.37-.47-1.08,0-2.37,1.41-3.41,1.47-1.28.09-2.71-.61-3.95-.62-.64,0-.65.86-1.46.71-.24,0-1-1.34-1.5-1.36-1.28-.06-2.67.62-3.92.74-4.94.47-9.84,2.3-14.72,3-2.66.37-5.15.4-7.87.74a5.94,5.94,0,0,0-1.47.69c-.9.15-1.52-.72-2-.69-.78,0-3.21,0-3.45,0-4.94.15-9.76.4-14.57.31a61.54,61.54,0,0,1-14.46-1.86c3.32-1.32,6.62-1.07,9.85-1.25a188.09,188.09,0,0,0,20.64-2.73c1.54-.27,3.34-.31,4.91-.69s2.88-1.75,4.4-2.07c.61-.14,1.69-.32,2.63-.47l1.77-.27c.16,0,.68.79,1.48.67s1.72-1.28,2.44-1.41c.49-.09.59.65,1,.68.58,0,.72-.65,1.46-.71,4-.3,8.23,1,12.24-.85,6.15,3.18,13.7,1.09,21.57.19,2.12-.25,4.67-.83,6.84-.87.88,0,1.55,1.25,2.49,1.32s2.4-.74,3.41-.79c4-.16,8-.78,12.21-1.17,7.23-.71,12.81-.3,18.57-1.47,5.55-1.12,10.79-2.35,16-2.93.81-.09,1.63.71,2.48.56,1-.18,1.49-.73,2.4-.82,1.75-.16,3.81.58,5.41.38.95-.11,1-1.25,1.87-1.51s1.69.61,2.48.53a8.59,8.59,0,0,1,2-.13c4.58.32,6.74-2.7,10.06-3.44s7.06-.46,10.72-.72c4.86-.39,10.62-1.33,13.69-.4,5,1.49,9.76-1,14.56-1.87,3.2-.6,6.88-.17,8.83-.11,1,0,1.89-.87,2.86-1,1.87-.16,3.52-.23,5.36-.49s3.88-1.15,5.84-.56c2-.31,2.7-2.17,4.67-2.55,2.27,1.28,5-1.11,6.75-1.37.74-.11,1.66.57,2.5.45,2.73-.41,5.7-1.77,7.65-2.17.72-.15,1.74.56,2.51.43,7.17-1.23,14.81-3,22.27-3.79,5.49-.6,10.68-.65,15.61-1.74.06,0,.83.71,1.54.52,1.56-.42,3.63-1.62,5.22-2,2.23-.52,4.52.26,6.27-1.41,2.68-.46,5.26.4,7.41-.15.93-.24,1.34-1,2.37-1s1.89.8,3.1,1a9.34,9.34,0,0,0,5.87-.68c6.31-2.6,18-.77,25.07-2.18,1-.19,1.54-.17,2.45-.28,2.14-.26,4.3-1.22,6.3-1.41,4.48-.43,8.87.57,12.93-.06,2.41-.37,4.94-1.8,7.22-2.19a50.45,50.45,0,0,1,9.92-.37c1-.93,2.67-1,3.23-2.43,1.16-.31,1.38,1.26,2.61,1.11a13.5,13.5,0,0,1,.84-1.48,6.05,6.05,0,0,1,2-.21c2.82-.38,6.11.31,8.39-.86,5.09-2.59,11-3.71,16.86-4.69s11.75-1.87,16.78-4.13c5.72-1.16,15.35-2.19,20.58-5.91,5.22,1.18,10.52-1.41,15.92-2.57,3.07-.64,6.27-.59,9.48-1.37A24.09,24.09,0,0,0,563,74.06c.25,0,.32.83,1.05.63,1.54-.42,2.83-1.36,4.45-1.65a43.9,43.9,0,0,1,7.05-.42c2.76,0,5.49.55,8.11.24,5.3-.67,10.24-5.23,15.57-3.45,2-1.61,3.72-1.23,5.58-.23,3.74-2.53,7.89-2.34,11.63-3.08,2.12-.42,4-1.27,6.09-1.55s2.68.63,4.08-.1c1.72-.89,8.15-.56,9.68-.77a9.86,9.86,0,0,0,2-.71c.36-.1.6.68.51.69,3.22-.41,8.62-1.26,9.69-2.15,1.56-1.32,3.69-.08,5.08,0,6.23.41,10-.76,14.75-2.64a2.64,2.64,0,0,1,2.53.71c1.26.92,1.63-2.72,2-.67,2.28-1,3,.06,5.56.1.14-1.39.9-1.54,1.62-1.35a3.93,3.93,0,0,1,1,.43c.26.16.45.29.45.29.72.18,1.11-.69,1.53-.66,2.15.21,4.1,1.72,6,1.51,1.56-.16,2.77-1.18,4.09-2,3.78-1.38,9.35-1.75,14.66-2.35C708.24,52.09,705.84,53.14,704.85,52.77Zm-402.3,89.5c18.33-.88,40-2.28,59.69-3.45-19.09,4-38.91,4.85-56.61,4.56C304.92,143.36,302.76,144.76,302.55,142.27Zm144.57-15.9c1.88,1.58-2.33,1.94,0,0Zm23,15.55,1-.11.15,1.37-1,.11Zm-638.24,54.22,1,.12-.17,1.37-1-.12Z"/><path class="cls-1" d="M996.46,61.18c.91,2.23-1.93,3.11-2.55,1.7-.6,1.8-2.35,1.27-3.39,2.51-.58.68-2.18,1-3.5,1.82-.69.46-1.12,1.38-1.67,1.6-2.82,1.11-6.39,1.14-9.54,2.58a18.82,18.82,0,0,1-2.73,1,12.18,12.18,0,0,0-2.8.26,67.07,67.07,0,0,1-7.35,2.06,98.62,98.62,0,0,1-13.65.44c-.76,0-1.51.8-2.31.83-2.31.09-6-.67-9.47-.1-.7.11-1.59,1.53-2.35.15-3.06,2.81-7.65,4.38-12.53,5.31a86.39,86.39,0,0,1-14.34,1.32c-2.07,1.62-6.55,2.64-10.51,2.92-.94.07-2.27.83-2.87.73s-1.12-3.67-1.45-.67c-3.36,1.22-7.18.37-11.07.8-2.51.3-5.19,1.86-7.74,2.05-1.4.1-2.95-.71-4.35-.7-1.92,0-3.63,1-5.82,1.37a10.66,10.66,0,0,0-2.42,0,27,27,0,0,1-7.3.56c-1.38-.06-2.71-.82-3.88-.76s-2.68,1.18-3.91,1.31c-1.57.16-2.85-.21-4.38-.08-4,.38-8,1.23-13.2,1A68.56,68.56,0,0,0,820.6,91c-3.83.33-7.46-.25-11.25-.37-1.67,0-3.94,2.1-5.39-.19-5.16,1-10.59.69-16.23.78-1.93,0-3.87.41-5.93.45-.41,0-.74-.85-1.45-.75C776.43,91.44,769.44,92,765,93c-3.8.85-7.25,1.47-10.81-1.13-4.07,1.18-9.74.45-13.37.85-1.46.16-2.53.77-4-.15-1.67.63-3.44,1.11-5,1.88A52.67,52.67,0,0,0,721,93.57c-3.62.07-7.25.41-10.92.83-3.19.36-6.79,1.28-9.94,1.07-2.12-.15-4.25-1.28-6.41-1.55-4.16-.52-8.48.17-12.91.41a81.63,81.63,0,0,1-8.94.52c-1.16-.06-2.83-1.78-4.46-.73-.16.1-.41,1.34-.51,1.38-2.06.76-5.6.37-8,.62-3.42.37-6.61,1.18-9.93,1.32-2.87.14-5.61-1.16-9.44.08-.88.29-1.87,1.25-3,1.41-1.46.2-3.12-1.54-4.47,0-2.25-2.19-6.53-1.5-8-4.72-.83-4.66.88-6.65-.19-9.67,2.18-1.74,5.08-2.76,7.52-.79,4.16-2.1,8.67-.6,13.05-.8,5.21-.27,9.49-1,15.55-1.35.76,0,.92-.73,1.51-.68.42,0,.48.74,1,.7,5.26-.42,12.68-1.69,19.55-1.8a51,51,0,0,1,6,.13c1.5.14,3.46.81,5,.8l18.44-.15c.41,0,.46.79,1,.72a5.23,5.23,0,0,1,2.51-.61,34.52,34.52,0,0,0,7.46.24c.54-.06,1.07-.67,2-.62a2.29,2.29,0,0,1,1,.39,4.08,4.08,0,0,1,.49.36c1.4-.06,2.75-1.25,4-1.23s2.57.9,3.94.84c1.83-.09,3.65-1.09,5.5-1.17s3.94.83,5.92.92a12.26,12.26,0,0,0,2,.08c-.1,0,.28-1.14.52-.67.54,1,8.31.49,11.86-.21.76-.15,1.59-1.14,2.52-1.28a27.52,27.52,0,0,1,3.45.14c.11,0,.53-.78,1-.65,1.14.3,4.2-.31,6.42-.43,4.09-.22,8.25-.11,12.29-.19,1.82,0,3.55.08,5.4.22,1.37.11,3,.84,4.38.86,2.4,0,4.91-1.09,7.38-1.11s5.12,1,7.79,1c4.4,0,8.88-.89,13.19-1,.18,0,1.13.85,1.92.74s.91-.67,1.48-.65c2.5.11,5.17,1.51,7.73,1.6,3.48.13,6.91-.24,10.66.24,1.07.14,2.59-1.17,3.37.75,4-1.6,8-1.78,13.08-1.84,2.37,0,10.13-1.57,13.94-1.33a25.63,25.63,0,0,0,2.88,0c3.28-.2,6.38-2.05,9.11,0,2.16-1.6,8.43-2.74,10.5-.16,4.67-2.71,10.67-.68,15.6-3.82,4.83.09,11-1.5,17.91-1.38,4.65,0,9.34,1.48,13-2.2,2.26-.33,2.58-.83,5.56-1,.82-.44,1.59-1.18,2.4-1.66a2.26,2.26,0,0,1,2.6-.11c2.67-2.45,6.67-1.14,11-2.39,1.23-.36,2.59-1.52,4-1.75s3.12.41,4.67.26c1.28-.16,2.48-1.07,3.57-1.14,3.46-.23,6.5,1.81,8.11-1.71C989,61.87,993.4,60.12,996.46,61.18Z"/><path class="cls-1" d="M964.72,159.11c-1.25-.1-1.16-2.3-2.77-1.83-1.29,0-2.51.13-3.06.94-1.85-1.91-4-.33-5.23-.36-2.64-.05-5.8,0-8.33-.17a42.75,42.75,0,0,0-5.18.32c-1.74.07-3.68-1.05-5.24-1.06-1.76,0-3.4.82-5.11.88-4.73.18-11.69-.52-18.54,0a.35.35,0,0,0,0,.69c1.56.16,4-.92,4.16,1.23-1.49.85-3.55-.65-4.66-.52-.87.1-1.71,1.6-2,.73-1.47-.11-2.8,0-2.51,2.11,1.78-1.07,3.09,1.11,4.65,1.31,1.06.11,2.68-1,4.11-.84,2,.26,4.35-.74,5.73,1.17-1.06.45-3.42-.73-3.6.83,3.31,1.21,9.78.17,13.49.18,2.81,0,4.39.68,4.63-.86,4,2.77,10.86-.14,14.72,1.16.82-.11.29-1.78,1.47-1.48,1.23-.35-.08,3.16,1.71,2,2.69-.69,5.82-.53,9-.65a26.32,26.32,0,0,0,9.26-1.51c2,.93,5.38,2.73,6.89.06-1-.21-3.08,1.22-2.76-1.13,3.53-.07,7.54-1,11.46-1.81-1.12-4-6.94-.44-10.16-1.08-1.08-.37-1.4-2-2.35-2.56C971.66,158.57,966.85,155.78,964.72,159.11Zm-42.5,3.17,1,0,.05,1.38-1,0Zm41.21.42c-.14,1.15-3.88,1.51-4.19.35C959.15,159.94,962.7,162.24,963.43,162.7Z"/><path class="cls-2" d="M-61.08,148.43S2.36,156,59.85,168.81,240.43,167,281.52,148.43,385.91,131,438.66,121.81s94.44-7.84,142.66-9.49S717,92.76,759.57,102.67s71.4,3.52,96.34,0,116.21-78.06,177.6-35.85,33.42,289.4,44.93,287.48-54.4,6.37-75.5.61S-82.26,359.12-76.5,349.53-61.08,148.43-61.08,148.43Z"/></svg>