<svg xmlns="http://www.w3.org/2000/svg" viewBox="0 0 998.11 261"><defs><style>.cls-1,.cls-2{fill:#fff;}.cls-1{fill-rule:evenodd;}</style></defs><title>white-border-page-about-and-404</title><g id="borders"><path class="cls-1" d="M968,99.41c-.34.89-1.37.3-2.14.26C966.29,98.13,967.49,98.39,968,99.41Z"/><path class="cls-1" d="M963,106.14l1.5.29-.4,2a.77.77,0,0,0-1.13.47C962.35,108.6,962.9,107.16,963,106.14Z"/><path class="cls-1" d="M851.15,196.73c-.27.91-1.26.4-2,.42C849.51,195.59,850.64,195.76,851.15,196.73Z"/><path class="cls-1" d="M864.86,202.12c-.47-1-2.66-1.58-2.93.29.72,1.33,3,.93,4.62,1.34.94.14.33,1.94,1.69,1.63.14-1.49,1.72-.08,2.46-.36a13.56,13.56,0,0,0,8.25,2.68c2,0,4.67-.53,5.59-1.89-1.36-1-1.06-.23-2.82-.45-1.6-5.21-8.15-4-11.36-4.56-2.72-.49-5.58-2.72-8.51-1.18C862.47,200.86,865.36,199.65,864.86,202.12Zm15.08,2.25c-.43,2.1-2.51.77-4,.76C876.6,203.41,879,202.76,879.94,204.36Z"/><path class="cls-1" d="M862.48,205.26c.81-1.39,3.73-.24,3.1,1.82-1.29-.8-1.36-.81-2.83-.39C862.94,205.91,862.82,205.47,862.48,205.26Z"/><path class="cls-1" d="M962.19,99.68c-4.48-1.37-7,1.37-11.44,0-1-.58-1,1.16-1.76,1.08a62.06,62.06,0,0,1-18.81-2c-1.68.61-3.62.64-5.36,1.16-1.12.59-1.9-1-2.9-1.16s-2.19,1-3.24.88-2-1.16-2.9-1.16c-2.49,0-5.34,1-7.86.83-1.44-.12-3-1.19-4.4-1.4-1.66-.25-3.35.58-5.23.56-3.69,0-7.13-.53-10.72-.3-3,.21-5.53.47-8.81.86-2.15.25-5.2-.58-8.61-.5-1.1,0-1.9.75-3.19.95-4.76.72-9.86-2.13-14.36.79-9.66-.11-18.92-.42-28.56-2.75-1.38.58-2.64,1.37-4.65.84-1.89.85,0-2.36-1.27-2.23-1.76-.9-5-.24-4.7-3.32,1.93-1.55,5.79.33,6.89-2.67,7.69-.74,15,.37,22.31.58,2.83.08,5.52-.78,8.29-1.09,1.49-.18,3.11.11,4.61-.08,1.31-.16,2.49-.87,3.7-.88s1.19.79,1.92,1c1.81.42,6.81-.09,8.23-.25,3.58-.4,6.33-.79,10.45-1.33,2.24-.29,4.64-1,6.85-1.13s4.2.73,6.55,1c5.72.56,12,.53,19,.95,1,.05,2-.32,3.14-.19.86.09,2,1.13,2.91,1.17,1.52.07,3.25-.74,4.77-.63,1.74.12,3.56.29,5.37.47l5.34.67c.73.09,1.63,1.07,2.4,1.14,1.28.11,5.06-.31,7.3-.07.9.1,1.44,1,2.4,1.14,1.67.23,3-.19,5,.92a6,6,0,0,0,1.51.28c.37.14.69-.76,1.14-.49.24.15.85,2.28,2.14,2.5C959.23,96.92,962.56,95.5,962.19,99.68Z"/><path class="cls-1" d="M731.7,88.22a10.76,10.76,0,0,0-5.44-1.06c-.94.13-1.61-.75-2-.82a48.73,48.73,0,0,0-14-.94,41.46,41.46,0,0,1-8.2.15c-2.74-.14-5.5-.39-8.32-.43a82,82,0,0,0-8.52.25c-.93.11-1.48-.78-2-.79-2.21-.06-5,.2-7.52.3-3,.12-5.87-.06-7.51.3-.44.1-.44-.71-.47-.71-2.94-.36-3.94,1-6,1.12a2.67,2.67,0,0,0-.49-.36,2.34,2.34,0,0,0-1-.39c-.9-.05-1.54.6-2,.61-3.26,0-6.38-.65-9.46-.36-2.47.22-5.14,1.59-7.54,1.78-1.53.12-2-.76-2.46-.78-.32,0-.6.67-.52.67-4.54-.06-10-.4-12.93-.46-.75,0-1,.55-1.51.65a34.76,34.76,0,0,1-7.47.49c-3,0-7,.88-10.47,1.11-1,.07-2-.16-3-.08-8.7.64-21.91.28-31.78,1.47-5,.61-10,1.3-14.83,2s-9.65,1.36-14.41,1.87c-5.47.6-10.27,1.6-14.83,2-3.11.27-6.23.23-9.36.22a78,78,0,0,0-9.4.46c-2,.26-3.95,1.05-5.91,1.4A111.6,111.6,0,0,1,485.18,100c-8.74.28-17.54.38-26.59.27-16.81-.24-33.94.8-51.16.12-12.34-.4-25.08-.8-36.84.15-11.19,1-25.47.82-38.72,1.73-8.59.61-17.09.53-25.44,1.44-2.85.31-5.49,1.35-8.28,1.62-11.79,1.2-23.77.75-35.19,1.78-3.68.33-7.45,1.37-11.19,1.73s-7.51-.45-11.26-.33c-4,.13-7.81.85-11.7,1.06a138.62,138.62,0,0,0-15.09,1.85c-3.24.56-5.84.21-8.3.26-5,.09-10.16,1.48-15.09,1.85-1.53.11-3-.76-4.41-.56s-2.8,1.28-4.35,1.51c0,0-.32-.19-.71-.36a2.47,2.47,0,0,0-1.26-.27c-4.13.64-8.34.36-12.17,1-1.78.32-3.07.65-4.86.83s-4.11.09-4.39.13c-1.84.22-3.21,1.32-4.84,1.52-.92.11-1.46-.6-2-.63-.74,0-1.7.7-2.42.75-5.19.38-11.09.3-16.55,1.11-1.34.2-2.53,1.21-3.86,1.48-1.67.34-3.25-.12-4.87.13-3,.47-5.82,1.17-8.74,1.61-6,.87-11.64,1.77-17.49,2.44L80.34,126.1c-5.68.63-11.32,1.31-16.93,2.22-9.7,2.63-19.55,3.89-29.17,5.24-1.39.2-2.57-.2-3.9,0-.93.16-1.9,1.21-2.91,1.41-2.54.5-5.25.21-7.79.76a64.22,64.22,0,0,0-6.81,2.13c-1.06.36-2.42.32-3.41.72-.17.07-.72,1.28-1,1.39-.74.33-1.68-.21-2.44,0a197.59,197.59,0,0,1-27.81,5.56c-9.48,1.36-18.81,3.08-27.39,4.7-4.22,1.78-9.14,2.28-13.73,3.35A49.72,49.72,0,0,1-67.84,155c-2.46.27-5.27-.33-7.84-.14s-4.92,1.08-7.37,1.25c-7.94.52-16-.18-23.74-.78s-15.15-1-21.84.39c-2.18.44-1.94-2.29-3.34-2.85-1.32,2-3.42-1-4.43.56-1.8,1.15-2.57,3.85-4.11,5.4.85,2.33-.6,3.85.81,4.85-.49,3.05.51,4.15.25,6.9,3,.65,3.92,4.1,7.25,4.35,1.88-3.94,3.47-.35,4.93.14.94.32,1.8,0,3,.09,4.1.35,8.22-1.11,12.36-1s8.3.51,12.31,1c.72.09,1.56,1.36,2.43,1.42s1.95-.77,3-.64c2.18.29,4.31,1.32,6.38,1.49.72.06,1.05-.64,1.49-.66.68,0,1.08.73,1.47.71,2.79-.14,5.18-.39,6.91-.57,5.24-.55,12.08-1.73,16.78-2.53.86-.14,1.55.76,2,.7,1-.14,2-1.17,3-1.36,1.45-.29,3,.14,4.43,0a92.7,92.7,0,0,0,14.28-2c2.37-.55,4.52-1.6,6.89-2,1-.18,1.62.68,2.46.69a21.25,21.25,0,0,0,2.46-.69c1.76-.26,1.81-1,2.95-.69.76.2,1.2-.64,1.47-.69,3.35-.67,5.94-.78,7.85-2.08,2.29-1.56,5.73-1.81,8.83-2.08A27.72,27.72,0,0,1-.73,162.1c.77-.25,1.66.15,2.45,0,.94-.18,1.19-1.18,2-1.38,1.55-.4,3.29-.3,4.9-.72s3.27-1.15,4.89-1.42a25.38,25.38,0,0,1,6.86-.07c.64.06,1.66-.7,2.44-.71,1.62,0,3.09.72,4.9.64s3.28-.79,4.89-.73c3.14.1,6.21,1.57,9.31.6,2,1.88,4.53.52,6.86.58s4.74.5,6.87.58c1.85.07,3.88.51,5.89.59,2.46.11,5.49-.93,7.86,1.25,1.07-1.46,2.27.55,3.41-1.43a27.33,27.33,0,0,0,7.36.57c.19,0,.6-1.1,1.45-.72.33.15.4,1.33,1,1.36,0,0,.15-.33.36-.67s.45-.69.6-.73c.82-.2,1.28.61,1.5,1.35-2.71,1-5.44,1.47-8.29,2.23-.81.22-1.12,1.31-1.45,1.4-.61.17-1-.94-2-.66-1.48.41-2.88,1.07-4.39,1.45-11.76,3-24.15,5.24-35.22,8.09-2.94.77-5.89,1.39-8.82,2.15-1.29.33-2.73,1.17-3.92,1.42-1.89.38-3.56-.38-5.41.05-.85.2-1.6,1.05-2.45,1.4a27.77,27.77,0,0,1-2.95.71c-4.73,1.37-11.66,2-18.2,2.82-.75.8-.77.13-1.48,0a6.72,6.72,0,0,0-2,0c-5.54.23-10.09.53-16.26.71-7.41.2-15.11-.07-22.2.56-6.67.56-13.52,2.22-20.27,2.58-.94,0-1.08-.71-2-.73s-1.72.56-2.48.65a121.53,121.53,0,0,1-19,.41,161.8,161.8,0,0,1-17.08-1.8,43.34,43.34,0,0,1-4.93-.83c-.75-.2-1.06-1.1-1.94-1.43s-2.18.21-3-.09c-3-1.1-5.64-3.78-8.79-3.7-.33,1.91-2,1.87-3.05,2.67-.46.17-1.74,2.52-.58,2.74-.48,1.2-1.26,2-1.6,3.4-1.61,2.35.36,5.66-.29,9-1.53,3.13-1.19,5.87-1.29,8.92-.09,2.78-.57,2.87-.16,4.82a3,3,0,0,1,0,1.38c.63,2.52,2,3.81,3.32,5.61s2.5,4.16,4.35,5c4.81-1.09,9.86.12,13.5,1.08,1.06.28,2.51.48,3.49.79,2.39.76,3.67,2.39,6,2.24a4.8,4.8,0,0,0,2.52-.64c.19-.12.29-1.24.53-1.37a16.67,16.67,0,0,1,4-1.3c5.63-1.61,11.16.6,16.52-1.78,1.65,2.29,5.4,1.79,8,2.89,2,.22,1.57-2.92,3.53-2.69,1.61-.51,3.32-.89,4.51-2,6.15,1,13-1.78,19.43-1.23,3,.25,7.23-.57,10.45.08,3,.59,5.59,2.93,8.45,2.79,1.64-.08,3.18-2.29,4-2.08,1.37.38,3.41-1.15,5-1.39.72-.11,1.71.76,2.48.69,2.72-.26,5.86-.53,8.94-.71,6.06-.35,12-2.4,17.37-.06,3.67,1.62,6.14-1.49,9.4-2.15,2-.42,4.53-.47,6.93-.76,5.1-.61,9.47-.09,13.86-.13,2.27,0,4.37-1,6.42-.77,2.31.21,4.7,1.67,6.95,2,1,.12,2.45.74,3.47.63s1.93-1.37,2.94-1.43c1.24-.08,2.2.72,3.47.63s2.6-.69,3.94-.75c2.22-.1,4.61.71,6.93.58,1.19-.07,2.05-1.31,2.94-1.43,1.28-.17,2.71.51,4,.62,2.26.19,4.59.92,6.93,1.23,1.29.16,2.72-.23,3.94-.09s2.37,1.26,3.48,1.3,2.59-.66,3.93-.78,3.14,0,4.44-.1c2.89-.3,5.67-1.33,8.35-1.56,1.16-.1,2.3.59,3.47.62,1.35,0,2.65-.73,3.92-.78,2.93-.13,5.78.37,8.36-.22,2-.46,4.17-2.6,5.34-2.9a2.17,2.17,0,0,1,1.24.25,8,8,0,0,1,.74.38c3.15-.9,5.47-2.52,8.29-3,.48-.08.88.66,1,.67.5,0,.56-.68,1-.72,2.42-.18,4.22,0,4.92-.13,1-.25,1.88-.58,2.93-.76a245.1,245.1,0,0,1,34.76-3.76c7.25-.21,16.86-1.21,22.51-1.38.14,0,.72.76,1.49.64,1.51-.21,1.56-1.34,1.92-1.44.79-.22,2.09.69,3,.6,1.15-.13,2.2-.69,2.92-.78s.7.73,1.49.64,1.37-.59,2.43-.76c2.46-.39,5-1.58,7.78-1.62a14.79,14.79,0,0,1,5.91,1.19c1.65-.71,3-2.25,4.87-.85,1.5-.9,3.2-1.93,4.86-.84,3.72.64,7.86-.91,11.71-1.06,5.58-.22,11.27,0,17.08-.53,7.69-.72,18.64-2.18,23.88-1.43.49.07.56-.65,1-.72,8-1.36,15.61.08,21.45.06.13,0,1.22-.21,2.27-.41l2.09-.41c.1,0,.46.62,1,.66,3.54.27,5.67-.66,8.24-1.62.48,2,.75.75,2,.64a314.22,314.22,0,0,1,41.78-1.78c10.16.32,20.3-.37,32,0,2.41.08,4.28-.83,5.8-.79,1.71,0,3.65,1.34,5.36,1.29,2.11-.07,4.23-1.35,6.27-1.49s4.18.44,6.31.58c2.33.15,5,.57,7.28.56,2.15,0,4.16-.82,6.28-.78,9.63.16,19.17,1.85,29,1.05.29,2.22,2,.64,2.91.66,3.88.08,8.17.36,12.07.64,2.06-2.71,4.81-1.25,7.23-1.4,4.94-.31,10.15-.48,15.48-.57s10.74,0,16.1.08c10.72.2,21.22.47,30.11.72,1.81,0,4.59-.62,5.78-.6,1.89,0,2.76,1.48,4.31,1.44,2.36-.07,4.87-1.68,6.72.79,5.4-1.76,10.31,1.47,14.44-1.12,4.54,2.08,9.47.29,14.39.38,2.34,0,4.84.9,7.18.88,3,0,6.49-.29,9.73-.53s6.19-.38,8.05-.3c1,0,2.56,1.22,3.81.84.63-.19.89-1.3,1.49-1.32a3.46,3.46,0,0,0,1.41.75c.77.08,1.74-.62,1.94-.62,1.48,0,2.58.83,3.8.84,2.48,0,4.78-.92,7.24-1.1,2.78-.2,5.57-.16,8.18-.38,5.56-.39,10.33-.93,14.92-1.3,3.24-.26,7.43.39,9.09.47.18,0,.31-.16.39-.33a2.05,2.05,0,0,0,.12-.34,118.84,118.84,0,0,1,14-.62s.72.77,1.39.78c.9,0,1.1-.52,2-.56a44.16,44.16,0,0,1,7.64.51c1.2.12,2.75-1.24,3.3.91,1.42.13,2.56-1.86,3.39-.46a141.16,141.16,0,0,1,17.48.74,102.26,102.26,0,0,0,17.44.53A10.47,10.47,0,0,0,754,193c2.34-.7,4.43.3,6.67.55,3.08.37,5.62.21,8.1.69.9.18,1.8.88,2.79,1,1.7.16,5.13-.75,5.83-.8.49,0,.5.77.88.78,1,0,1.94.25,2.85.29.73,0,3.13.33,3.33.33,5.09.33,10.38.42,15.75.89,7.42.69,15.88,1.57,22.27,2.61,2.34.39,5.22,1.59,7.49,1.58,1.88,0,3.75-1.35,5.47-1.43,1.3-.06,2.55,1,3.7,1.16.88.12,1.13-.43,2-.42s1.09.8,1.89.26A20.39,20.39,0,0,1,852,201c.48-2.64-2-2.05-3-2.51-.64-.28-1.08-1.51-1.23-1.56-.89-.26-1.32,2.25-2.08,1.1.45-2-1.35-1.63-2.09-2.38-2-1.3-1.72,1.8-3.49.9-5.19-3.53-11.27-4-17.23-4.86,0,0-.13.71-.56.63-5.78-1.1-13.21-2.36-19.41-3-5.88-.52-11.83-1.27-17.65-1.77-1.49-.13-2.73-.4-4.29-.43-5-.08-9.8-1.41-14.79-1.45-1.62,0-3.34.2-4.85.29a17.58,17.58,0,0,1-3.83-.32c-1.61-.23-3-.88-4.73-1.08-.71-.09-1.71.62-2.45.49-1.12-.21-1.37-.88-2.34-.89-2.95,0-5.82,1.11-8.72.66-2-.31-4.07-1.48-6.11-1.89-.91-.18-1.39.57-2.45.52-.78,0-1.6-.84-2.35-.85-1.76,0-3.6.35-5.33.34-3.26,0-6.93.46-10.12,0-1.85-.26-3.78-1.58-5.67-1.76-4.29-.38-9,2.83-13-.82-3.58.37-6.49-.05-9.65.19-7.32.55-16.47,1.88-23.22,2.24-2.91.19-4.58,1-6.31,1.14-2.41.23-4.94-.62-7.21-.28,0,0-.44,1.29-.54,1.36-1.4.93-4.24.41-5.31.49-3.48.26-6.71-1.1-9.1-1-.86,0-2.07,1.13-2.93,1.27-1.43.23-2.65-.25-3.84-.15-6.23.61-13.51,1.3-20.21-.53a11.09,11.09,0,0,0-3.35-.77,19.94,19.94,0,0,0-6.78,1.89c-.45.23-.89-.72-.95-.71-4.34.26-9.62.51-13.5.43-1.34,0-2.91-.69-4.33-.75s-2.5,0-3.86-.06a47.74,47.74,0,0,1-5.3-.08c-1.94-.26-3.89-1.43-5.77-1.46s-3.65,1.14-5.32,1.3c-.74.07-1.16-.64-1.44-.71-.79-.19-1.75.67-1.94.67-2.07-.13-7.37-.72-9.17-.74-.16,0-1.07.82-1.94.68-2.18-.36-4.46-1.78-6.75-2.1-3.3-.47-7.06-.55-9.18-.73-.88-.08-2,.72-2.9.67-2-.1-3.86-.6-5.8-.71-.88,0-2.12.75-2.9.7-1-.06-1.44-1.29-2.42-1.37-7.73-.64-16.69.51-21.78-.61a8.05,8.05,0,0,0-2.42,0c-12.32-1.3-25-1.94-37.36-3.07-3.82-.35-7.61-1.92-11.2-1.9-2,0-5.2,1.32-6.29,1.49-.88.13-1.6-.68-2.44-.65-9.66.43-18.62.65-27.68,1.21-6.28.37-12.27-.43-18.5-.27-13.09.31-28.18.54-40.87,1.74a63.27,63.27,0,0,1-6.82.18c-1.11,0-2.37,0-3.41.1-14.08,1.25-28.24,1.51-42.4,2-7.47.23-15,1.1-22.43,1.39-20.12.78-38.73.73-57.65,2.49-1.8.17-3.5.86-5.36.85-1.63,0-3.62-1.27-5.42-1.21a20.86,20.86,0,0,0-2.43.76,50.19,50.19,0,0,1-8.3.94c-4,.31-8.06.19-12.25.35-2.32.09-6.72,1.31-8.78,1.64-.6.1-.71-.71-1.49-.65-2.49.19-6.94,1.37-9.27,1.65-.61.07-.7-.72-1.49-.65-6.43.57-14.29,1.78-20.06,2.59-1.19.17-1.83-.74-3-.61-1.83.21-3.43,1.22-5.36,1.52-.54.08-.8-.62-1-.67-.73-.15-1,.69-1.46.73-5.81.46-10.23,2.25-15.18,2.43a49.78,49.78,0,0,1-6.9-.54c-2.34-.27-4.57-1-6.91-1.23-7.71-.68-17.52.09-23.13-.23-4-.21-8.83.89-13.31-.47,4.05-2.29,8.8-2.06,13.24-3a108.15,108.15,0,0,0,14.19-3.71c1-.35,1.93-1.1,2.92-1.44,4-1.4,7.3-2.09,10.74-3,2.48-.64,4.9-.92,7.33-1.54,2.71-.69,4.84-1.62,6.35-1.52a188.49,188.49,0,0,1,23.42-4.73c8.2-1.11,16.53-3,24.88-4.12.5-.07.6.67,1,.66a5.49,5.49,0,0,1,1.45-.73,82.87,82.87,0,0,1,9.26-1.65c8.17-.85,16.85-.52,25.4-2.13.87-.16,1.5-1.18,2.4-1.45s2.45.05,3.42-.11a42.79,42.79,0,0,1,11.25-.35c2.76.28,8,.12,9.8.39.62.09,2,.61,2.47.61,1.48,0,5-1.31,6.31-1.58.49-.1.6.69,1,.66,2.89-.23,5.88-1.1,8.77-1,3.72.17,6.92,2.65,10.26-.32,1.06,1.15,2.21,1.16,3.46,1.27.84.08,1.68-.73,1.93-.75.92-.08,1.1.63,2,.63,2.91,0,6.25-.61,9.28-.29,2.52.27,5,1.61,7.39,1.84s5.26-.33,7.81-.24c3.21.1,5.47,1.1,7.36,1.15,1,0,2.48-.72,3.4-.79,5.62-.47,10.45,1.71,14.7,1.64,1.19,0,2.14-.9,3.39-.79,0,0,.7,1.24,1,1.35,1.81.64,2-.88,3.39-.79.68,0,.95.6,2,.63,4,.11,8.17-.38,11.73.34,1.36.28,2,1.19,3.45,1.28,1.71.1,3-.75,4.85-.82s3.62.55,5.38.55c10.23,0,20.77-.83,28.28-.05a16.67,16.67,0,0,0,2.92-.07,34.48,34.48,0,0,0,7.27-1.54c.74-.25,1.17,0,1.95,0-.11,0,.23.64.5.68.49.07.56-.68,1-.71s1.25.06,1.95,0c1.85-.26,3.11,0,4.87-.11,14.11-.94,27.71-3.56,41.32-3.55,3.22,0,6.56.58,9.74.54,3.33-.06,6.47-1.4,9.71-1.49s10.57,1.23,14.61,1.22c1.93,0,3.49-.79,5.34-.75,6.79.14,13.33,1.57,19.94,1.28,7.3-.31,13.66-.36,20.41-.07,4.94.24,9.73.1,14.56.07,1.35,0,6.27.72,7.28.72,2.55,0,10.77-1.32,12.63-1.32.26,0,.62.68.48.69,2.46-.19,4.85-1.22,7.29-1.28,2.21-.05,4.39.83,6.78.79,9.17-.1,18.78-.05,28.17-1.59,6.29-.69,14.78,1.19,22.81-.09,3.67-.58,7.42-2.54,11.17-.36,2.14-2.18,4.88-.41,7.78-.39s6.63-1.13,9.75-1c3.49.14,6.53,1.3,9.67,1.06,1.83-.14,3.51-1,5.39-1.17.73-.06,1.18.7,1.42.76.88.2,1.53-.64,2-.59,1.43.16,2.84.8,4.33.92s2.59-.64,3.91-.49c.76.09,2.08,1.51,2.35,1.5s.4-.66,1-.64c3.75.13,8-.84,11.7-.77,1.37,0,2.94,1,4.32.92,1-.07,2-1,3-1.22,5.77-1.17,11.51,1.25,17.56-.93,2.33,1.76,5.16,1.08,7.7,1.2.35,0,2.59.23,3.87.26,5.48.12,8.84.73,12.58.89,7.65.28,12.69,1.1,18.9.88a25.88,25.88,0,0,1,3.87.32c4.63.18,10,.7,13.11.45,1.3-.12,2.17-.77,3.44-.35,2.23,0,2.4-.5,4.34.44a13.63,13.63,0,0,1,9.93-1.78c5.14.86,15.93.37,22.7,2.42,2.34.68,4.59,3.21,6.91,3.6,1.66.28,3.84-.67,5.46-.74a47.56,47.56,0,0,1,5.87,0c2.87.23,5.39,1.46,8.11,1.66,2.16.14,4.53-.56,6.91-.46,2.75.13,5.56,1,8.65,1.2.91-1.15,1.6.88,2.31,1,1.09.2,2.28-.39,3.46-.22,2.42.36,4.66.78,7.21,1l7.68.65c2.59.23,5.18.57,7.79,1,4.54.68,9.19,1.48,13.9,2.23,5,.79,10.14,1.89,14.61.95,1.5.17,1,2.38,3.11,2,9.23-1.41,20,2.54,27.25,2.19a29.2,29.2,0,0,1,4.44.11c.79.08,1.6,1.08,2.26,1.13,1.77.11,3.34-.62,5-.37,1.54.23,3.15,1.35,4.63,1.66.91.19,1.63-.25,2.52-.18,1.08.08,1.81,1.12,2.72,1.27,1.84.3,3.73-.66,5.52-.26s3.15,2.07,5,2.43,3.91.32,5.86.51c4.62.41,8.54,1,11.69,1.21,2.06.13,4.08-.29,6,0,1.72.24,3.17,1.57,5.07,1.88s4.62-.33,6.64-.58,5.31,1.11,6.2-2.81c.95-1.81-.81-2.54-1.74-3.23a18.76,18.76,0,0,0-2.23-1.22,35.51,35.51,0,0,0-11.78-3.45c-2.07-.21-4,.26-6,0-8.53-1.14-17.42-4.77-24.9-5.36-3.18-.23-7,2.16-8.77-1.11-2.43,1.47-7.29.37-10.82-.82a15,15,0,0,1-4.55-2.23A86.92,86.92,0,0,1,928.51,167l-8.78-1.69c-1.47-.28-2.93-.55-4.4-.79s-2.95-.4-4.42-.56c-11.45-1.22-22.34-3.35-32.47-4.49-8.35-.8-16.21-1.82-24-3l-11.65-1.76-11.86-1.63c-2.62-.35-5.45,0-8.33-.3s-5.82-.52-8.74-1c-.53-1.31-1.36.46-2.5.39s-2.48-1-3.81-1.14c-2.59-.3-5.25.08-6.74-1.37-3.28,1.24-8.08-.22-11.4.93-.92-.39,1-1.88-1.32-1.52-.72.88-2.18.47-3.47.34-1-1.65-3.51-1.46-5.35-.54-7.6-1.68-15.59-1.51-23.36-2.07l-16.19-1.06-4.24-.27-4.29-.21-8.66-.46c-11.58-.64-23.14-1.58-33.4-2.63a61.47,61.47,0,0,0-6.83-.36c-6.57,0-13.09.05-19.6,0s-13-.08-19.5-.37c-1.41-.07-2.57-.16-3.9-.15l-12.22.22c-1,0-1.59-.76-2.42-.75-6,.07-12.22-.18-18.08.22-2.64.18-5.14,1-7.84,1.18-.08,0-.71-.81-1.45-.73-7.61.8-14.9,1-22,1.66-20.9,1.91-44,.32-61.5.9-1.58.06-2.82-.68-4.39-.67-2.79,0-5.4.79-8.3.72a63.56,63.56,0,0,1-6.35-.66c-.77-.11-1.79.7-2,.69-4.32-.23-8.7-.48-12.69-.63-.94,0-3.39,1.26-3.92-1.33,6.65.53,13.12-.7,18.55-1.49,4.12-.59,10.94-.17,15.14-.06,1.23,0,2.58-.68,3.91-.71,5.86-.13,11.8.21,17.1,0,2.29-.06,5,.31,6.85-1.34,8.52.69,18.47-.43,27.88-1.82,1.39-.21,4.23-.13,5.39-.61.17-.07.75-1.33,1-1.36,1.06-.13,2.25.72,3.41.74,3.84.06,6.64-.05,9.78.15,2.32.15,4.81-.84,6.83.8,3-.42,6.78-1.39,10.81-1.79,1.26-.12,3.76-.59,3.93-.58.46,0,.6.75,1,.71,1.86-.2,3.51-1.09,5.42-1.24,4.15-.31,9.69.71,14.37.7s8.52-1,9.31-5.48c.67-3.83-.5-6.74-2.17-8.36-.48-.47-2.12-.23-3.42-.82a5.27,5.27,0,0,1-2.89-2.18c-7.72.37-16.11,2.32-24.68,2.79-.87,0-2,.64-3,.61s-1.84-.82-2.93-.77c-2.1.11-4.32,1.14-6.42,1.21-.77,0-2.08-.69-2.93-.73-1.23-.06-2.25.62-3.45.64-1,0-2-.73-2.93-.73-3.38,0-6.08,1.38-8.83-.82-3.25,1.32-7,1.44-9.85,1.92-1.73.29-1.58-.16-2.95,0-4.76.39-9.56,1.79-14.25,1.94-1.84.06-3.59-.82-5.39-.72-1.43.08-2.93,1.09-4.42,1.36a91.33,91.33,0,0,1-17.89.95,148.32,148.32,0,0,0-17.9.4c-2.42.26-4.92,1.16-7.35,1.41,0,0-.78-.75-1.47-.68-1.66.16-4.33.53-6.37.71-7.77.68-15.5,1.56-23.23,2.28s-15.47,1.32-23.24,1.7c-7.09.32-15.18.83-21.53.38-4.59-.34-12.37.6-17.15-1-.47-.16-.59.72-1,.71-7.44-.14-15.49.17-19.58-.24-5.94-.62-12.94.15-20.07-.19-7.66-.37-14.9-2-23.53-1.44-3.25.21-5.06.14-6.85.2-3.45.11-7.17.89-10.74,1-1.37,0-2.66-.6-3.93-.57-11.23.23-22.53.38-33.73,1s-22.16,1.52-32.7,2.4c-1.25.11-2.31-.71-3.44-.58s-2.05,1.29-3.38,1.49c-.7.11-1.07-.65-1.49-.64a52.17,52.17,0,0,0-8.75,1.66c-.46.18-.63-.69-1-.66-.69.05-1,.68-1.44.74-.92.12-1.1-.7-2-.63-2.34.2-4.52,1.23-6.79,1.59-.7.11-1.07-.66-1.49-.64-.6,0-.68.65-1.44.73-2.47.26-4.69.83-7.31.91-1.17,0-2.66-.65-3.93-.57-2.64.17-5.1,1.28-7.77,1.62-4.64.59-9.93,1-15.61,1.16-3.17.09-6.26-.55-8.32-.45-1.08.05-2.34,1.41-3.38,1.48-1.27.08-2.7-.58-3.93-.57-.64,0-.64.86-1.45.73-.24,0-1-1.32-1.5-1.34-1.28,0-2.65.66-3.89.8-4.91.56-9.74,2.45-14.58,3.16-2.63.39-5.11.47-7.8.89a5.91,5.91,0,0,0-1.45.73c-.88.17-1.53-.68-2-.64-.77.07-3.19.07-3.42.09-9.79.57-19.13,1.5-28.86-.7,3.25-1.43,6.54-1.3,9.74-1.59A189.1,189.1,0,0,0,132,138.57c1.53-.31,3.31-.4,4.87-.82s2.83-1.82,4.34-2.18c.61-.15,1.68-.34,2.61-.51l1.76-.29c.16,0,.69.78,1.48.65s1.69-1.3,2.4-1.44c.49-.1.6.64,1,.67.58,0,.7-.66,1.45-.73,4-.36,8.21.83,12.19-1,6.16,3,13.66,1,21.5.07,2.12-.25,4.65-.85,6.82-.89.88,0,1.55,1.24,2.48,1.3s2.4-.76,3.4-.8c4-.13,8-.7,12.19-1.06,7.22-.63,12.77-.23,18.54-1.26,5.55-1,10.82-2.11,16.06-2.58.81-.07,1.61.75,2.46.61,1-.16,1.51-.7,2.42-.77,1.75-.12,3.79.65,5.4.52.95-.07,1-1.21,1.91-1.44s1.67.67,2.46.61a8.59,8.59,0,0,1,2-.06c4.56.48,6.82-2.46,10.18-3.08s7.08-.22,10.75-.33c4.88-.15,10.68-.81,13.71.26,4.89,1.74,9.8-.51,14.65-1.13,3.24-.41,6.88.25,8.82.43,1,.09,1.94-.76,2.91-.78,1.87,0,3.53,0,5.38-.16s4-.91,5.87-.17c2-.16,2.85-2,4.84-2.2,2.18,1.44,5-.74,6.83-.87.75-.05,1.61.69,2.47.63,2.76-.22,5.83-1.35,7.8-1.59.73-.09,1.69.69,2.47.62,7.24-.65,15-1.8,22.49-1.94,5.51-.11,10.68.28,15.68-.36.06,0,.76.78,1.48.66,1.59-.27,3.75-1.28,5.36-1.5,2.26-.32,4.47.66,6.36-.83,2.7-.2,5.18.9,7.37.56.94-.15,1.42-.86,2.44-.73s1.8,1,3,1.33a9.28,9.28,0,0,0,5.88-.1c6.51-2,17.9,1,25,.31,1-.09,1.55,0,2.45,0,2.14,0,4.38-.77,6.37-.76,4.47,0,8.7,1.45,12.77,1.23,2.42-.12,5.06-1.3,7.35-1.45a49.73,49.73,0,0,1,9.83.65c1-.83,2.74-.76,3.43-2.08,1.17-.19,1.24,1.39,2.46,1.37a13.44,13.44,0,0,1,1-1.38,6,6,0,0,1,2,0c2.82-.09,6,.91,8.35,0a38.49,38.49,0,0,1,8.3-2.13c2.87-.42,5.82-.63,8.76-.83,5.88-.39,11.73-.71,16.9-2.46,2.86-.3,6.68-.51,10.46-1s7.54-1.32,10.28-2.9c5,1.69,10.43-.47,15.81-1.14,3.05-.38,6.19,0,9.39-.55a24.72,24.72,0,0,0,2.5-1.34c.25,0,.25.85,1,.71,1.54-.29,2.88-1.11,4.48-1.26a42.25,42.25,0,0,1,6.92.18c2.69.2,5.32,1,7.89.9,5.22-.29,10.36-4.5,15.41-2.36,2-1.47,3.71-.91,5.45.2,3.8-2.28,7.82-1.83,11.5-2.31,2.08-.28,3.93-1,6-1.15s2.56.82,4,.15c1.72-.81,8-.19,9.46-.33a10.12,10.12,0,0,0,2-.6c.36-.08.55.71.46.71,3.15-.22,8.46-.74,9.54-1.57,1.58-1.21,3.61.11,5,.26,6.09.68,9.85-.33,14.57-2a2.55,2.55,0,0,1,2.45.82c1.19,1,1.72-2.64,2-.59,2.27-.9,2.92.16,5.48.33.2-1.38,1-1.5,1.66-1.28a3.88,3.88,0,0,1,.95.48c.25.17.43.31.43.31.7.21,1.13-.64,1.54-.59,2.11.3,4,1.89,5.89,1.78,1.55-.09,2.79-1.05,4.12-1.8,3.78-1.2,9.33-1.36,14.65-1.78C735.1,87.66,732.66,88.62,731.7,88.22Zm-403,56.87,29.06.51c10.08.16,20.33.39,30.1.7-19.17,2.19-38.74,1.62-56.19.07C331,146.32,328.74,147.58,328.7,145.09Zm144.07-3c1.7,1.76-2.5,1.69,0,0Zm21.09,17.77h1v1.38h-1Q493.86,160.59,493.85,159.9Zm-626.74,52.21,1,0,0,1.38-1,0Z"/><path class="cls-1" d="M1032.59,144c.07,2.4-3.16,2.19-3.27.65-1.29,1.45-2.88.33-4.41,1.1-.84.43-2.58.09-4.24.43-.87.18-1.63.88-2.27.89-3.25,0-6.9-1.25-10.57-1a23.71,23.71,0,0,1-3.08,0,14,14,0,0,0-2.93-.68,80.25,80.25,0,0,1-8.11-.46c-4.75-.74-9.43-2.43-14.06-3.62-.78-.2-1.77.35-2.59.17-2.39-.55-5.94-2.29-9.66-2.7-.75-.09-2,1-2.45-.51-7.68,3.52-20.21,1.91-29,.12-2.44,1.16-7.19,1.26-11.26.74-1-.12-2.46.35-3.05.14s-.46-3.83-1.35-.95c-3.63.6-7.37-1-11.4-1.14-2.6-.1-5.57,1-8.18.78-1.43-.12-2.87-1.17-4.3-1.39-2-.29-3.83.43-6.09.42a10.37,10.37,0,0,0-2.45-.39,31.34,31.34,0,0,1-7.45-.44c-1.39-.23-2.64-1.14-3.83-1.23s-2.86.84-4.12.81c-1.6,0-2.86-.56-4.41-.61-4.13-.14-8.21.3-13.43-.48a67.09,67.09,0,0,0-8.82-1.21c-3.9,0-7.5-.92-11.29-1.35-1.68-.19-4.14,1.76-5.4-.64-5.27.61-10.71-.21-16.36-.56-1.93-.13-3.91.11-6,0-.41,0-.68-.89-1.4-.84-4,.33-11,.49-15.5,1.21-3.84.62-7.31,1-10.73-1.77a27.44,27.44,0,0,1-6.88.33c-2.38-.09-4.69-.27-6.51-.16-1.46.09-2.56.65-3.93-.33-1.69.55-3.48,1-5.08,1.65-7.17-1.73-14.33-1.59-21.64-1.08-3.18.25-6.79,1-9.91.72-2.1-.22-4.16-1.44-6.28-1.8-4.1-.7-8.41-.21-12.8-.16a84.68,84.68,0,0,1-8.87.14c-1.14-.11-2.71-1.9-4.38-.92-.16.09-.46,1.31-.57,1.35-2.07.67-5.55.13-7.88.28-3.39.22-6.59.91-9.88.87-2.84,0-5.48-1.49-9.31-.48-.89.23-1.91,1.14-3,1.24-1.45.13-3-1.68-4.41-.17-2.1-2.29-6.36-1.78-7.65-5.12-.54-4.7,1.25-6.56.39-9.64,2.24-1.57,5.14-2.48,7.42-.4a12.35,12.35,0,0,1,6.38-.81c2.15.21,4.31.67,6.47.7,5.12.07,9.37-.48,15.35-.58.75,0,.94-.69,1.52-.61.41.06.44.76.95.74,5.2-.18,12.55-1.16,19.36-1a50.15,50.15,0,0,1,5.92.4c1.48.21,3.39,1,4.89,1,5.86.23,12.48.39,18.31.54.4,0,.43.8.93.76a5.16,5.16,0,0,1,2.52-.48,34,34,0,0,0,7.4.61c.54,0,1.1-.62,2-.53a2.29,2.29,0,0,1,1,.43,4.09,4.09,0,0,1,.48.38c1.4,0,2.8-1.12,4.06-1s2.53,1,3.89,1c1.83,0,3.69-.93,5.55-.92s3.89,1,5.86,1.18a12.15,12.15,0,0,0,2,.16c-.1,0,.33-1.12.56-.65.49,1,8.31,1,11.91.48.77-.1,1.66-1,2.6-1.13a27.93,27.93,0,0,1,3.46.35c.11,0,.58-.74,1.06-.59,1.12.37,4.24-.05,6.5,0,4.14,0,8.34.4,12.44.56,1.84.1,3.58.36,5.44.64,1.38.22,2.93,1.07,4.37,1.21,2.43.24,5.07-.67,7.57-.48s5.12,1.4,7.83,1.63c4.46.39,9.11-.15,13.52.26.18,0,1.07,1,1.89,1s1-.57,1.57-.48c2.54.39,5.11,2.09,7.72,2.46,3.52.51,7.07.56,10.86,1.51,1.08.27,2.79-.83,3.36,1.16,4.29-1.06,8.45-.82,13.62-.1,2.43.32,10.63.08,14.51.93a27.84,27.84,0,0,0,3,.48c3.4.36,6.91-1,9.37,1.5a12.24,12.24,0,0,1,5.75-.66c2.19.26,4.28,1,5.09,2.51,5.34-1.69,11.09,1.46,16.86-.42a68.75,68.75,0,0,0,8.63,1.18,60.89,60.89,0,0,1,10.22,1.67c4.83,1.29,9.24,4,14,1.5,2.43.31,2.89-.08,6,.55,1.95-.39,4.05-2,5.7-.23,3.5-1.49,7.28.92,12.11,1.2,1.38.07,3.17-.57,4.72-.32s3.1,1.42,4.76,1.81c1.37.32,2.93-.09,4.09.24,3.67,1.06,6.07,4.08,9,1.39C1024.64,141.88,1029.85,141.88,1032.59,144Z"/><path class="cls-1" d="M970.59,225.93c-1-.43-.36-2.52-1.89-2.5-1.13-.33-2.21-.57-2.93.1-1.11-2.29-3.4-1.3-4.5-1.63-2.31-.7-5.09-1.46-7.29-2.22a35.77,35.77,0,0,0-4.64-1c-1.55-.36-3-1.92-4.38-2.31-1.57-.45-3.23,0-4.79-.24-4.29-.78-10.42-2.88-16.7-3.76a.35.35,0,0,0-.12.68c1.37.47,3.77-.09,3.49,2-1.51.53-3.06-1.36-4.08-1.45-.8-.07-1.87,1.24-2,.34-1.31-.38-2.53-.55-2.7,1.61,1.83-.72,2.58,1.65,4,2.13.92.32,2.61-.46,3.85,0,1.78.67,4,.16,4.87,2.29-1,.23-2.9-1.4-3.39.08,2.69,1.84,8.67,2.13,12,2.89,2.5.56,3.72,1.62,4.3.15,2.8,3.65,9.51,2.51,12.54,4.71.74.09.72-1.64,1.67-1.06,1.16,0-.89,3,1,2.31,5,0,10.81,3.41,16.31,2.67,1.47,1.48,3.73,4.16,5.81,2.06-.8-.5-3,.27-2-1.88,3,1,6.72,1.18,10.26,1.68.37-4.22-5.74-2.49-8.28-4-.81-.67-.6-2.29-1.24-3.12C976.74,227.28,973.38,223.32,970.59,225.93Zm-38.19-7,.93.17-.26,1.35-.93-.17ZM968.47,229c-.44,1.07-3.73.39-3.7-.77C965.55,225.2,968,228.37,968.47,229Z"/><path class="cls-1" d="M16.16,202.51c.14-.93,1.14-.55,1.82-.66C17.84,203.44,16.76,203.41,16.16,202.51Z"/><path class="cls-1" d="M19.38,195,18,195v-2.07c.53.12.82-.14.92-.67C19.56,192.44,19.31,193.95,19.38,195Z"/><path class="cls-1" d="M118.15,92c.23-.92,1.29-.47,2-.53C119.93,93.08,118.74,93,118.15,92Z"/><path class="cls-1" d="M103.38,87.49c.58,1,2.92,1.41,3.06-.48-.86-1.28-3.28-.73-5-1-1-.08-.51-1.92-1.92-1.51,0,1.5-1.8.19-2.56.52a14.41,14.41,0,0,0-9-2c-2.14.21-4.91,1-5.74,2.44,1.55.86,1.14.13,3,.17,2.25,5,9,3.19,12.41,3.57,2.9.31,6.08,2.35,9,.63C106,88.6,103.06,90,103.38,87.49ZM87.3,86.41c.25-2.13,2.59-1,4.12-1.12C90.93,87,88.42,87.9,87.3,86.41Z"/><path class="cls-1" d="M105.64,84.2c-.74,1.44-3.92.48-3.43-1.62,1.43.72,1.5.72,3,.21C105.09,83.58,105.26,84,105.64,84.2Z"/><path class="cls-1" d="M21.17,201.21c4.14.6,5.9-2.52,10.05-1.92,1,.4.68-1.3,1.4-1.36a46.84,46.84,0,0,1,17.09-.87c1.44-.85,3.19-1.19,4.71-1.9.95-.72,1.84.78,2.75.79S59,194.72,60,194.67s1.94.94,2.77.84c2.28-.27,4.8-1.62,7.13-1.68,1.34,0,2.85.86,4.18.92,1.55.07,3-.94,4.77-1.12,3.4-.38,6.66-.22,10-.74,2.78-.43,5.14-.87,8.2-1.5,2-.41,4.92.19,8.11-.13,1-.1,1.75-.87,3-1.15,4.49-1,9.47,1.52,13.63-1.67,2.3-.09,4.59-.16,6.86-.19s4.57,0,6.86.15a86.1,86.1,0,0,1,13.82,1.73c1.32-.63,2.51-1.46,4.49-1,1.83-.91.08,2.36,1.27,2.19,1.72.85,4.83.09,4.62,3.19-1.85,1.58-5.62-.16-6.64,2.85-7.4,1-14.39.13-21.41.18-2.72,0-5.24,1-7.85,1.42-1.4.23-2.95.07-4.35.34-1.23.24-2.31,1-3.45,1.11s-1.16-.72-1.85-.84c-1.73-.31-6.41.51-7.74.76-3.34.62-5.85,1.25-9.65,2.08-2.06.46-4.23,1.38-6.27,1.64s-3.93-.42-6.12-.42c-5.32,0-11,.76-17.36,1.09-.88.05-1.81.54-2.82.53-.79,0-2-.9-2.75-.84-1.39.09-2.85,1.11-4.22,1.19-3.14.2-6.54.26-9.66.34-.66,0-1.58-.82-2.27-.77-1.15.08-4.45,1.06-6.46,1.14-.81,0-1.41-.79-2.26-.75-1.49.06-2.59.69-4.53-.06a4.71,4.71,0,0,0-1.36,0c-.34-.08-.49.87-.92.68-.23-.11-1.08-2.11-2.23-2.1C24.19,203.44,21.52,205.39,21.17,201.21Z"/><path class="cls-1" d="M240.34,199a10.82,10.82,0,0,0,5.44,1.15c.94-.12,1.62.76,2,.84a49.67,49.67,0,0,0,14.12,1,41,41,0,0,1,8.28-.07c2.79.17,5.6.45,8.48.51a85.08,85.08,0,0,0,8.69-.17c1-.1,1.51.79,2,.81,2.26.08,5.09-.12,7.69-.27,3.05-.14,6,0,7.73-.35.45-.1.46.71.48.71,3,.32,4-1,6.21-1.11a2.78,2.78,0,0,0,.51.37,2.48,2.48,0,0,0,1,.39c.93.06,1.58-.59,2.08-.6,3.35,0,6.58.65,9.75.32,2.55-.26,5.28-1.66,7.75-1.87,1.57-.14,2.06.74,2.55.75.33,0,.61-.68.53-.67l13.31.21c.77,0,1-.57,1.54-.68a36.66,36.66,0,0,1,7.66-.63c3-.09,7.18-1,10.7-1.37,1-.1,2,.09,3,0,4.43-.5,10-.7,15.78-1s11.6-.76,16.6-1.53,10.07-1.74,15-2.61,9.75-1.7,14.54-2.46c5.5-.85,10.31-2.08,14.91-2.69,6.27-.83,12.58-.53,18.89-1.6,2-.35,3.93-1.23,5.9-1.67a113.15,113.15,0,0,1,17.23-3c8.77-.73,17.6-1.24,26.67-1.58,16.83-.66,33.94-2.4,51.1-2.51,12.33-.09,25-.14,36.64-1.5,5.54-.63,11.85-1,18.42-1.38s13.35-.67,19.89-1.25c8.48-.69,16.87-.72,25.11-1.66,2.81-.31,5.41-1.33,8.17-1.61,5.83-.57,11.7-.76,17.53-.88s11.61-.12,17.26-.54c3.64-.26,7.4-1.26,11.11-1.52s7.42.68,11.13.67c3.94,0,7.75-.61,11.61-.7,5.37-.16,11.26-.74,15-1.25,3.24-.42,5.8,0,8.23.1a53.9,53.9,0,0,0,7.55-.5c2.52-.29,5-.57,7.49-.61,1.52,0,2.9.93,4.34.8s2.85-1.13,4.39-1.27c0,0,.31.2.69.4a2.43,2.43,0,0,0,1.23.34c4.13-.41,8.3.08,12.13-.36,1.79-.2,3.08-.45,4.87-.5s4.08.19,4.36.17c1.84-.09,3.27-1.1,4.9-1.19.92,0,1.4.7,1.91.77.74.1,1.74-.59,2.45-.6,2.59,0,5.35.08,8.15.13a83,83,0,0,0,8.37-.06c1.34-.1,2.61-1,3.95-1.17,1.68-.21,3.22.38,4.85.25,3.06-.23,5.87-.71,8.81-.92,6-.4,11.72-.77,17.6-.95,11.52-.38,22.9-.18,34.25-.92,2.48-.43,5-.78,7.44-1s5-.42,7.42-.56c4.94-.28,9.85-.41,14.72-.61,1.41-.06,2.54.46,3.89.36.94-.07,2-1,3.05-1.09,2.59-.21,5.25.4,7.85.14a64.59,64.59,0,0,0,7-1.33c1.1-.24,2.45,0,3.48-.32.18,0,.87-1.19,1.12-1.27.77-.24,1.65.4,2.44.26a127.23,127.23,0,0,1,14.05-1.65c4.77-.33,9.58-.5,14.35-.58s9.6-.26,14.28-.47,9.26-.5,13.64-.76a36.29,36.29,0,0,1,7-1.08c2.39-.15,4.81-.21,7.17-.42,1.66-.15,3.5-.68,5.08-.65,2.5.05,5.22,1,7.81,1.14s5.06-.44,7.53-.29c8,.57,15.94,2.48,23.58,4.1,3.83.79,7.57,1.57,11.21,2.11a52.92,52.92,0,0,0,10.63.58c2.23-.13,1.61,2.55,2.93,3.31,1.6-1.76,3.27,1.48,4.49.08,2-.88,3.11-3.44,4.87-4.75-.51-2.43,1.15-3.73-.12-4.92.93-3,.08-4.18.73-6.87-2.93-1.08-3.33-4.62-6.63-5.35-2.44,3.63-3.52-.15-4.91-.85-.89-.45-1.81-.25-2.95-.51-4.05-.94-8.37-.1-12.5-.77a110.8,110.8,0,0,1-12.18-2.65c-.71-.19-1.38-1.57-2.24-1.76s-2.06.49-3.06.21c-2.14-.6-4.13-1.93-6.19-2.39-.71-.16-1.14.49-1.58.44-.68-.07-1-.88-1.37-.92-2.81-.24-5.25-.29-7-.34-5.33-.13-12.34.17-17.16.27-.88,0-1.46-1-1.87-1-1,0-2.2.88-3.15.94-1.49.09-3-.52-4.44-.6a94.68,94.68,0,0,0-14.57.15c-2.45.25-4.74,1-7.16,1.14-1,0-1.54-.89-2.38-1a19.3,19.3,0,0,0-2.55.38c-1.8,0-1.94.78-3,.33-.74-.3-1.28.49-1.56.51-3.45.26-6,0-8.13,1.11-2.49,1.27-6,1.1-9.1,1a28.05,28.05,0,0,1-4.17,1.59c-.8.15-1.65-.35-2.46-.28-1,.08-1.33,1-2.12,1.16-1.6.23-3.33-.06-5,.16s-3.41.77-5.06.85a25.83,25.83,0,0,1-6.88-.73c-.63-.13-1.75.51-2.53.42-1.63-.17-3-1.07-4.84-1.2s-3.38.44-5,.21c-3.14-.42-6.07-2.19-9.28-1.55-1.8-2.08-4.49-1-6.83-1.32s-4.7-1-6.83-1.33c-1.85-.28-3.85-.89-5.86-1.17-2.46-.34-5.61.41-7.78-2-1.22,1.36-2.23-.77-3.56,1.1a28.16,28.16,0,0,0-7.34-1.27c-.2,0-.71,1-1.53.57-.32-.18-.28-1.37-.88-1.45,0,0-.18.31-.42.63s-.51.64-.67.66c-.85.11-1.23-.74-1.38-1.49,2.82-.69,5.61-.9,8.55-1.4.84-.14,1.26-1.2,1.59-1.26.63-.11.87,1,1.92.84,1.53-.27,3-.79,4.56-1,12.13-1.91,24.84-2.66,36.3-4.42,3-.47,6.08-.77,9.12-1.18,1.34-.18,2.87-.85,4.1-1,1.95-.16,3.54.79,5.45.58.88-.1,1.73-.86,2.63-1.11a28.49,28.49,0,0,1,3-.37,69,69,0,0,1,8.67-.65c3.22-.07,6.65,0,10,0,.85-.7.79,0,1.49.18a6.91,6.91,0,0,0,2,.24c5.6.45,10.22.7,16.46,1.28,7.47.79,15.18,2,22.38,2.28,6.78.23,13.87-.35,20.69.16.95.08,1,.84,1.88,1s1.81-.34,2.58-.32c3.29.08,6.55.32,9.74.67s6.32.91,9.36,1.5c6.08,1.18,11.79,2.68,16.88,4.15a37.62,37.62,0,0,1,4.82,1.51c.72.31.91,1.25,1.74,1.7s2.21.11,3,.51c2.8,1.52,5.11,4.56,8.27,4.94.6-1.84,2.24-1.57,3.43-2.2.48-.11,2.1-2.24,1-2.63.66-1.12,1.54-1.78,2.08-3.14,1.95-2.09.45-5.65,1.57-8.82,2-2.87,2-5.64,2.56-8.65.49-2.74,1-2.76.85-4.75a3,3,0,0,1,.24-1.36c-.27-2.59-1.47-4.06-2.54-6s-1.92-4.49-3.68-5.54c-5,.38-9.9-1.55-13.43-3-1-.44-2.46-.83-3.41-1.26-2.3-1.06-3.37-2.85-5.7-3a5,5,0,0,0-2.63.28c-.21.09-.47,1.18-.72,1.28a17.17,17.17,0,0,1-4.24.71c-5.9.8-11.17-2.23-16.91-.57-1.36-2.49-5.22-2.48-7.65-3.91-2-.48-2,2.69-3.93,2.21-1.7.3-3.47.45-4.83,1.38a31.69,31.69,0,0,0-9.76-.92,44,44,0,0,1-10.05-.46c-3-.62-7.39-.36-10.57-1.41-2.94-1-5.3-3.61-8.21-3.87-1.68-.13-3.51,1.88-4.29,1.57-1.35-.54-3.61.72-5.21.77-.75,0-1.64-1-2.44-1-2.8-.08-6-.19-9.16-.4s-6.22,0-9.21-.06a17.18,17.18,0,0,1-8.45-1.92c-3.56-2-6.42.76-9.81,1-2.12.18-4.66-.06-7.13-.06-5.25,0-9.65-.92-14.13-1.35-2.32-.21-4.55.49-6.63.08-2.33-.46-4.62-2.18-6.89-2.71-1-.23-2.43-1-3.48-1S924,74.46,923,74.42c-1.28,0-2.18-.93-3.48-1s-2.72.43-4.1.37c-2.27-.11-4.65-1.15-7-1.25-1.22,0-2.22,1.1-3.14,1.13-1.33,0-2.72-.77-4-1-2.3-.41-4.61-1.41-7-1.91-1.3-.28-2.81,0-4.05-.27s-2.32-1.47-3.45-1.61-2.72.43-4.1.42-3.22-.32-4.56-.3c-3,0-5.93.82-8.7.81-1.2,0-2.31-.8-3.5-.91-1.39-.13-2.78.52-4.09.48-3-.11-5.91-.83-8.61-.45-2.1.29-4.48,2.26-5.71,2.46a2.29,2.29,0,0,1-1.26-.35,8.34,8.34,0,0,1-.74-.44c-3.3.65-5.8,2.07-8.73,2.31-.5,0-.86-.72-1-.73-.51-.06-.62.65-1,.65-2.5,0-4.33-.32-5.06-.2-1.06.18-2,.46-3.06.57-6,.61-12.1,1.07-18.13,1.31s-12,.43-17.85.28c-3.74-.09-8.09,0-12.25,0s-8.1.24-11,.21c-.15,0-.71-.79-1.51-.71-1.57.15-1.67,1.27-2,1.35-.82.19-2.12-.78-3-.72-1.19.08-2.3.59-3,.65s-.69-.76-1.51-.71-1.43.53-2.53.66c-2.54.28-5.22,1.36-8.09,1.33a15.67,15.67,0,0,1-6.06-1.37c-1.73.66-3.13,2.16-5.05.7-1.58.85-3.36,1.84-5,.69-3.83-.74-8.14.63-12.11.75-5.76.13-11.65-.19-17.66.26-8,.53-19.29,2-24.7,1.27-.5-.07-.58.65-1,.72a56.47,56.47,0,0,1-11.94.47c-3.75-.15-7.23-.46-10.24-.42-.14,0-1.26.22-2.35.44l-2.15.43c-.11,0-.48-.62-1-.65-3.67-.23-5.86.72-8.47,1.74-.53-2-.78-.74-2-.59a373.08,373.08,0,0,1-42.85,2.92c-10.4.07-20.73,1.11-32.68,1.28-2.46,0-4.33,1-5.88,1.06-1.74,0-3.76-1.17-5.49-1-2.14.16-4.23,1.54-6.3,1.78s-4.26-.25-6.43-.29c-2.37,0-5.05-.34-7.39-.23-2.17.11-4.16,1-6.31,1.09-9.76.35-19.45-.88-29.33.4-.4-2.2-2-.54-3-.51-3.91.11-8.22.07-12.15,0-1.93,2.81-4.76,1.5-7.19,1.78-19.73,2.21-43.84,2.27-61.49,2.6-1.8,0-4.54.83-5.71.85-1.88,0-2.79-1.39-4.32-1.29-2.33.15-4.75,1.85-6.67-.55-2.64,1-5.2.7-7.6.52s-4.62-.31-6.62,1.07c-4.54-1.93-9.34,0-14.21.1-2.3,0-4.78-.81-7.07-.74-5.83.15-13.8,1.35-17.44,1.18-1,0-2.52-1.18-3.74-.78-.61.2-.86,1.31-1.44,1.34a3.36,3.36,0,0,0-1.39-.73c-.75-.07-1.7.64-1.9.64-1.45,0-2.53-.8-3.73-.78-2.43,0-4.67,1-7.09,1.16-2.73.19-5.47.14-8,.34-5.48.4-10.16,1.07-14.72,1.38-3.22.23-7.37-.45-9-.55-.18,0-.31.15-.39.32a2.06,2.06,0,0,0-.13.34,113.72,113.72,0,0,1-13.89.5c-.05,0-.72-.77-1.39-.79-.9,0-1.1.51-2,.55a44.4,44.4,0,0,1-7.66-.57c-1.2-.13-2.77,1.22-3.3-.93-1.42-.14-2.59,1.84-3.4.44-5.48.2-11.57-.45-17.63-1s-12.16-1-17.72-.63a10.8,10.8,0,0,0-2.49.47c-2.39.68-4.51-.34-6.79-.61-3.13-.38-5.73-.28-8.28-.76-.93-.18-1.86-.87-2.87-1-1.75-.15-5.27.77-6,.83-.5,0-.52-.77-.91-.78-1,0-2-.24-2.93-.27-.75,0-3.22-.31-3.42-.32-5.23-.31-10.72-.37-16.28-.81-7.67-.62-16.52-1.2-23.22-2.09-2.45-.32-5.51-1.45-7.87-1.38-2,0-3.84,1.46-5.65,1.6-1.36.11-2.72-.91-3.93-1-.93-.08-1.16.49-2.05.52s-1.18-.74-2-.16a22.45,22.45,0,0,1-9.53-.08c-.32,2.66,2.22,1.94,3.33,2.35.68.25,1.22,1.45,1.39,1.49.94.21,1.25-2.32,2.1-1.21-.35,2.07,1.51,1.56,2.32,2.26,2.15,1.19,1.69-1.89,3.6-1.09,5.63,3.26,11.91,3.63,18.12,4.31,0,0,.11-.71.56-.64,6,.94,13.78,2,20.17,2.5,6,.49,12.21,1.21,18.17,1.68,1.53.12,2.79.39,4.4.41,5.16.07,10,1.32,15.15,1.41,1.65,0,3.4-.17,4.93-.25a18.18,18.18,0,0,1,3.89.35c1.64.24,3.05.91,4.8,1.12.73.09,1.74-.6,2.49-.47,1.14.22,1.39.9,2.37.91,3,0,5.93-1,8.85-.6,2.06.32,4.1,1.49,6.17,1.9.92.18,1.4-.55,2.48-.48.79.05,1.61.87,2.36.89,1.77,0,3.64-.29,5.38-.24,3.3.1,7-.37,10.17.1,1.86.27,3.78,1.61,5.67,1.8,4.29.42,9.06-2.78,13,.93,3.57-.34,6.46.1,9.62-.11,3.65-.25,7.75-.68,11.77-1.1s7.94-.94,11.28-1.15c2.87-.18,4.51-.95,6.22-1.11,2.38-.23,4.87.67,7.11.27,0,0,.42-1.3.52-1.36,1.37-.95,4.17-.47,5.22-.56,3.42-.31,6.62,1,9,.91.85,0,2-1.16,2.86-1.31,1.4-.24,2.61.18,3.79,0,6.14-.75,13.27-1.52,19.94.13a10.85,10.85,0,0,0,3.34.66,19.64,19.64,0,0,0,6.66-2.11c.44-.24.91.69,1,.68,2.14-.21,4.52-.41,6.83-.55s4.59-.29,6.51-.31c1.33,0,2.91.59,4.32.6s2.48,0,3.82-.08a47,47,0,0,1,5.26-.11c1.93.2,3.93,1.27,5.79,1.22s3.58-1.31,5.24-1.55c.74-.1,1.18.59,1.46.64.8.16,1.72-.76,1.9-.75,2.07.05,7.35.45,9.15.39.16,0,1-.87,1.9-.77,2.19.25,4.53,1.57,6.83,1.79,3.31.32,7.07.22,9.19.31.88,0,2-.81,2.86-.81,2,0,3.89.38,5.84.4.89,0,2.08-.84,2.87-.83,1,0,1.51,1.22,2.49,1.25,7.75.31,16.7-1.31,21.87-.47a8.14,8.14,0,0,0,2.43-.14c6.21.34,12.53.5,18.84.66s12.64.31,18.92.54c3.87.14,7.77,1.53,11.39,1.36,2-.09,5.2-1.56,6.29-1.78.88-.17,1.65.61,2.5.53,9.74-.86,18.82-1.54,28-2.44,6.34-.63,12.48,0,18.8-.44l21-1.22c3.56-.22,7.11-.47,10.57-.76s6.87-.58,10.11-1a66.22,66.22,0,0,1,7-.33c1.13,0,2.42-.05,3.49-.17,7.2-.71,14.44-1.16,21.69-1.51s14.54-.45,21.8-.65c7.66-.26,15.43-1,23-1.13,5.16-.1,10.22-.19,15.22-.2l14.81,0c4.89,0,9.74-.07,14.58-.13s9.68-.17,14.53-.41c1.85-.09,3.62-.71,5.52-.62,1.67.08,3.65,1.43,5.49,1.44a26,26,0,0,0,2.52-.64A52.7,52.7,0,0,1,788.2,92c4.14-.09,8.24.25,12.53.32,2.38,0,6.94-1,9.07-1.12.62-.05.69.76,1.48.75,2.56,0,7.17-.9,9.58-1,.63,0,.67.76,1.48.75,6.6-.12,14.71-.87,20.66-1.18,1.23-.07,1.81.88,3,.84,1.88-.06,3.59-.94,5.59-1.09.56,0,.77.69,1,.74.73.2,1.09-.61,1.54-.61,6,0,10.62-1.47,15.68-1.19a52,52,0,0,1,7,1.15c2.36.47,4.56,1.42,6.93,1.84,3.89.69,8.35,1,12.54,1.37s8.12.62,11,1c4,.59,9,0,13.46,1.75-4.34,1.89-9.13,1.2-13.73,1.68a113.33,113.33,0,0,0-14.74,2.31c-1.06.26-2.06.92-3.09,1.18-4.18,1-7.6,1.44-11.16,2-2.57.42-5,.48-7.56.88-2.8.45-5,1.18-6.56,1a193.58,193.58,0,0,1-24.12,2.88c-8.4.47-17,1.87-25.51,2.41-.51,0-.56-.71-1-.73a5.59,5.59,0,0,1-1.51.63c-3,.45-6.41.91-9.49,1.07-8.33.41-17.11-.43-25.86.74-.89.13-1.57,1.12-2.51,1.35s-2.48-.16-3.47,0a44.07,44.07,0,0,1-11.42-.14c-2.79-.4-8.11-.47-9.92-.81-.62-.1-2-.68-2.48-.69-1.5,0-5.12,1.15-6.46,1.39-.5.08-.59-.71-1-.69-2.94.14-6,.92-8.94.7-3.76-.28-7-2.88-10.42,0-1.05-1.16-2.22-1.19-3.49-1.33-.85-.09-1.73.71-2,.72-.94.06-1.1-.65-2-.66-3,0-6.36.51-9.44.14-2.56-.31-5-1.69-7.49-2s-5.36.27-8,.18c-3.27-.11-5.56-1.12-7.49-1.17-1,0-2.53.71-3.46.79-5.72.47-10.65-1.74-15-1.63-1.21,0-2.18.92-3.45.83,0,0-.72-1.23-1-1.34-1.85-.62-2.08.9-3.45.83-.7,0-1-.59-2-.61-4.1-.05-8.32.45-12-.2-1.38-.25-2.05-1.15-3.53-1.21-1.75-.07-3.09.82-4.93.93s-3.7-.47-5.49-.43c-10.42.22-21.08,1.38-28.75.84a17.17,17.17,0,0,0-3,.17,35.45,35.45,0,0,0-7.32,1.81c-.74.28-1.19,0-2,.12.11,0-.26-.63-.53-.66-.5-.06-.54.7-.95.75s-1.27,0-2,.12c-1.87.33-3.16.11-4.93.29-14.25,1.46-27.88,4.77-41.61,5.36-3.24.13-6.64-.3-9.84-.08-3.36.23-6.45,1.74-9.71,2s-10.69-.71-14.76-.49c-1.94.11-3.47,1-5.34,1-6.84.19-13.47-.88-20.09-.25-7.32.7-13.68,1-20.46,1-5,0-9.75.4-14.59.65-1.35.07-6.31-.43-7.32-.38-2.56.13-10.71,1.78-12.57,1.83-.25,0-.65-.66-.51-.67-2.45.29-4.8,1.44-7.23,1.61-2.21.15-4.42-.61-6.81-.48-9.14.42-18.74.74-28,2.54a69.13,69.13,0,0,1-10.73.18,59.88,59.88,0,0,0-12,.53c-3.64.66-7.34,2.64-11.12.6-2.1,2.23-4.85.48-7.73.5s-6.59,1.22-9.7,1.14c-3.48-.07-6.51-1.24-9.64-1-1.82.13-3.5,1-5.37,1.15-.73.05-1.17-.7-1.42-.75-.87-.19-1.52.65-2,.61-1.43-.15-2.83-.77-4.32-.88s-2.59.66-3.9.52c-.76-.07-2.08-1.52-2.35-1.51s-.41.66-1,.63c-3.75-.17-8,.78-11.71.68-1.38,0-2.93-1-4.32-1-1,.06-2,1-3,1.2-5.79,1.1-11.55-1.34-17.65.79-2.32-1.78-5.17-1.11-7.73-1.26-.35,0-2.61-.28-3.9-.33-5.52-.21-8.89-.92-12.67-1.06-7.71-.27-12.81-1.17-19.08-1a26.42,26.42,0,0,1-3.91-.35c-4.68-.19-10.09-.83-13.26-.52-1.32.13-2.2.78-3.49.37-2.26,0-2.43.51-4.4-.41a14,14,0,0,1-10,1.84c-5.23-.8-16.13-.33-23-2.13-2.4-.61-4.75-3.08-7.13-3.4-1.7-.23-3.89.78-5.53.9a49.09,49.09,0,0,1-6,.16c-2.92-.15-5.53-1.3-8.31-1.39-2.21-.08-4.59.79-7,.82-2.8,0-5.71-.65-8.87-.71-.85,1.2-1.68-.79-2.41-.89-1.12-.15-2.29.52-3.5.43-2.49-.19-4.8-.46-7.41-.51-5.17-.1-10.48-.11-15.85-.39-4.69-.21-9.49-.52-14.36-.78-2.58-.14-5.21-.34-7.74-.34a24,24,0,0,0-7.18,1c-1.54,0-1.33-2.21-3.42-1.5-4.58,1.37-9.72,1.42-14.64,1.4s-9.61-.11-13.22.66a30.24,30.24,0,0,1-4.47.63c-.81.06-1.81-.81-2.48-.73-1.8.21-3.23,1.27-5,1.38-1.58.1-3.42-.64-5-.64-.95,0-1.57.59-2.48.72-1.09.15-2-.71-3-.66-1.9.1-3.57,1.44-5.44,1.44s-3.61-1.36-5.49-1.3-4,.64-5.94.93c-4.67.67-8.7,1.2-11.84,1.85-2.06.43-3.92,1.34-5.87,1.64-1.75.28-3.54-.56-5.48-.29s-4.4,1.69-6.28,2.52-5.48.51-5.09,4.52c-.33,2,1.57,2.18,2.66,2.57a19,19,0,0,0,2.49.51,35.24,35.24,0,0,0,12.23-.19c2-.39,3.81-1.33,5.79-1.63,8.54-1.22,18,.14,25.44-.8,3.14-.45,6.38-3.6,8.81-.79,2.08-1.93,7.09-2,10.79-1.41a15.15,15.15,0,0,1,4.89,1.45,81.53,81.53,0,0,1,17.43-1c6,.23,12,.67,17.93.57,5.78-.1,11.44.23,16.95.46s10.84.52,16,.68c16.86.39,31.82,2.06,48,3.73,2.65.27,5.48-.19,8.39,0s5.87.34,8.82.78c.56,1.29,1.36-.49,2.51-.46s2.52.9,3.85,1c2.61.28,5.28-.12,6.79,1.32,3.28-1.27,8.12.16,11.45-1,.93.38-1,1.89,1.34,1.51.72-.89,2.19-.48,3.49-.37,1,1.64,3.54,1.44,5.39.5,7.66,1.57,15.68,1.55,23.51,2.15,10.3.82,21.94,1.46,33.57,2.33s23.26,1.76,33.57,2.91a62.19,62.19,0,0,0,6.87.41c6.6.07,13.17-.05,19.71,0q4.91,0,9.8.12c3.27.06,6.53.08,9.8.19,1.41,0,2.59.13,3.93.1,4-.11,9.84-.27,12.28-.44,1-.05,1.61.73,2.45.71,6.07-.2,12.29,0,18.17-.59,2.65-.27,5.13-1.2,7.84-1.44.08,0,.74.78,1.48.68,3.81-.55,7.54-.87,11.21-1.23s7.27-.7,10.82-1.16c2.61-.34,5.27-.62,7.94-.86s5.36-.48,8.06-.65c5.39-.37,10.81-.56,16.12-.75,10.62-.42,20.83-.59,29.58-1.37,1.58-.13,2.86.55,4.44.47,2.81-.14,5.39-1,8.3-1.11,2.23-.06,5.38.25,6.41.33.78.07,1.76-.8,1.92-.79,4.35,0,8.76,0,12.78,0,.94,0,3.35-1.42,4,1.14-6.72-.22-13.15,1.37-18.56,2.43-4.11.81-11,.73-15.21.8-1.23,0-2.56.8-3.89.88-5.89.39-11.86.42-17.18.8-2.3.17-5-.07-6.82,1.66-8.59-.25-18.54,1.14-27.94,3-1.39.28-4.24.29-5.39.81-.17.08-.7,1.36-1,1.4-1.06.17-2.29-.64-3.46-.62-3.86.08-6.67.29-9.84.2-2.34,0-4.82,1-6.9-.6-3,.52-6.78,1.61-10.82,2.15-1.26.16-3.77.71-3.94.72-.47,0-.62-.73-1-.68-1.87.28-3.51,1.17-5.43,1.36-4.18.39-9.78-.54-14.5-.43s-8.57,1.13-9.31,5.66c-.62,3.84.6,6.73,2.32,8.33.5.47,2.16.2,3.48.77a5.26,5.26,0,0,1,3,2.09c3.91-.26,8-.91,12.17-1.58,2.09-.33,4.2-.67,6.34-1s4.28-.6,6.45-.79c.88-.08,2-.7,3-.71s1.88.76,3,.67c2.12-.18,4.33-1.28,6.45-1.42.77-.06,2.13.64,3,.67,1.25,0,2.26-.7,3.47-.76,1.05-.06,2,.66,3,.63,3.42-.11,6.09-1.6,9,.51,3.23-1.44,7-1.68,9.87-2.31,1.73-.37,1.6.08,3-.09,4.78-.64,9.57-2.21,14.29-2.53,1.85-.13,3.65.65,5.46.47,1.43-.14,2.9-1.23,4.39-1.56,12-2.65,23.89-1.2,35.95-3.07,2.42-.39,4.88-1.41,7.31-1.79,0,0,.82.71,1.51.6,1.66-.24,4.32-.76,6.36-1,15.54-2.19,30.9-4.86,46.47-6.27,7.11-.65,15.2-1.52,21.59-1.36,4.62.12,12.39-1.15,17.25.31.47.14.56-.74.94-.75,7.47-.16,15.53-.74,19.65-.48,6,.38,13-.56,20.13-.43,7.7.13,15,1.66,23.6.9,3.25-.28,5.06-.24,6.85-.31,3.45-.14,7.16-1,10.73-1.11,1.37-.06,2.67.58,3.94.53,5.61-.2,11.25-.23,16.88-.38s11.26-.33,16.86-.6,11.19-.51,16.65-.83,10.83-.7,16.12-.94c1.25-.07,2.29.78,3.43.68s2.09-1.23,3.42-1.38c.71-.09,1,.69,1.47.69a52.46,52.46,0,0,0,8.81-1.39c.47-.17.6.71,1,.69.69,0,1-.65,1.47-.69.93-.09,1.07.74,2,.69,2.35-.13,4.57-1,6.87-1.31.71-.08,1,.7,1.46.71.61,0,.71-.62,1.48-.67,2.49-.16,4.73-.63,7.36-.6,1.17,0,2.64.77,3.91.74,2.65-.06,5.17-1.06,7.87-1.28,4.68-.33,10-.44,15.7-.29,3.18.08,6.24.89,8.32.9,1.08,0,2.43-1.28,3.47-1.29,1.28,0,2.67.75,3.9.83.64,0,.69-.82,1.49-.63.23.06,1,1.39,1.42,1.43,1.27.13,2.7-.48,3.94-.54,4.95-.22,9.92-1.78,14.82-2.18,2.67-.23,5.16-.13,7.88-.33a5.93,5.93,0,0,0,1.5-.61c.9-.1,1.48.8,1.93.79.78,0,3.2.18,3.43.18,4.93.11,9.75.11,14.54.44a61.41,61.41,0,0,1,14.31,2.6c-3.37,1.14-6.65.72-9.88.73a187.71,187.71,0,0,0-20.71,1.65c-1.55.19-3.34.14-4.93.43s-3,1.59-4.5,1.84c-.62.1-1.71.23-2.65.34l-1.78.18c-.16,0-.64-.83-1.44-.74s-1.78,1.18-2.5,1.28c-.49.07-.55-.68-.95-.73-.58-.07-.75.61-1.49.63-4,.09-8.15-1.38-12.24.21-6-3.49-13.6-1.79-21.48-1.31-2.13.14-4.7.59-6.86.51-.88,0-1.48-1.32-2.42-1.44s-2.43.62-3.44.61c-4,0-8,.36-12.23.54-7.24.34-12.78-.36-18.58.51-5.59.83-10.88,1.79-16.12,2.09-.81,0-1.59-.8-2.45-.69-1,.13-1.52.66-2.44.69-1.75.07-3.77-.78-5.38-.66-.95.06-1.06,1.19-1.94,1.41s-1.66-.7-2.45-.65a8.57,8.57,0,0,1-2,0c-4.55-.56-6.86,2.34-10.21,2.91s-7.06.09-10.73.17c-4.87.14-10.65.78-13.67-.31-4.88-1.75-9.78.48-14.6,1.11-3.22.44-6.86-.19-8.8-.34-1-.08-1.93.77-2.9.8-1.87.06-3.52,0-5.36.21s-3.93.95-5.85.25c-2,.2-2.81,2-4.79,2.3-2.2-1.39-5,.85-6.8,1-.74.07-1.62-.66-2.47-.57-2.74.27-5.78,1.47-7.74,1.77-.73.11-1.7-.65-2.48-.55-7.21.85-14.92,2.19-22.4,2.63-5.5.31-10.67.1-15.65.93-.06,0-.79-.75-1.51-.6-1.58.34-3.7,1.42-5.3,1.71-2.25.41-4.5-.49-6.32,1.08-2.69.32-5.22-.67-7.39-.23-.94.19-1.38.92-2.41.84s-1.84-.9-3-1.19a9.32,9.32,0,0,0-5.89.37c-6.42,2.26-18-.17-25.1.88-1,.14-1.55.09-2.46.15-2.14.15-4.35,1-6.35,1.08-4.49.2-8.81-1-12.89-.61-2.42.24-5,1.54-7.31,1.81a50.34,50.34,0,0,1-9.91-.14c-1,.88-2.72.9-3.34,2.26-1.17.25-1.31-1.32-2.54-1.24a13.47,13.47,0,0,1-.91,1.43,6,6,0,0,1-2,.11c-2.83.23-6.07-.62-8.41.43-5.21,2.31-11.13,3.13-17,3.8s-11.81,1.26-16.94,3.25c-5.76.86-15.41,1.39-20.82,4.82-5.14-1.45-10.55.86-16,1.74-3.09.48-6.28.27-9.52.88a24,24,0,0,0-2.5,1.39c-.25,0-.28-.84-1-.68-1.56.34-2.89,1.21-4.52,1.41a43.82,43.82,0,0,1-7.05.05c-2.75-.13-5.44-.83-8.07-.66-5.31.39-10.48,4.69-15.69,2.64-2,1.5-3.77,1-5.57-.06-3.85,2.33-8,1.93-11.75,2.46-2.13.31-4,1.06-6.15,1.23s-2.63-.77-4.07-.11c-1.76.8-8.15.14-9.69.27a9.84,9.84,0,0,0-2.06.6c-.37.08-.56-.71-.48-.71-3.23.24-8.66.81-9.77,1.64-1.63,1.24-3.68-.12-5.07-.28-6.19-.73-10,.24-14.83,1.87a2.63,2.63,0,0,1-2.48-.84c-1.21-1-1.77,2.63-2.07.57-2.32.88-3-.21-5.54-.39-.21,1.37-1,1.49-1.68,1.27a3.92,3.92,0,0,1-1-.48c-.25-.17-.43-.32-.43-.32-.71-.22-1.14.63-1.56.58-2.13-.32-4-1.92-5.93-1.82-1.56.08-2.82,1-4.18,1.77-3.84,1.18-9.41,1.27-14.73,1.58C236.93,199.51,239.38,198.59,240.34,199Zm405.57-68.41c-18.31-.07-40,.21-59.66.35,19.23-3,39-2.82,56.65-1.62C643.61,129.39,645.84,128.1,645.91,130.59ZM501,139c-1.79-1.67,2.42-1.81,0,0Zm-22.07-16.68-1,.05-.08-1.38,1-.05Zm638.89-21.06-1-.17.24-1.36,1,.17Z"/><path class="cls-1" d="M-49.85,175.56c-.79-2.27,2.08-3,2.63-1.57.69-1.76,2.4-1.14,3.51-2.33.61-.65,2.23-.84,3.58-1.64.71-.42,1.19-1.32,1.75-1.51,2.87-1,6.43-.81,9.64-2.08a18.78,18.78,0,0,1,2.77-.81,12.15,12.15,0,0,0,2.8-.11,66.93,66.93,0,0,1,7.43-1.67,98.41,98.41,0,0,1,13.62.27c.75,0,1.55-.72,2.34-.71,2.31,0,5.92,1,9.43.59.71-.07,1.66-1.44,2.35,0,3.2-2.64,7.85-4,12.76-4.65a86.22,86.22,0,0,1,14.36-.57c2.14-1.51,6.66-2.29,10.62-2.37.94,0,2.31-.7,2.9-.58s.92,3.72,1.41.74c3.41-1,7.17,0,11.08-.23,2.51-.17,5.27-1.59,7.82-1.65,1.4,0,2.9.86,4.3.93,1.92.09,3.67-.83,5.87-1.06a10.64,10.64,0,0,0,2.41.14,26.94,26.94,0,0,1,7.3-.18c1.37.13,2.66,1,3.83,1s2.73-1,4-1.1c1.57-.08,2.83.36,4.36.3,4-.17,8-.81,13.21-.36a68.43,68.43,0,0,0,8.75.7c3.84-.13,7.43.64,11.19,1,1.66.14,4-1.89,5.36.47,5.2-.77,10.59-.14,16.21.07,1.92.07,3.88-.21,5.93-.15.4,0,.69.89,1.4.82,4-.37,10.95-.59,15.41-1.34,3.83-.65,7.3-1.09,10.72,1.69,4.12-1,9.73.05,13.37-.15,1.46-.08,2.56-.64,3.93.35,1.7-.54,3.49-.93,5.1-1.62a52.57,52.57,0,0,0,10.78,1.45c3.62.12,7.25,0,10.92-.26,3.2-.2,6.83-.92,10-.55,2.1.26,4.17,1.49,6.3,1.87,4.12.73,8.46.27,12.89.26a81.47,81.47,0,0,1,8.94-.06c1.15.12,2.72,1.92,4.41,1,.16-.09.48-1.31.58-1.35,2.09-.65,5.6-.08,8-.21,3.43-.2,6.65-.83,10-.8,2.87,0,5.54,1.45,9.41.41.9-.24,1.92-1.15,3-1.25,1.46-.13,3,1.7,4.45.19,2.13,2.3,6.43,1.83,7.76,5.12.59,4.69-1.22,6.58-.31,9.65-2.26,1.63-5.21,2.49-7.53.4-4.25,1.88-8.67.15-13.05.12-5.21,0-9.51.49-15.56.54-.76,0-1,.68-1.54.6-.41-.06-.44-.76-1-.75-5.26.15-12.73,1-19.58.78a50.93,50.93,0,0,1-6-.44c-1.49-.22-3.41-1-4.92-1.05l-18.38-.8c-.4,0-.42-.81-.93-.77a5.22,5.22,0,0,1-2.53.48,34.45,34.45,0,0,0-7.42-.62c-.54,0-1.1.61-2,.51a2.28,2.28,0,0,1-.95-.43,4.08,4.08,0,0,1-.47-.39c-1.4,0-2.81,1.1-4.06,1s-2.52-1-3.88-1c-1.83,0-3.69.9-5.54.88s-3.88-1-5.85-1.22a12.24,12.24,0,0,0-2-.18c.1,0-.33,1.12-.55.64-.49-1.07-8.26-.92-11.83-.41-.76.11-1.64,1.05-2.58,1.15a27.47,27.47,0,0,1-3.43-.32c-.11,0-.57.75-1,.59-1.12-.36-4.2.09-6.42.1-4.09,0-8.22-.32-12.26-.44-1.81-.06-3.53-.26-5.37-.5-1.36-.18-2.91-1-4.32-1.08-2.39-.16-4.95.83-7.41.73s-5.05-1.23-7.71-1.37c-4.38-.24-8.9.43-13.19.27-.18,0-1.09-.9-1.88-.84s-.95.62-1.51.57c-2.49-.24-5.07-1.78-7.62-2-3.46-.31-6.89-.12-10.61-.79-1.06-.2-2.64,1-3.32-.92-4.08,1.38-8.09,1.36-13.13,1.16-2.37-.09-10.17,1-14,.6a25.58,25.58,0,0,0-2.87-.16c-3.28,0-6.46,1.71-9.08-.46C57.2,167.16,50.88,168,49,165.3c-4.8,2.46-10.67.13-15.74,3-4.81-.34-11.06.92-17.92.45-4.64-.23-9.23-2-13.09,1.52-2.27.21-2.61.69-5.6.75-.84.4-1.65,1.1-2.48,1.53a2.25,2.25,0,0,1-2.6,0c-2.79,2.3-6.7.79-11,1.82-1.24.29-2.66,1.38-4.09,1.54s-3.08-.57-4.65-.5c-1.28.09-2.52.94-3.61,1-3.46.05-6.39-2.14-8.17,1.28C-42.35,175.27-46.86,176.78-49.85,175.56Z"/><path class="cls-1" d="M-13.16,79.6c1.24.16,1,2.36,2.67,2,1.29,0,2.51,0,3.1-.78,1.75,2,3.93.54,5.2.63,2.63.19,5.77.33,8.29.6a42.67,42.67,0,0,0,5.18-.05c1.73,0,3.61,1.24,5.17,1.32,1.76.14,3.43-.64,5.14-.62,4.72.07,11.63,1.12,18.48,1a.34.34,0,0,0,0-.69c-1.55-.24-4,.71-4.08-1.44,1.53-.77,3.51.84,4.61.76.87-.05,1.79-1.5,2.06-.62,1.46.19,2.78.19,2.62-2-1.83,1-3-1.27-4.57-1.54-1-.17-2.73.89-4.14.63-2-.37-4.37.51-5.65-1.46,1.08-.39,3.38.9,3.63-.64-3.24-1.38-9.74-.68-13.44-.88-2.8-.16-4.34-.91-4.66.62-3.81-3-10.83-.42-14.61-1.91-.82.07-.38,1.76-1.54,1.4-1.25.29.24-3.14-1.6-2-2.72.55-5.83.22-9,.18a26.27,26.27,0,0,0-9.3,1c-2-1-5.22-3-6.86-.42,1,.26,3.13-1.06,2.69,1.27-3.52-.11-7.56.62-11.52,1.21.91,4.08,6.89.8,10.07,1.6,1.06.43,1.29,2,2.21,2.67C-20.1,79.78-15.45,82.81-13.16,79.6Zm42.52-1h-1l0-1.38h1Zm-41.05-2.54c.2-1.14,3.94-1.3,4.19-.14C-7.56,79.06-11,76.59-11.69,76.09Z"/><path class="cls-2" d="M1011.22,136.36s-62.83-10.79-119.46-26.55-180.07-7.54-222,8.85-104.94,11.94-158,18.41-94.53,2.93-142.67,2.09-136.18,12.49-178.15.41-71-7.19-96-5S19,193.6-40,148.37-87.87,67.5-99.44,68.82s88.3-187.13,109-180.3S1094.75-76.33,1088.52-67.06,1011.22,136.36,1011.22,136.36Z"/></g></svg>