<svg id="Layer_2" data-name="Layer 2" xmlns="http://www.w3.org/2000/svg" viewBox="0 0 666.94 420.04"><defs><style>.cls-1{stroke:#000;stroke-miterlimit:10;stroke-width:0.42px;}.cls-2{fill:#0085b3;}</style></defs><title>Pure Wind Cafe-logo</title><path class="cls-1" d="M72.26,187.38a25.07,25.07,0,0,1-11.14,21.57q-10.64,7.41-27.68,7.41-1.37,0-4.57-.22t-3.56-.22q-.72,0-.72,2.23v25.74q0,3.38,1.4,4.39t7.59,2.09q4,.72,4,2.8,0,1.8-.65,2.23t-3.6.29a240.34,240.34,0,0,0-28.4.58q-3.09.22-3.09-2.52,0-1.87,3.09-2.16,7-.72,7-7.69V175q0-6.83-8-8.41-4-.79-4-2.52,0-2.23,1.08-2.66a8,8,0,0,1,3.31.14,53.25,53.25,0,0,0,9.56.65q3.16,0,11.4-.32t13.27-.32q15.39,0,24.3,6.47Q72.26,174.79,72.26,187.38ZM58.31,189q0-12.58-5.9-17.62-5.54-4.75-18.69-4.75-5.39,0-7.26,1.47t-1.87,6.36v34.44q0,2,9.56,2,11.14,0,17.65-5.68T58.31,189Z"/><path class="cls-1" d="M152.29,249.65q0,1.44-6.76,4.39l-5.75,2.52q-.94,0-4-3.24t-4.28-3.24q-.65,0-7.41,3a29.81,29.81,0,0,1-11.86,3q-10.79,0-15-4.1-4.6-4.39-4.6-15.89V221.68q0-6-1.22-8.48-1.65-3-6.69-4.6-1.65-.5-1.65-1.8t2.8-2.52q5.32-2.09,10.57-4.24a16.3,16.3,0,0,1,5.32-1.51q2.52,0,2.52,3.38-.43,15.17-.43,22v8.63q0,8.77,3.45,12,3.09,2.88,11.29,2.88,12.65,0,12.65-12.94v-12.8q0-7-1.26-9t-6.72-3.42a2.27,2.27,0,0,1-1.58-2.23,2.49,2.49,0,0,1,1.94-2.37q14.88-5.39,16.32-5.39,2.8,0,2.8,3.24s-.07,2.36-.22,7.23-.22,9.57-.22,14.13V242q0,5.11,7.48,5.68Q152.29,247.92,152.29,249.65Z"/><path class="cls-1" d="M208.52,204.71q0,8.7-5,8.7a41.8,41.8,0,0,1-5.25-1,33.39,33.39,0,0,0-6.54-1q-8.05,0-8.05,10.86v21.21q0,3.74,2.59,5.32,1.51.93,7.55,2.52,3.24.79,3.24,2.44,0,1.94-.54,2.34a4.77,4.77,0,0,1-2.7.18q-15.82-1.65-25-.14-2.88.5-3.67,0t-.65-2.52q0-1.94,4-3.09t4-6.9V220.53q0-4.53-1.19-6.11t-6.51-4.24l-.43-.22a2.21,2.21,0,0,1-1.44-2q0-1.44,2.95-2.44a31.83,31.83,0,0,0,9.06-4.89q3.38-2.66,4.31-2.66,2.59,0,3.09,4.46.65,5.68,1.51,5.68s2.73-1.8,8.05-5.39a20.22,20.22,0,0,1,11.5-3.52Q208.52,199.17,208.52,204.71Z"/><path class="cls-1" d="M271.65,243.61q0,3.09-8.34,7.69a40.66,40.66,0,0,1-19.49,5.11,25.34,25.34,0,0,1-18.26-7.12q-7.91-7.55-7.91-20.13,0-14.24,8.84-22.87a28,28,0,0,1,20.28-8.05,22.08,22.08,0,0,1,13.3,4.53,19.42,19.42,0,0,1,7.33,9.2q.65,1.8,1.94,2a2.23,2.23,0,0,1,1.87,2.52q0,2.95-7,5L231,231.38q3.24,17.11,17.54,17.11,8.27,0,18.84-6a6.07,6.07,0,0,1,3.09-.93Q271.65,241.52,271.65,243.61Zm-17-28.83a9.22,9.22,0,0,0-3.2-6.94,11.12,11.12,0,0,0-7.87-3q-13.23,0-13.23,19.05v1.73l19.56-5.9Q254.61,218.37,254.61,214.77Z"/><path class="cls-1" d="M471.82,164.08q0,2.44-4.6,3.81-5,1.51-8.34,9.92Q442.7,217.65,428.83,254q-1.15,3-5.32,4.17a.89.89,0,0,1-.5.14q-2,0-2.88-4.31-3.31-15.68-24-62.41-9,22.58-23.87,62.41-1.08,3-5.11,4.17l-.58.14q-2,0-2.8-4.31Q361,239.58,332.19,175.3A13.93,13.93,0,0,0,322.05,167q-3.52-.79-3.52-2.09,0-3,3.09-2.73,11.14,1,27.83-1.51,2.8-.43,3.52-.07t.86,2.16q.36,1.44-3.52,3.38-4.6,2.3-4.6,5.25a8.79,8.79,0,0,0,.65,3q7.19,19.05,22.94,60.61.5,1.37,1.37,1.37T372,235l19.92-53q-1.15-2.37-3.24-6.76-2.59-5.39-9.13-8.41-3.31-1.51-3.09-2.95.36-3.24,3.24-2.8a107.79,107.79,0,0,0,28.55.43q2.88-.29,3.56.11t.68,2.26q0,1.8-3.67,2.95-7,2.23-7,4.67a9.36,9.36,0,0,0,.72,2.88L425.59,235q.5,1.44,1.44,1.44T428.4,235l21.5-57.38a9.94,9.94,0,0,0,.58-3.09q0-5-8.56-7.84-3.24-1.08-3.09-3.24.14-1.58.79-1.94a10,10,0,0,1,4,0,111.09,111.09,0,0,0,25.17.29Q471.82,161.57,471.82,164.08Z"/><path class="cls-1" d="M507.17,253.89q-.36,2.09-1.73,2.37a29.1,29.1,0,0,1-3.45-.14,128.48,128.48,0,0,0-21.07.29q-2.8.29-3.52-.22t-.72-2.3q0-1.65,3.81-2.73,4.17-1.22,4.17-8V224.34q0-5.68-1.15-8-1.58-3.16-6.54-4.82-2.23-.79-2.23-2.37,0-2.09,3.24-3.09a41.62,41.62,0,0,0,10.71-5q3.74-2.59,4.6-2.59,2.88,0,2.8,3.74-.29,18.84-.29,38.4,0,4.67,1.37,6.69,1.51,2.23,5.75,3.16Q507.6,251.59,507.17,253.89Zm-8-81.39a9.18,9.18,0,0,1-2.48,6.15,7.17,7.17,0,0,1-5.43,2.84,7.79,7.79,0,0,1-5.54-2,6.85,6.85,0,0,1-2.16-5.25,8.39,8.39,0,0,1,2.62-5.9,7.77,7.77,0,0,1,5.64-2.73Q499.19,165.59,499.19,172.49Z"/><path class="cls-1" d="M592,254.39q0,2.23-3.24,2a222.44,222.44,0,0,0-23.44-.29q-4.1.29-4.46-1a4,4,0,0,1-.14-1.22q0-1.44,4.17-2.59,3.81-1.08,3.81-7.41V224.77q0-16.46-14.31-16.47a24.13,24.13,0,0,0-11.86,3q-5.18,2.95-5.18,6.11v26.32q0,6.76,8.84,7.55,3.38.29,3.38,2.16t-.93,2.16a10.35,10.35,0,0,1-2.44.07,137.8,137.8,0,0,0-23.3,1.15,13,13,0,0,1-3.24.22q-1.44-.29-1.44-2.23,0-1.73,4.1-2.95,3.81-1.15,3.81-9.56V220.53q0-5.54-1.44-7-1-1.08-6.69-3a2,2,0,0,1-1.44-2q0-1.44,2.95-2.52a42.22,42.22,0,0,0,8.84-4.82q4-2.73,5.18-2.73,1.94,0,2.59,4.42t1.8,4.42q-.58,0,7.33-4.21a33,33,0,0,1,15.6-4.21q18.62,0,18.77,21.21l.14,23.15q0,4.46,2.3,6.4,1.73,1.44,6.69,2.44Q592,252.67,592,254.39Z"/><path class="cls-1" d="M666.65,248.64a2.73,2.73,0,0,1,.29.93q0,1.51-7.33,5-8.49,4-10,4-1.29,0-3-4.35t-2.34-4.35s-2.67,1.26-8.16,3.77-9.65,3.77-12.48,3.77a22.75,22.75,0,0,1-16.47-6.83q-8.41-8.13-8.41-22.79,0-12.3,9.92-21.21,8.77-7.84,17.9-7.84a87.27,87.27,0,0,1,15.46,1.65q2.8.5,2.8-1.65V174.08q0-4.17-2-5.9-1.29-1.15-6.11-2.73-2.3-.86-2.3-2.8t3.09-2.66a64.1,64.1,0,0,0,10.14-4.31q4.89-2.59,6-2.59,2.66,0,2.66,3.67s-.07,2.34-.22,7.15-.22,9.5-.22,14.06v65.36q0,4.1,3.67,4.1a21,21,0,0,0,3.67-.43A2.74,2.74,0,0,1,666.65,248.64Zm-22.22-7.12V215.78q0-3.16-5.61-6.54a24.63,24.63,0,0,0-12.94-3.6q-15,0-15,18.55a25.38,25.38,0,0,0,6,17q6,7,14,7a20.15,20.15,0,0,0,8.63-2.44Q644.44,243.32,644.44,241.52Z"/><path class="cls-2" d="M217.35,92.13a47.34,47.34,0,0,1-35.44-35.55c-2.23-10.06,2.86-21.35,8.66-29.54,9.93-14,29-17.56,45-19.07,17.1-1.62,33.22,3.28,48.91,9.7,16.84,6.89,32.92,15.46,49.41,23.14C347.18,47,361.25,53.53,376,55.1c10.79,1.14,25.14-1.81,28.92-13.68,2.46-7.71-2.62-16-10.17-18.36-8.22-2.59-17.58,1.8-24.1,6.55-16.66,12.14-22,34-28.28,52.68-5.8,17.26-11.3,34.63-17.43,51.78-1.6,4.47,5.51,6.39,7.1,2,5.14-14.39,9.8-29,14.64-43.44,5.43-16.26,9.76-35.42,20.25-49.16a38,38,0,0,1,12.85-10.84c5.22-2.67,18.22-6,18.5,4.44.19,7-8.83,10.35-14.43,10.9C370.36,49.26,356,42.71,344,37.37,314.38,24.21,284.93,4.82,252.19.73c-26.6-3.33-60.48,4.44-72.51,30.75-5.49,12-7.64,21.87-2.44,34.64,6.71,16.47,20.66,29.22,38.14,33.11,4.62,1,6.59-6.07,2-7.1Z"/><path class="cls-2" d="M332,137.92c11.5-13.46,26.83-35.1,46.55-34.43l-3.18-5.54-9.19,16.58c-2.52,4.54-5.82,9.38-6.68,14.61-1.15,7,2.71,11.76,9.78,9.47,12.16-3.93,24.63-10.75,35.1-18,5.68-3.92,18.68-14.62,7.75-20.76-7.06-4-15.66,1.59-20,7.16-4.15,5.36-5.39,12.94-4.87,19.57.57,7.25,3.56,13.23,11.43,13.79s17.73-3.19,23.19-9c3.24-3.45-2-8.67-5.21-5.21-3.76,4-11.6,7.64-17.17,6.92-6.61-.85-5.41-10.77-4.21-15.64a15.79,15.79,0,0,1,5.27-8.64c.74-.62,7.38-4.85,8.34-2.45.8,2-7.22,7.18-8.27,7.91A165.88,165.88,0,0,1,374,128.7c-1.61.72-3.7,2.11-5.46,2.32-.32,0-1.72.94-2,.76-.69-.49,1-3.94,1.45-5.07,3.55-8.66,9.16-16.86,13.7-25a3.72,3.72,0,0,0-3.18-5.54c-22.36-.76-38.74,21.34-51.76,36.59-3.06,3.58,2.12,8.82,5.21,5.21Z"/><path class="cls-2" d="M281.23,140.55c24.43-9.33,30.54-35.2,36.29-58a268.83,268.83,0,0,1,14.72-43.24c5.07-11.44,11-23.14,22.67-28.94,4.24-2.11.52-8.46-3.72-6.36-20.54,10.2-28.93,37.9-35.5,58.12C308,85.89,306.56,123,279.27,133.45c-4.38,1.67-2.48,8.79,2,7.1Z"/><path class="cls-2" d="M310.84,309.25h61.85c4.74,0,4.75-7.36,0-7.36H310.84c-4.74,0-4.75,7.36,0,7.36Z"/><path class="cls-2" d="M372.54,343.2c6.14-3.59,22.83-11.81,19.91-21.5-2.85-9.45-15.58-5.12-20.61-.68-7,6.18-9.19,16.07-7.86,25.08,1,7.09,5,12.21,12.56,10.95,7.75-1.29,15.23-6.18,21.73-10.35,7.36-4.73,15.85-8.9,21.75-15.42,5.21-5.76,4.44-14.21-4.48-15.23-9.27-1.05-17.41,7.91-19.72,16.07-2,7.24-2.86,20.33,5.15,24.44,8.48,4.35,22.31-1.36,28.32-7.76,3.24-3.45-2-8.67-5.21-5.21-3.57,3.81-14.07,9.31-19.33,6.59-5.11-2.64-2.8-14.86-.86-18.9,1.54-3.21,5.64-7.52,9.4-7.84,7.41-.64-4.06,7.43-5.44,8.39-3.85,2.66-7.92,5-11.83,7.57a117.05,117.05,0,0,1-12.79,7.47c-4.31,2.11-10.31,5.75-11.8-.72-1.58-6.83.16-15.31,5.63-19.91,1.63-1.37,4.59-3.56,6.81-2.56,2.57,1.16.29,2.16-1.31,3.76-3.86,3.87-9,6.68-13.72,9.42-4.09,2.39-.39,8.75,3.72,6.36Z"/><path class="cls-2" d="M379.38,279.84c-24.43,9.33-30.54,35.2-36.29,58a268.83,268.83,0,0,1-14.72,43.24c-5.07,11.44-11,23.14-22.67,28.94-4.24,2.11-.52,8.46,3.72,6.36,20.54-10.2,28.93-37.9,35.5-58.12,7.73-23.78,9.14-60.92,36.42-71.34,4.38-1.67,2.48-8.79-2-7.1Z"/><path class="cls-2" d="M347,275.43c-14.34,5.72-22,21.72-26.92,35.49-4.44,12.34-8.7,24.75-13,37.15a161.72,161.72,0,0,1-7.9,20c-4.91,9.74-16.16,24-28.85,22.64-8.08-.85-9.83-9.6-4-14.35a18.33,18.33,0,0,1,8.11-3.52c6.6-1.28,13.54.1,19.92,1.86,34.89,9.6,64.74,32.42,99.73,42.06,17.76,4.89,36.12,4.14,53.83-.92,12.79-3.65,24.12-10.52,30.77-22.32,6.27-11.13,10.19-22.41,6.26-35-5.71-18.37-20.81-33.1-39.67-37.3-4.62-1-6.59,6.07-2,7.1,17.84,4,32.93,19.21,35.84,37.53,1.58,10-4.7,22.84-11.18,30.27-11.81,13.53-34.33,16.93-51.21,16.84-17.87-.1-35.52-7.67-51.51-14.93-16.92-7.68-33.31-16.5-50.44-23.72-12.61-5.32-27.28-11.14-41.24-8.72-13.34,2.31-26.71,18.33-12.42,29.32,16.79,12.91,38.43-10.68,45-24.18,6.7-13.83,11-29.1,16.08-43.58,2-5.84,3.92-11.79,6.22-17.53,3.37-8.42,10.13-22.87,20.57-27,4.35-1.73,2.45-8.86-2-7.1Z"/><path class="cls-2" d="M281.32,357.07a18.93,18.93,0,1,1,13.39-5.55A19,19,0,0,1,281.32,357.07Zm0-30.74a11.8,11.8,0,1,0,8.82,4A11.81,11.81,0,0,0,281.32,326.33Z"/><path class="cls-2" d="M244.65,357.07a32.15,32.15,0,1,1,19-58.06,3.57,3.57,0,1,1-4.23,5.75,25,25,0,1,0,2.88,37.84,3.57,3.57,0,0,1,5,5A31.94,31.94,0,0,1,244.65,357.07Z"/></svg>